<svg width="16" height="16" viewBox="0 0 16 16" fill="none" xmlns="http://www.w3.org/2000/svg">
<path fill-rule="evenodd" clip-rule="evenodd" d="M3.3335 6.58542C3.3335 4.05398 5.42197 2.00236 8.00016 2C10.5784 2.00236 12.6668 4.05398 12.6668 6.58542C12.6668 9.40654 9.96203 12.8653 8.67191 14.3588C8.32491 14.7693 7.68431 14.7693 7.32841 14.3588C6.03829 12.8653 3.3335 9.40654 3.3335 6.58542ZM8.00016 2C8.00164 2 8.00313 2 8.00461 2H7.99571C7.9972 2 7.99868 2 8.00016 2ZM10.0002 6.66667C10.0002 7.77124 9.10473 8.66667 8.00016 8.66667C6.89559 8.66667 6.00016 7.77124 6.00016 6.66667C6.00016 5.5621 6.89559 4.66667 8.00016 4.66667C9.10473 4.66667 10.0002 5.5621 10.0002 6.66667Z" fill="#38383D"/>
</svg>
