<svg width="43" height="16" viewBox="0 0 43 16" fill="none" xmlns="http://www.w3.org/2000/svg"><path d="M4.48589 12.9654C3.72484 12.9679 2.99231 12.6734 2.4415 12.1434C1.89069 11.6135 1.56425 10.9163 1.53046 10.1491C1.48902 8.71757 1.49068 7.34484 1.53046 5.78077C1.57024 4.29052 2.92613 3.00265 4.42456 3.00098H13.8766V4.99467H3.49285V6.98647H13.8842V8.97962H3.49783V10.9725H13.8842V12.9654C13.8842 12.9654 5.24694 12.9629 4.48589 12.9654Z" fill="#8B95A1"/><path fill-rule="evenodd" clip-rule="evenodd" d="M27.1932 3V4.99288L17.4397 4.99563V6.98852L20.5787 6.98688V6.98591L22.4298 6.98591L22.7041 6.98576V6.98589C22.9312 6.98581 23.1208 6.98537 23.3379 6.98487C23.6753 6.98409 24.0791 6.98316 24.7934 6.98316C25.5833 6.97092 26.3611 7.30366 26.9283 7.85533C27.4955 8.407 27.821 9.1621 27.8332 9.95451C27.8454 10.7469 27.5433 11.5117 26.9933 12.0807C26.4434 12.6497 25.6927 12.9496 24.9028 12.9618L16.0184 12.9646V10.9717L25.8431 10.9689V8.97604L22.7041 8.97768V8.97865L20.8525 8.97865L20.5787 8.9788V8.97867C20.3516 8.97875 20.162 8.97919 19.9449 8.97969C19.6075 8.98047 19.2037 8.9814 18.4894 8.9814C17.6995 8.99364 16.9217 8.6609 16.3545 8.10923C15.7873 7.55756 15.4618 6.80246 15.4496 6.01005C15.4374 5.21763 15.7395 4.45281 16.2895 3.88383C16.8394 3.31486 17.59 3.01499 18.38 3.00275L27.1932 3Z" fill="#8B95A1"/><path d="M34.31 13V4.99288H29.1855V3L41.5697 3V4.99288H36.4452V13H34.31Z" fill="#8B95A1"/></svg>