<svg width="24" height="24" viewBox="0 0 24 24" fill="none" xmlns="http://www.w3.org/2000/svg">
<path d="M3.69077 6.83333L18.0913 20.1111M3.69077 6.83333C4.22656 6.25563 5.02682 5.88889 5.92089 5.88889H10.789M3.69077 6.83333C3.25985 7.29796 3 7.89906 3 8.55556V18.3333C3 19.8061 4.30773 21 5.92089 21H16.6308C18.244 21 19.5517 19.8061 19.5517 18.3333V14.3333M10.789 14.3333L4.46045 20.1111M17.6897 7.02222V6.96541M21 6.95652C21 8.92754 17.6897 11.5556 17.6897 11.5556C17.6897 11.5556 14.3793 8.92754 14.3793 6.95652C14.3793 5.32368 15.8614 4 17.6897 4C19.5179 4 21 5.32368 21 6.95652Z" stroke="#38383D" stroke-linecap="round" stroke-linejoin="round"/>
</svg>
