<svg width="17" height="16" viewBox="0 0 17 16" fill="none" xmlns="http://www.w3.org/2000/svg">
<path d="M8.1 14.3999H4.09999C3.21634 14.3999 2.49999 13.6836 2.5 12.7999L2.50006 3.19997C2.50007 2.31631 3.21641 1.59998 4.10006 1.59998H11.3002C12.1839 1.59998 12.9002 2.31632 12.9002 3.19998V6.39997M13.7 13.2L14.5 14M5.30025 4.79998H10.1003M5.30025 7.19997H10.1003M5.30025 9.59997H7.70025M14.1 11.6C14.1 12.7045 13.2046 13.6 12.1 13.6C10.9954 13.6 10.1 12.7045 10.1 11.6C10.1 10.4954 10.9954 9.59997 12.1 9.59997C13.2046 9.59997 14.1 10.4954 14.1 11.6Z" stroke="#38383D" stroke-linecap="round" stroke-linejoin="round"/>
</svg>
