<svg width="56" height="56" viewBox="0 0 56 56" fill="none" xmlns="http://www.w3.org/2000/svg">
<path d="M36.125 28C36.125 34.3072 35.1655 39.995 33.6306 44.0879C32.8625 46.1362 31.96 47.759 30.9831 48.8608C30.0057 49.9632 28.9965 50.5 28 50.5C27.0035 50.5 25.9943 49.9632 25.0169 48.8608C24.04 47.759 23.1375 46.1362 22.3694 44.0879C20.8345 39.995 19.875 34.3072 19.875 28C19.875 21.6928 20.8345 16.005 22.3694 11.9121C23.1375 9.86382 24.04 8.24096 25.0169 7.13916C25.9943 6.03677 27.0035 5.5 28 5.5C28.9965 5.5 30.0057 6.03677 30.9831 7.13916C31.96 8.24096 32.8625 9.86382 33.6306 11.9121C35.1655 16.005 36.125 21.6928 36.125 28Z" stroke="url(#paint0_linear_3033_77328)"/>
<path d="M28 19.875C34.3072 19.875 39.995 20.8345 44.0879 22.3694C46.1362 23.1375 47.759 24.04 48.8608 25.0169C49.9632 25.9943 50.5 27.0035 50.5 28C50.5 28.9965 49.9632 30.0057 48.8608 30.9831C47.759 31.96 46.1362 32.8625 44.0879 33.6306C39.995 35.1655 34.3072 36.125 28 36.125C21.6928 36.125 16.005 35.1655 11.9121 33.6306C9.86382 32.8625 8.24096 31.96 7.13916 30.9831C6.03677 30.0057 5.5 28.9965 5.5 28C5.5 27.0035 6.03677 25.9943 7.13916 25.0169C8.24096 24.04 9.86382 23.1375 11.9121 22.3694C16.005 20.8345 21.6928 19.875 28 19.875Z" stroke="url(#paint1_linear_3033_77328)"/>
<path d="M33.7453 22.2548C38.2052 26.7147 41.5486 31.4151 43.3574 35.3945C44.2626 37.386 44.7719 39.1717 44.8603 40.6415C44.9487 42.1121 44.6146 43.2053 43.91 43.91C43.2053 44.6146 42.1121 44.9487 40.6415 44.8603C39.1717 44.7719 37.386 44.2626 35.3945 43.3574C31.4151 41.5486 26.7147 38.2052 22.2548 33.7453C17.795 29.2854 14.4516 24.5851 12.6427 20.6057C11.7375 18.6142 11.2282 16.8284 11.1398 15.3586C11.0514 13.888 11.3855 12.7948 12.0902 12.0902C12.7948 11.3855 13.888 11.0514 15.3586 11.1398C16.8284 11.2282 18.6142 11.7375 20.6057 12.6427C24.5851 14.4516 29.2854 17.795 33.7453 22.2548Z" stroke="url(#paint2_linear_3033_77328)"/>
<path d="M12.0902 43.91C11.3855 43.2053 11.0514 42.1121 11.1398 40.6415C11.2282 39.1717 11.7375 37.386 12.6427 35.3945C14.4516 31.4151 17.795 26.7147 22.2548 22.2548C26.7147 17.795 31.4151 14.4516 35.3945 12.6427C37.386 11.7375 39.1717 11.2282 40.6415 11.1398C42.1121 11.0514 43.2053 11.3855 43.91 12.0902C44.6146 12.7948 44.9487 13.888 44.8603 15.3586C44.7719 16.8284 44.2626 18.6142 43.3574 20.6057C41.5486 24.5851 38.2052 29.2854 33.7453 33.7453C29.2854 38.2052 24.5851 41.5486 20.6057 43.3574C18.6142 44.2626 16.8284 44.7719 15.3586 44.8603C13.888 44.9487 12.7948 44.6146 12.0902 43.91Z" stroke="url(#paint3_linear_3033_77328)"/>
<defs>
<linearGradient id="paint0_linear_3033_77328" x1="28" y1="5" x2="28" y2="51" gradientUnits="userSpaceOnUse">
<stop stop-color="white"/>
<stop offset="1" stop-color="white" stop-opacity="0"/>
</linearGradient>
<linearGradient id="paint1_linear_3033_77328" x1="5" y1="28" x2="51" y2="28" gradientUnits="userSpaceOnUse">
<stop stop-color="white"/>
<stop offset="1" stop-color="white" stop-opacity="0"/>
</linearGradient>
<linearGradient id="paint2_linear_3033_77328" x1="11.7366" y1="11.7366" x2="44.2635" y2="44.2635" gradientUnits="userSpaceOnUse">
<stop stop-color="white"/>
<stop offset="1" stop-color="white" stop-opacity="0"/>
</linearGradient>
<linearGradient id="paint3_linear_3033_77328" x1="44.2636" y1="11.7366" x2="11.7367" y2="44.2635" gradientUnits="userSpaceOnUse">
<stop stop-color="white"/>
<stop offset="1" stop-color="white" stop-opacity="0"/>
</linearGradient>
</defs>
</svg>
