<svg width="16" height="16" viewBox="0 0 16 16" fill="none" xmlns="http://www.w3.org/2000/svg">
<path d="M12.6667 6.99996V3.99996C12.6667 3.26358 12.0697 2.66663 11.3333 2.66663H3.33333C2.59695 2.66663 2 3.26358 2 3.99996V9.21735C2 9.95373 2.59695 10.5507 3.33333 10.5507H4.37681V13.3333L7.15942 10.5507H7.33333M10.7754 12.2608L12.5145 14V12.2608H12.6667C13.403 12.2608 14 11.6639 14 10.9275V8.66662C14 7.93025 13.403 7.33329 12.6667 7.33329H8.66667C7.93029 7.33329 7.33333 7.93025 7.33333 8.66663V10.9275C7.33333 11.6639 7.93029 12.2608 8.66667 12.2608H10.7754Z" stroke="#38383D" stroke-linecap="round" stroke-linejoin="round"/>
</svg>
