<svg width="24" height="24" viewBox="0 0 24 24" fill="none" xmlns="http://www.w3.org/2000/svg">
<path d="M11.5485 3.29429C11.7332 2.9019 12.2668 2.9019 12.4515 3.29429L14.8426 8.37378C14.916 8.5296 15.0577 8.6376 15.2217 8.66259L20.5683 9.47712C20.9813 9.54004 21.1463 10.0722 20.8474 10.3776L16.9786 14.3315C16.8599 14.4527 16.8057 14.6275 16.8338 14.7987L17.7471 20.3816C17.8176 20.8129 17.3859 21.1418 17.0164 20.9382L12.2343 18.3023C12.0876 18.2214 11.9124 18.2214 11.7657 18.3023L6.98356 20.9382C6.61415 21.1418 6.18239 20.8129 6.25294 20.3816L7.16625 14.7987C7.19426 14.6275 7.14011 14.4527 7.02143 14.3315L3.15262 10.3776C2.85375 10.0722 3.01867 9.54004 3.43169 9.47712L8.77826 8.66259C8.94227 8.6376 9.08405 8.5296 9.15739 8.37378L11.5485 3.29429Z" stroke="#38383D" stroke-linejoin="round"/>
</svg>
