<svg width="57" height="56" viewBox="0 0 57 56" fill="none" xmlns="http://www.w3.org/2000/svg">
<path fill-rule="evenodd" clip-rule="evenodd" d="M28.667 11L43.667 38.7742H40.0956L43.667 45.3871H40.0956L43.667 52H13.667L17.2384 45.3871H13.667L17.2384 38.7742H13.667L28.667 11ZM17.9528 38.7742L14.7273 44.7465H17.5844L20.8099 38.7742H17.9528ZM21.1558 38.1336H18.2988L28.667 18.9356L39.0352 38.1336H36.1781L28.667 24.2258L21.1558 38.1336ZM21.5242 38.7742L18.2988 44.7465H39.0352L35.8098 38.7742H21.5242ZM35.4638 38.1336H21.8702L28.667 25.5486L35.4638 38.1336ZM36.5241 38.7742L39.7496 44.7465H42.6066L39.3812 38.7742H36.5241ZM39.7496 38.1336L28.667 17.6129L17.5844 38.1336H14.7273L28.667 12.3227L42.6066 38.1336H39.7496ZM14.7273 51.3594L17.9528 45.3871H39.3812L42.6066 51.3594H14.7273Z" fill="url(#paint0_linear_3542_93752)"/>
<path d="M28.667 4L29.1055 5.94133L30.7883 4.87868L29.7257 6.56148L31.667 7L29.7257 7.43852L30.7883 9.12132L29.1055 8.05867L28.667 10L28.2285 8.05867L26.5457 9.12132L27.6083 7.43852L25.667 7L27.6083 6.56148L26.5457 4.87868L28.2285 5.94133L28.667 4Z" fill="url(#paint1_radial_3542_93752)"/>
<defs>
<linearGradient id="paint0_linear_3542_93752" x1="28.667" y1="11" x2="28.4912" y2="62.9112" gradientUnits="userSpaceOnUse">
<stop stop-color="white" stop-opacity="0.9"/>
<stop offset="1" stop-color="white" stop-opacity="0"/>
</linearGradient>
<radialGradient id="paint1_radial_3542_93752" cx="0" cy="0" r="1" gradientUnits="userSpaceOnUse" gradientTransform="translate(28.667 7) rotate(90) scale(3)">
<stop stop-color="white"/>
<stop offset="1" stop-color="#C4C4C4" stop-opacity="0"/>
</radialGradient>
</defs>
</svg>
