<svg width="105" height="26" viewBox="0 0 105 26" fill="none" xmlns="http://www.w3.org/2000/svg"><path d="M8.34535 25.9075C6.36663 25.9139 4.46205 25.1482 3.02994 23.7704C1.59782 22.3926 0.749089 20.5797 0.661229 18.585C0.553488 14.8632 0.557798 11.294 0.661229 7.22747C0.764661 3.35282 4.28996 0.00434866 8.18589 0H32.7612V5.18361H5.76345V10.3623H32.7809V15.5445H5.77638V20.726H32.7809V25.9075C32.7809 25.9075 10.3241 25.901 8.34535 25.9075Z" fill="black"/><path fill-rule="evenodd" clip-rule="evenodd" d="M67.3839 0V5.1815L42.0248 5.18865V10.3701L50.1862 10.3659V10.3634L54.9991 10.3634L55.7123 10.363V10.3633C56.3028 10.3631 56.7957 10.362 57.3602 10.3607C58.2374 10.3586 59.2873 10.3562 61.1444 10.3562C63.1983 10.3244 65.2204 11.1895 66.6951 12.6238C68.1699 14.0582 69.0162 16.0214 69.048 18.0817C69.0797 20.142 68.2942 22.1305 66.8643 23.6099C65.4344 25.0892 63.4827 25.8689 61.4288 25.9007L38.3295 25.9078V20.7264L63.8737 20.7192V15.5377L55.7123 15.542V15.5445L50.8982 15.5445L50.1862 15.5449V15.5445C49.5957 15.5448 49.1028 15.5459 48.5383 15.5472C47.6611 15.5492 46.6112 15.5516 44.7541 15.5516C42.7002 15.5835 40.6781 14.7183 39.2034 13.284C37.7286 11.8497 36.8823 9.8864 36.8505 7.82612C36.8188 5.76584 37.6043 3.7773 39.0342 2.29797C40.4641 0.818628 42.4158 0.0389797 44.4697 0.00716088L67.3839 0Z" fill="black"/><path d="M85.8901 26V5.1815H72.5664V0L104.765 0V5.1815H91.4416V26H85.8901Z" fill="black"/></svg>