<svg width="26" height="25" viewBox="0 0 26 25" fill="none" xmlns="http://www.w3.org/2000/svg">
<mask id="path-1-inside-1_4064_33396" fill="white">
<path d="M4.02009 9.96875V8.51562H10.9693V9.96875H8.36775V17H6.62165V9.96875H4.02009ZM11.5592 8.51562H13.7388L16.0943 14.2695H16.1881L18.5435 8.51562H20.7232V17H19.0123V11.4453H18.942L16.7271 16.9648H15.5552L13.3404 11.4219H13.2701V17H11.5592V8.51562Z"/>
</mask>
<path d="M4.02009 9.96875V8.51562H10.9693V9.96875H8.36775V17H6.62165V9.96875H4.02009ZM11.5592 8.51562H13.7388L16.0943 14.2695H16.1881L18.5435 8.51562H20.7232V17H19.0123V11.4453H18.942L16.7271 16.9648H15.5552L13.3404 11.4219H13.2701V17H11.5592V8.51562Z" fill="white"/>
<path d="M4.02009 9.96875H2.02009V11.9688H4.02009V9.96875ZM4.02009 8.51562V6.51562H2.02009V8.51562H4.02009ZM10.9693 8.51562H12.9693V6.51562H10.9693V8.51562ZM10.9693 9.96875V11.9688H12.9693V9.96875H10.9693ZM8.36775 9.96875V7.96875H6.36775V9.96875H8.36775ZM8.36775 17V19H10.3677V17H8.36775ZM6.62165 17H4.62165V19H6.62165V17ZM6.62165 9.96875H8.62165V7.96875H6.62165V9.96875ZM6.02009 9.96875V8.51562H2.02009V9.96875H6.02009ZM4.02009 10.5156H10.9693V6.51562H4.02009V10.5156ZM8.96931 8.51562V9.96875H12.9693V8.51562H8.96931ZM10.9693 7.96875H8.36775V11.9688H10.9693V7.96875ZM6.36775 9.96875V17H10.3677V9.96875H6.36775ZM8.36775 15H6.62165V19H8.36775V15ZM8.62165 17V9.96875H4.62165V17H8.62165ZM6.62165 7.96875H4.02009V11.9688H6.62165V7.96875ZM11.5592 8.51562V6.51562H9.55915V8.51562H11.5592ZM13.7388 8.51562L15.5898 7.75792L15.0812 6.51562H13.7388V8.51562ZM16.0943 14.2695L14.2434 15.0272L14.752 16.2695H16.0943V14.2695ZM16.1881 14.2695V16.2695H17.5304L18.039 15.0272L16.1881 14.2695ZM18.5435 8.51562V6.51562H17.2012L16.6926 7.75792L18.5435 8.51562ZM20.7232 8.51562H22.7232V6.51562H20.7232V8.51562ZM20.7232 17V19H22.7232V17H20.7232ZM19.0123 17H17.0123V19H19.0123V17ZM19.0123 11.4453H21.0123V9.44531H19.0123V11.4453ZM18.942 11.4453V9.44531H17.5895L17.0858 10.7005L18.942 11.4453ZM16.7271 16.9648V18.9648H18.0796L18.5833 17.7097L16.7271 16.9648ZM15.5552 16.9648L13.698 17.7069L14.2006 18.9648H15.5552V16.9648ZM13.3404 11.4219L15.1976 10.6798L14.695 9.42188H13.3404V11.4219ZM13.2701 11.4219V9.42188H11.2701V11.4219H13.2701ZM13.2701 17V19H15.2701V17H13.2701ZM11.5592 17H9.55915V19H11.5592V17ZM11.5592 10.5156H13.7388V6.51562H11.5592V10.5156ZM11.8879 9.27333L14.2434 15.0272L17.9452 13.5118L15.5898 7.75792L11.8879 9.27333ZM16.0943 16.2695H16.1881V12.2695H16.0943V16.2695ZM18.039 15.0272L20.3944 9.27333L16.6926 7.75792L14.3371 13.5118L18.039 15.0272ZM18.5435 10.5156H20.7232V6.51562H18.5435V10.5156ZM18.7232 8.51562V17H22.7232V8.51562H18.7232ZM20.7232 15H19.0123V19H20.7232V15ZM21.0123 17V11.4453H17.0123V17H21.0123ZM19.0123 9.44531H18.942V13.4453H19.0123V9.44531ZM17.0858 10.7005L14.871 16.22L18.5833 17.7097L20.7981 12.1901L17.0858 10.7005ZM16.7271 14.9648H15.5552V18.9648H16.7271V14.9648ZM17.4125 16.2227L15.1976 10.6798L11.4832 12.164L13.698 17.7069L17.4125 16.2227ZM13.3404 9.42188H13.2701V13.4219H13.3404V9.42188ZM11.2701 11.4219V17H15.2701V11.4219H11.2701ZM13.2701 15H11.5592V19H13.2701V15ZM13.5592 17V8.51562H9.55915V17H13.5592Z" fill="white" mask="url(#path-1-inside-1_4064_33396)"/>
<circle cx="12.5" cy="12.5" r="12" stroke="white"/>
</svg>
