<svg xmlns="http://www.w3.org/2000/svg" width="128" height="24" fill="none" viewBox="0 0 128 24"><path fill="#050100" d="M2.282 6.55c0-2.407 2.06-4.373 4.578-4.373h114.275c2.52 0 4.581 1.966 4.581 4.373v17.341H128V6.551C128 2.94 124.917 0 121.135 0H6.86C3.078 0 0 2.941 0 6.55v17.341h2.282"/><path fill="#050100" d="M21.186 19.52c0 .177-.114.237-.312.237H19.15c-.2 0-.263-.06-.263-.251v-4.473c0-.208-.153-.319-.368-.319h-4.52c-.2 0-.32.111-.32.32v4.472c0 .19-.114.251-.296.251h-1.757c-.165 0-.233-.06-.233-.237V8.408c0-.174.068-.268.233-.268h1.757c.182 0 .296.094.296.268v4.3c0 .204.12.298.32.298h4.52c.215 0 .368-.094.368-.297V8.408c0-.174.063-.268.263-.268h1.724c.198 0 .312.094.312.268m4.175 11.514c-1.28 0-1.94-.98-1.94-1.82v-6.908c0-.205.082-.3.28-.3h1.66c.16 0 .28.095.28.3v6.674c0 .189.085.283.316.283h3.03c.2 0 .337-.094.337-.283v-6.673c0-.206.078-.3.279-.3h1.655c.18 0 .3.094.3.3v10.072c0 .251-.082.488-.201.725l-1.123 1.756c-.099.155-.249.252-.413.252h-.218c-.2 0-.28-.111-.28-.283v-4.456c0-.193-.118-.268-.301-.222l-3.182.851c-.147.032-.332.032-.479.032zm10.331-.015c-1.012 0-1.907-.79-1.907-1.819v-6.894c0-.205.084-.297.282-.297h1.675c.15 0 .267.092.267.297v6.672c0 .193.098.268.327.268h3.037c.195 0 .33-.075.33-.268v-6.671c0-.206.065-.298.263-.298h1.658c.182 0 .296.092.296.297v8.336c0 .172-.114.235-.296.235h-1.658c-.198 0-.264-.063-.264-.255v-.249c0-.208-.134-.287-.314-.222l-3.182.82c-.167.048-.352.048-.514.048zm16.602-7.302v6.925c0 .17-.12.237-.3.237h-1.66c-.195 0-.261-.068-.261-.254V12.84c0-.203-.135-.314-.33-.314h-3.037c-.23 0-.33.111-.33.314v6.674c0 .186-.114.254-.263.254H44.44c-.2 0-.282-.068-.282-.237v-8.335c0-.204.081-.298.282-.298h1.673c.15 0 .264.094.264.298v.268c0 .177.08.254.329.191l3.166-.822c.165-.032.315-.075.482-.075 1.093 0 1.94.866 1.94 1.848zm7.822 5.255v-5.013c0-.218-.099-.332-.332-.332h-3.068c-.228 0-.314.114-.314.332v5.014c0 .188.086.268.314.268h3.068c.233 0 .332-.08.332-.268zm-5.932.22v-3.983c0-.854.38-1.5 1.176-1.91l1.754-.983c.365-.222.73-.317 1.159-.317h1.526c.218 0 .317-.077.317-.266V7.346c0-.174.081-.3.248-.3h1.691c.198 0 .28.126.28.3V19.52c0 .174-.082.237-.28.237h-1.69c-.168 0-.25-.063-.25-.254v-.251c0-.206-.098-.286-.316-.22l-3.194.822c-.185.046-.332.046-.5.046-.862.031-1.921-.728-1.921-1.82zm15.981-.214v-5.007c0-.223-.12-.337-.332-.337H66.77c-.233 0-.32.114-.32.337v5.007c0 .193.087.268.32.268h3.063c.213 0 .332-.075.332-.268zm-4.01 2.041c-1.045 0-1.923-.808-1.923-1.819v-3.981c0-.856.38-1.502 1.159-1.916l1.775-.98a2.096 2.096 0 0 1 1.14-.314h3.796c.182 0 .28.092.28.297v8.336c0 .172-.098.237-.28.237h-1.689c-.185 0-.248-.065-.248-.254v-.252c0-.208-.12-.287-.332-.222l-3.182.82c-.183.048-.33.048-.497.048zm10.68-.389c0 .176-.114.237-.281.237h-1.655c-.218 0-.282-.06-.282-.237V11.19c0-.208.064-.305.282-.305h1.655c.167 0 .281.097.281.305v8.328zm0-10.875c0 .19-.114.254-.281.254h-1.655c-.218 0-.282-.063-.282-.254V7.349c0-.177.064-.303.282-.303h1.655c.167 0 .281.126.281.303m4.545 10.132v-5.989c0-.89.396-1.567 1.213-2.025l1.94-1.028a2.241 2.241 0 0 1 1.14-.302h4.11c.2 0 .296.094.296.288v1.151c0 .177-.096.252-.297.252h-5.75c-.2 0-.283.114-.283.317v7.622c0 .205.083.3.284.3h5.914c.183 0 .3.082.3.237a.437.437 0 0 1-.264.41l-1.425.76a2.441 2.441 0 0 1-1.179.286h-3.577c-1.176 0-2.421-.808-2.421-2.279zm16.232.385v-5.007c0-.223-.12-.337-.332-.337h-3.065c-.233 0-.317.114-.317.337v5.007c0 .193.084.268.317.268h3.065c.213 0 .332-.075.332-.268zm-4.01 2.041c-1.045 0-1.922-.808-1.922-1.819v-3.981c0-.856.38-1.502 1.158-1.916l1.775-.98c.365-.222.73-.314 1.143-.314h3.793c.182 0 .281.092.281.297v8.336c0 .172-.099.237-.281.237H97.86c-.182 0-.248-.065-.248-.254v-.252c0-.208-.12-.287-.332-.222l-3.182.82c-.182.048-.33.048-.497.048zm14.53-7.621c0 .154-.114.237-.296.237h-3.263c-.218 0-.302.11-.302.316v6.672c0 .188-.132.254-.296.254h-1.676c-.198 0-.264-.066-.264-.24v-8.328c0-.206.066-.3.264-.3h1.676c.164 0 .296.094.296.3v.252c0 .171.084.251.302.251.048 0 .111 0 .177-.031l.961-.603c.35-.169.715-.266 1.143-.266h.982c.182 0 .296.097.296.266m6.265 6.794v-5.013c0-.218-.096-.332-.329-.332H111c-.233 0-.314.114-.314.332v5.014c0 .188.081.268.314.268h3.068c.233 0 .329-.08.329-.268zm-5.932.22v-3.983c0-.854.38-1.5 1.181-1.91l1.752-.983c.365-.222.73-.317 1.159-.317h1.526c.218 0 .314-.077.314-.266V7.346c0-.174.086-.3.249-.3h1.688c.203 0 .284.126.284.3V19.52c0 .174-.081.237-.284.237h-1.688c-.163 0-.249-.063-.249-.254v-.251c0-.206-.096-.286-.314-.22l-3.197.822c-.183.046-.33.046-.5.046-.859.031-1.921-.728-1.921-1.82z"/></svg>