<svg xmlns="http://www.w3.org/2000/svg" width="64" height="54" fill="none" viewBox="0 0 64 54"><g clip-path="url(#clip0_4011_128993)"><path fill="#231F20" d="M3.384 39.094v-1.752h2.59v1.752h3.46v1.656H7.621c.407.489.728 1.071.971 1.746.24.673.368 1.41.38 2.209a7.53 7.53 0 0 1-.334 2.172 5.245 5.245 0 0 1-.888 1.711c-.382.49-.832.873-1.35 1.141a3.644 3.644 0 0 1-1.72.403 3.638 3.638 0 0 1-1.776-.39 4.075 4.075 0 0 1-1.35-1.135 5.31 5.31 0 0 1-.88-1.73 7.415 7.415 0 0 1-.304-2.172c0-.785.121-1.535.36-2.209a5.68 5.68 0 0 1 .971-1.746H0v-1.656h3.384zm1.295 1.692c-.519 0-.955.36-1.303 1.077-.354.717-.52 1.665-.512 2.843-.009 1.14.153 2.052.5 2.742.344.687.776 1.031 1.295 1.031.519 0 .948-.34 1.295-1.023.345-.678.517-1.595.517-2.749 0-1.238-.17-2.2-.51-2.89-.338-.687-.764-1.03-1.283-1.03l.001-.001zm8.917 3.274V54H11.1V37.342h2.496v5.062H16v1.656h-2.405zm6.453 3.5h4.987c.253 0 .502-.017.747-.04a3.701 3.701 0 0 0 1.5-.46v-9.718h2.494v5.062h2.407v1.656h-2.407V54h-2.494v-5.284c-.445.199-.942.33-1.49.399s-1.08.1-1.6.1h-5.53c-.555 0-1.015-.223-1.378-.673-.366-.445-.545-.98-.545-1.608v-8.852h2.497v8.797c0 .221.067.392.203.508.136.116.336.176.609.176v-.003zm17.426-3.5H33.11v-1.656h4.993c.088-.33.156-.66.206-.992.048-.334.074-.66.074-.993v-.497H33.11v-1.656h7.861v1.618c0 1.264-.208 2.457-.62 3.579a10.242 10.242 0 0 1-1.691 2.988 9.05 9.05 0 0 1-2.544 2.148 8.28 8.28 0 0 1-3.19 1.037v-1.66a6.7 6.7 0 0 0 2.71-1.527 8.644 8.644 0 0 0 1.841-2.39zm8.49 0V54h-2.5V37.342h2.5v5.062h2.403v1.656h-2.403zm3.053 5.893H64v1.653H49.018v-1.653zm1.866-11.686H62.17v1.655h-8.786v4.561c0 .223.067.392.2.51.138.115.348.173.632.173h7.953v1.659h-9.34c-.557 0-1.016-.227-1.388-.672-.369-.45-.555-.987-.555-1.612v-6.274z"/><path fill="#009B90" d="M37.09 19.742a6.058 6.058 0 0 0-.428-1.457c-.648-1.388-1.553-2.554-2.898-3.338-2.101-1.22-4.641-1.21-6.717.04a5.871 5.871 0 0 0-2.21 2.358 7.099 7.099 0 0 0-.422 1.031c-.546 1.732-.524 4.06.458 5.64.325.517.788.957 1.36 1.175.568.22 1.243.195 1.757-.134.66-.424.776-1.232.655-1.953-.157-.92-.276-1.825.063-2.728.112-.288.264-.565.486-.777a1.79 1.79 0 0 1 .467-.317 1.952 1.952 0 0 1 1.156-.188c.689.11 1.254.642 1.559 1.266.305.622.39 1.325.424 2.02.142 3.014-.581 6.14-1.355 9.036-.08.3-.163.597-.25.893-.064.23-.183.521-.035.745a.573.573 0 0 0 .27.205c.45.18.816-.093 1.117-.396 1.778-1.779 2.918-4.074 3.699-6.432.291-.882.538-1.779.707-2.691.231-1.25.36-2.677.136-3.996M49.816 5.803c0-.453-.403-.75-.837-.736-.439.015-.847.238-1.248.391-7.82 2.96-16.637 3.521-24.878 2.338-1.41-.203-2.837-.484-4.255-.704-.885-.139-1.763-.339-2.66-.405-.762-.057-1.71-.086-2.325.442-.815.698-.757 2.022-.296 2.897.553 1.05 1.523 1.837 2.533 2.435.98.58 2.148 1.199 3.314 1.127a146.55 146.55 0 0 0 9.423-.907c5.337-.69 10.932-1.34 15.946-3.4 1.639-.673 3.255-1.514 4.662-2.6.253-.19.62-.508.62-.877"/><path fill="#ED1651" d="M27.393 3.137a3.07 3.07 0 0 0 3.077 3.06 3.064 3.064 0 0 0 3.072-3.06c0-.251-.057-.506-.165-.735-.264-.555-.56-.825-.53-1.492.04-.898-1.118-.91-1.743-.91-.681 0-1.402.094-2.016.4a3.1 3.1 0 0 0-1.209 1.08 3.076 3.076 0 0 0-.486 1.586v.07"/></g><defs><clipPath id="clip0_4011_128993"><path fill="#fff" d="M0 0h64v54H0z"/></clipPath></defs></svg>