<svg xmlns="http://www.w3.org/2000/svg" width="80" height="48" fill="none" viewBox="0 0 80 48"><g clip-path="url(#clip0_3038_107063)"><path fill="#652D8D" d="M60.13 12.935c-1.848 0-3.351 1.464-3.351 3.264v7.54c0 3.117-2.07 5.438-4.814 5.438-2.743 0-4.813-2.321-4.813-5.438V16.2a3.228 3.228 0 0 0-3.264-3.264c-1.83 0-3.35 1.464-3.35 3.264v7.683c0 6.69 4.912 11.593 11.424 11.593 3.159 0 6.077-1.208 8.218-3.4 2.126-2.183 3.298-5.142 3.298-8.336V16.2c0-1.8-1.503-3.264-3.351-3.264"/><path fill="#AACE37" d="M77.362 47.265a2.68 2.68 0 0 1-.842-.134l-9.039-2.23A25.082 25.082 0 0 1 55.363 48H24.64C11.054 48 0 37.233 0 24 0 10.77 11.054 0 24.64 0h10.61c1.459 0 2.64 1.15 2.64 2.572 0 1.421-1.181 2.572-2.64 2.572H24.64c-10.674 0-19.359 8.46-19.359 18.857 0 10.397 8.685 18.857 19.36 18.857h30.722c3.693 0 7.287-1.017 10.384-2.942a2.696 2.696 0 0 1 2.26-.268l5.92 1.7-2.501-5.03a2.51 2.51 0 0 1 .275-2.202 18.42 18.42 0 0 0 3.018-10.118c0-10.397-8.685-18.857-19.36-18.857H44.752c-1.46 0-2.641-1.15-2.641-2.572 0-1.421 1.181-2.572 2.64-2.572h10.61C68.946-.003 80 10.764 80 23.998c0 4.16-1.097 8.213-3.182 11.805l3.044 8.07a2.52 2.52 0 0 1-.634 2.637 2.675 2.675 0 0 1-1.866.752"/><path fill="#652D8D" d="M33.802 26.727c-.895 0-1.737.34-2.369.958a5.378 5.378 0 0 1-3.778 1.52 5.376 5.376 0 0 1-3.778-1.523c-1.05-1.02-1.652-2.364-1.652-3.68 0-1.316.602-2.661 1.652-3.684a5.38 5.38 0 0 1 3.778-1.524 5.38 5.38 0 0 1 3.778 1.524 3.365 3.365 0 0 0 2.369.957c.895 0 1.737-.338 2.369-.957a3.209 3.209 0 0 0 0-4.617c-2.276-2.216-5.3-3.438-8.519-3.438-3.22 0-6.243 1.222-8.518 3.438a11.538 11.538 0 0 0 0 16.598c2.272 2.213 5.299 3.43 8.518 3.43 3.22 0 6.246-1.22 8.519-3.433a3.209 3.209 0 0 0 0-4.617 3.38 3.38 0 0 0-2.37-.954"/></g><defs><clipPath id="clip0_3038_107063"><path fill="#fff" d="M0 0h80v48H0z"/></clipPath></defs></svg>