<svg xmlns="http://www.w3.org/2000/svg" width="96" height="26" fill="none" viewBox="0 0 96 26"><g clip-path="url(#a)"><path fill="#00C01E" d="M12.551 26C5.631 26 0 20.169 0 13S5.631 0 12.551 0a12.22 12.22 0 0 1 7.964 2.953c.565.487.945 1.274.945 1.96a2.41 2.41 0 0 1-.69 1.726 2.3 2.3 0 0 1-1.666.716 2.359 2.359 0 0 1-1.513-.572c-1.395-1.172-3.324-1.902-5.038-1.902-4.32 0-7.838 3.642-7.838 8.119s3.515 8.117 7.838 8.117c4.008 0 6.475-2.965 6.475-5.678h-6.337v-4.75h8.814c1.226 0 2.242.953 2.347 2.22.038.449.049.789.049 1.1 0 3.179-.834 6.171-2.995 8.427-2.198 2.297-4.828 3.562-8.352 3.562"/><path fill="#0028AC" d="M14.984 13.066c0 1.313-1.026 2.376-2.292 2.376-1.266 0-2.292-1.063-2.292-2.376 0-1.312 1.026-2.375 2.292-2.375 1.266 0 2.292 1.063 2.292 2.375zm47.765-2.058a4.75 4.75 0 0 0-1.026.544V10.7h-3.104v12.288h3.104v-6.081h.002c0-1.66 1.308-3.006 2.915-3.006h.165V10.7h-.165c-.66 0-1.295.085-1.891.305v.002zm-24.858-.606a5.045 5.045 0 0 0-3.573 1.497 5.045 5.045 0 0 0-3.574-1.497c-2.839 0-5.148 2.382-5.148 5.31v7.27h3.15v-7.27c0-1.135.897-2.06 1.998-2.06 1.102 0 1.996.925 1.996 2.06v7.28h3.15v-7.28c0-1.135.898-2.06 1.997-2.06 1.099 0 1.998.925 1.998 2.06v7.28h3.15v-7.28c0-2.928-2.31-5.31-5.148-5.31h.004zM53.41 11.58a3.375 3.375 0 0 0-.758-.487 5.645 5.645 0 0 0-2.38-.528c-3.358 0-6.088 2.818-6.088 6.281 0 3.463 2.732 6.28 6.087 6.28.861 0 1.633-.187 2.377-.522.249-.113.562-.308.765-.49v.877h2.964V10.703h-2.964v.877h-.002zm-3.139 8.49c-1.724 0-3.126-1.445-3.126-3.224 0-1.778 1.402-3.224 3.126-3.224 1.725 0 3.126 1.446 3.126 3.224 0 1.779-1.401 3.224-3.126 3.224zM96 13.95V10.7h-2.664V8.053h-3.15v2.649h-1.358v3.249h1.357v4.413c0 2.552 2.012 4.626 4.486 4.626h1.173v-3.25H94.67c-.737 0-1.335-.617-1.335-1.376V13.95h2.663zM77.119 10.7H72.86l-3.745 4.246v-8.75H65.95v16.793h3.166v-4.243l3.9 4.243h4.304l-5.734-6.184L77.12 10.7z"/><path fill="#0028AC" d="M88.252 16.871c-.078-3.334-1.962-6.324-5.954-6.324-3.562 0-6.05 2.84-6.05 6.29v.046c0 3.697 2.717 6.244 6.392 6.244 2.214 0 3.859-.856 5-2.254l-2.103-1.845c-.896.822-1.777 1.079-2.852 1.079-1.364 0-2.715-.47-3.17-1.792h8.59s.165-.668.147-1.444zm-5.95-3.277c1.451 0 2.432.774 2.826 1.972h-5.705c.447-1.212 1.446-1.972 2.88-1.972z"/></g><defs><clipPath id="a"><path fill="#fff" d="M0 0h96v26H0z"/></clipPath></defs></svg>