<svg xmlns="http://www.w3.org/2000/svg" width="100" height="18" fill="none" viewBox="0 0 100 18"><path fill="#E60012" d="M27.904 0c-7.086 0-11.33 4.026-11.33 9.003 0 4.97 4.244 8.997 11.33 8.997 7.083 0 11.334-4.027 11.334-8.997C39.238 4.026 34.988 0 27.904 0zm0 16.068c-3.397 0-5.978-3.17-5.978-7.065 0-3.914 2.58-7.078 5.978-7.078 3.399 0 5.979 3.164 5.979 7.078 0 3.896-2.58 7.065-5.979 7.065zM59.67.622H40.203v2.02h7.455v14.63h5.625V2.642h6.387V.622zm21.329 0H61.533v2.02h6.384v14.63h5.613V2.642h7.469V.622zM6.464 15.272c-.593 0-1.074-.444-1.074-.993V.623H0v14.659c0 1.093.957 1.976 2.145 1.976H15.93v-1.986H6.464zM89.62 2.61H100V.622H85.298c-1.185 0-2.15.918-2.15 2.001v12.66c0 1.092.965 1.975 2.15 1.975H100v-1.964H89.62c-.59 0-1.073-.439-1.073-.988V9.403h11.292V7.461H88.547v-3.86c0-.543.483-.99 1.073-.99z"/></svg>