<svg xmlns="http://www.w3.org/2000/svg" width="82" height="24" fill="none" viewBox="0 0 82 24"><g fill="#FFCD00" clip-path="url(#clip0_3038_107015)"><path d="M2.86 23.583H0V.593L2.86 0v23.583zm7.644-16.685l2.234 1.545-5.504 6.605 6.37 7.315L11.395 24l-7.52-8.802 6.62-8.3h.008zm5.641 12.316c0-1.643.572-2.901 1.723-3.762 1.151-.86 2.82-1.297 5.02-1.297h3.297v-1.043c0-2.517-1.158-3.775-3.48-3.775-.743 0-1.527.097-2.344.3-.817.195-1.567.443-2.255.743l-.838-1.93a11.931 11.931 0 0 1 2.752-1.056 11.723 11.723 0 0 1 2.875-.372c4.019 0 6.028 2.054 6.028 6.155v10.412h-2.111l-.34-1.786a10.507 10.507 0 0 1-2.719 1.519c-.96.358-1.88.535-2.752.535-1.512 0-2.697-.411-3.555-1.233-.859-.821-1.295-1.956-1.295-3.403m5.354 2.432a5.38 5.38 0 0 0 1.22-.15c.422-.098.844-.228 1.267-.385a6.642 6.642 0 0 0 1.192-.58c.374-.228.701-.47.994-.73V16h-2.97c-1.505 0-2.602.248-3.297.743-.688.496-1.035 1.278-1.035 2.347 0 1.702.879 2.556 2.63 2.556m15.353 1.937h-2.861V.593L36.859 0v23.583zm7.643-16.685l2.234 1.545-5.497 6.605 6.369 7.315L45.4 24l-7.52-8.802 6.614-8.3h.007zm5.638 12.316c0-1.643.573-2.901 1.724-3.762 1.151-.86 2.82-1.297 5.02-1.297h3.297v-1.043c0-2.517-1.158-3.775-3.48-3.775a9.77 9.77 0 0 0-2.35.3c-.818.195-1.567.443-2.255.743l-.838-1.93a11.931 11.931 0 0 1 2.752-1.056c.98-.248 1.941-.372 2.874-.372 4.02 0 6.029 2.054 6.029 6.155v10.412H60.8l-.34-1.786a10.504 10.504 0 0 1-2.718 1.519c-.96.358-1.88.535-2.752.535-1.513 0-2.698-.411-3.556-1.233-.858-.821-1.288-1.956-1.288-3.403m5.361 2.432c.389 0 .797-.052 1.22-.15.422-.098.844-.228 1.267-.385a6.873 6.873 0 0 0 1.192-.58c.367-.228.701-.47.987-.73V16h-2.97c-1.505 0-2.608.248-3.297.743-.694.496-1.035 1.278-1.035 2.347 0 1.702.879 2.556 2.63 2.556M74.42 7.048c2.363 0 4.216.737 5.558 2.204C81.327 10.719 82 12.825 82 15.557c0 2.731-.668 4.766-2.003 6.213-1.335 1.448-3.195 2.171-5.579 2.171s-4.216-.723-5.558-2.17c-1.349-1.448-2.023-3.522-2.023-6.214 0-2.693.681-4.838 2.037-6.305 1.355-1.467 3.208-2.204 5.544-2.204zm0 2.204c-1.492 0-2.637.534-3.434 1.604-.797 1.069-1.199 2.64-1.199 4.7 0 2.061.402 3.587 1.2 4.623.796 1.044 1.94 1.565 3.432 1.565s2.664-.521 3.468-1.565c.796-1.043 1.198-2.582 1.198-4.622 0-2.041-.401-3.632-1.198-4.701-.797-1.07-1.955-1.604-3.468-1.604z"/></g><defs><clipPath id="clip0_3038_107015"><path fill="#fff" d="M0 0h82v24H0z"/></clipPath></defs></svg>