<svg xmlns="http://www.w3.org/2000/svg" width="40" height="32" fill="none" viewBox="0 0 40 32"><g clip-path="url(#clip0_4011_129054)"><path fill="url(#paint0_linear_4011_129054)" d="M19.1 26.717l-6.331-7.642 9.2-11.107h-5.027c-2.25 0-3.794.672-5.162 2.246l-4.847 5.844V0H2.069C.928 0 0 .913 0 2.035v29.963h4.865c1.141 0 2.07-.913 2.07-2.035v-7.972l3.94 4.742 3.351 4.045c.676.831 1.565 1.217 2.478 1.217h6.786l-4.39-5.278z"/><path fill="url(#paint1_linear_4011_129054)" d="M21.78 30.994c-.396-.424-1.956-2.442-3.915-4.707-2.591-2.997-5.238-6.429-5.894-7.191 1.012-1.222 7.614-9.187 8.4-10.13l.346-.4h-4.034c-1.592 0-3.35.787-4.381 1.963l-5.783 6.977c-.01.01-.037.038-.084.038a.11.11 0 0 1-.11-.11V.598H2.07C1.264.598.61 1.244.61 2.04v29.367h4.255c.805 0 1.461-.646 1.461-1.442V20.47a.11.11 0 0 1 .11-.109.11.11 0 0 1 .081.033l4.878 5.892 3.4 4.089c.575.643 1.335 1.027 2.033 1.027h5.335l-.384-.41.002.002z"/><path fill="url(#paint2_linear_4011_129054)" d="M31.58 31.998c-3.754 0-6.34-2.533-6.34-6.207V2.031C25.24.912 26.172 0 27.316 0h4.868v24.515c0 1.008.833 1.829 1.86 1.829h4.952v3.62c0 1.123-.931 2.036-2.078 2.036H31.58v-.002z"/><path fill="url(#paint3_linear_4011_129054)" d="M31.58 31.406c-3.417 0-5.73-2.268-5.73-5.616V2.032c0-.794.66-1.441 1.47-1.441h4.259v23.924c0 1.338 1.106 2.425 2.467 2.425h4.345v3.025c0 .796-.66 1.443-1.47 1.443h-5.339l-.002-.002z"/><path fill="url(#paint4_radial_4011_129054)" d="M.693 10.387H.61v20.987h.084V10.387z" opacity=".5" style="mix-blend-mode:screen"/><path fill="url(#paint5_radial_4011_129054)" d="M1.13 31.406h3.8c.68 0 1.399-.598 1.399-1.504v-9.346h-.086v9.346c0 .811-.678 1.416-1.31 1.416H1.13v.088z" opacity=".25" style="mix-blend-mode:screen"/><path fill="url(#paint6_radial_4011_129054)" d="M25.937 10.217v-8.28c0-.622.658-1.26 1.291-1.26h4.263l.086-.086-4.349-.002c-.68 0-1.38.678-1.38 1.346v8.28h.087l.002.002z" opacity=".25" style="mix-blend-mode:screen"/><path fill="url(#paint7_radial_4011_129054)" d="M25.937 25.925V10.279h-.087v15.646h.087z" opacity=".25" style="mix-blend-mode:screen"/><path fill="url(#paint8_radial_4011_129054)" d="M31.484 24.235c0 .303.02.596.083.86.125.537.413.975.799 1.305.46.39 1.07.625 1.895.625h4.111v-.085l-4.17.006c-.967 0-1.591-.336-2.035-.848a2.342 2.342 0 0 1-.529-1.022c-.06-.263-.064-.545-.064-.84h-.088l-.002-.001z" opacity=".5" style="mix-blend-mode:screen"/><path fill="url(#paint9_radial_4011_129054)" d="M36.855 31.322h-5.353c-3.281-.002-5.524-2.188-5.524-5.397h-.087c0 3.255 2.283 5.481 5.61 5.481h5.354v-.084z" opacity=".25" style="mix-blend-mode:screen"/><path fill="url(#paint10_linear_4011_129054)" d="M25.85 15.64h5.729v-3.6h-5.73v3.6z" style="mix-blend-mode:multiply"/><path fill="url(#paint11_radial_4011_129054)" d="M11.93 19.097s7.678-9.264 8.531-10.285h-.11L11.85 19.066l.08.031z" opacity=".25" style="mix-blend-mode:screen"/><path fill="url(#paint12_linear_4011_129054)" d="M16.646 8.515c-1.536 0-3.245.761-4.243 1.899l-5.772 6.96 5.35 1.678s7.782-9.39 8.645-10.426c-1.035 0-3.98-.112-3.98-.112v.001z" style="mix-blend-mode:multiply"/><path fill="url(#paint13_radial_4011_129054)" d="M14.885 30.46c.502.56 1.268.944 1.924.944h4.69l-.079-.084h-4.61c-.524 0-1.399-.336-1.924-.86z" opacity=".25" style="mix-blend-mode:screen"/><path fill="url(#paint14_radial_4011_129054)" d="M5.806.598H2.008c-.68 0-1.399.598-1.399 1.504v9.551h.086V2.1c0-.811.68-1.416 1.313-1.416h3.798V.596v.002z" opacity=".25" style="mix-blend-mode:screen"/><path fill="url(#paint15_linear_4011_129054)" d="M34.508 8.763c-3.924 0-18.161.008-18.161.008-2.463 0-4.086.854-5.23 2.223L7.6 15.24s0-.009-.005-.005c1.275-.952 3.029-1.518 4.822-1.518h22.09c2.8 0 5.492-.84 5.492-3.003 0-2.163-.252-3.351-.252-3.351s-1.316 1.399-5.24 1.399z"/><path fill="url(#paint16_linear_4011_129054)" d="M7.648 15.183l4.063-4.908c1.005-1.204 2.317-2.319 5.11-2.319H34.51c3.741 0 5.045-1.302 5.059-1.314l.43-.446v4.517s.055.649-.553 1.305c-.853.916-2.514 1.382-4.936 1.382H12.39c-2.82 0-4.74 1.783-4.74 1.783z"/><path fill="url(#paint17_radial_4011_129054)" d="M39.967 10.945c-.022.434-.61 2.354-5.46 2.354H12.73c-2.012 0-3.577.56-5.063 1.846l-.037.043c1.166-.92 2.609-1.796 5.1-1.796h21.779c5.47 0 5.459-2.442 5.459-2.442v-.005z" opacity=".7" style="mix-blend-mode:screen"/></g><defs><linearGradient id="paint0_linear_4011_129054" x1="11.75" x2="11.75" y1="41.03" y2="-8.12" gradientUnits="userSpaceOnUse"><stop stop-color="#414142"/><stop offset="1" stop-color="#272B2C"/></linearGradient><linearGradient id="paint1_linear_4011_129054" x1="11.39" x2="11.39" y1="-6.31" y2="38.39" gradientUnits="userSpaceOnUse"><stop stop-color="#333"/><stop offset="1"/></linearGradient><linearGradient id="paint2_linear_4011_129054" x1="32.12" x2="32.12" y1="32.55" y2="-.12" gradientUnits="userSpaceOnUse"><stop stop-color="#414142"/><stop offset="1" stop-color="#272B2C"/></linearGradient><linearGradient id="paint3_linear_4011_129054" x1="32.12" x2="32.12" y1=".59" y2="30.84" gradientUnits="userSpaceOnUse"><stop stop-color="#333"/><stop offset="1"/></linearGradient><radialGradient id="paint4_radial_4011_129054" cx="0" cy="0" r="1" gradientTransform="matrix(8.63961 0 0 8.46924 .64 20.202)" gradientUnits="userSpaceOnUse"><stop stop-color="#fff"/><stop offset="1" stop-color="#231F20"/></radialGradient><radialGradient id="paint5_radial_4011_129054" cx="0" cy="0" r="1" gradientTransform="matrix(4.4591 0 0 4.37117 5.785 30.933)" gradientUnits="userSpaceOnUse"><stop stop-color="#fff"/><stop offset="1" stop-color="#231F20"/></radialGradient><radialGradient id="paint6_radial_4011_129054" cx="0" cy="0" r="1" gradientTransform="matrix(6.61475 0 0 6.48431 26.008 .877)" gradientUnits="userSpaceOnUse"><stop stop-color="#fff"/><stop offset="1" stop-color="#231F20"/></radialGradient><radialGradient id="paint7_radial_4011_129054" cx="0" cy="0" r="1" gradientTransform="matrix(6.44156 0 0 6.31446 25.847 17.571)" gradientUnits="userSpaceOnUse"><stop stop-color="#fff"/><stop offset="1" stop-color="#231F20"/></radialGradient><radialGradient id="paint8_radial_4011_129054" cx="0" cy="0" r="1" gradientTransform="matrix(3.24792 0 0 3.18387 33.452 26.76)" gradientUnits="userSpaceOnUse"><stop stop-color="#fff"/><stop offset="1" stop-color="#231F20"/></radialGradient><radialGradient id="paint9_radial_4011_129054" cx="0" cy="0" r="1" gradientTransform="matrix(5.97774 0 0 5.85986 30.596 31.015)" gradientUnits="userSpaceOnUse"><stop stop-color="#fff"/><stop offset="1" stop-color="#231F20"/></radialGradient><linearGradient id="paint10_linear_4011_129054" x1="28.71" x2="28.71" y1="15.63" y2="14.3" gradientUnits="userSpaceOnUse"><stop stop-color="#fff"/><stop offset="1" stop-color="#231F20"/></linearGradient><radialGradient id="paint11_radial_4011_129054" cx="0" cy="0" r="1" gradientTransform="matrix(3.04578 0 0 2.98571 13.857 16.559)" gradientUnits="userSpaceOnUse"><stop stop-color="#fff"/><stop offset="1" stop-color="#231F20"/></radialGradient><linearGradient id="paint12_linear_4011_129054" x1="13.63" x2="13.63" y1="15.8" y2="12.57" gradientUnits="userSpaceOnUse"><stop stop-color="#fff"/><stop offset=".53" stop-color="#231F20"/><stop offset="1" stop-color="#fff"/></linearGradient><radialGradient id="paint13_radial_4011_129054" cx="0" cy="0" r="1" gradientTransform="matrix(4.04801 0 0 3.96819 16.312 31.27)" gradientUnits="userSpaceOnUse"><stop stop-color="#fff"/><stop offset="1" stop-color="#231F20"/></radialGradient><radialGradient id="paint14_radial_4011_129054" cx="0" cy="0" r="1" gradientTransform="matrix(-4.48967 0 0 -4.40114 2.765 2.388)" gradientUnits="userSpaceOnUse"><stop stop-color="#fff"/><stop offset="1" stop-color="#231F20"/></radialGradient><linearGradient id="paint15_linear_4011_129054" x1="39.81" x2="7.63" y1="7.6" y2="16.19" gradientUnits="userSpaceOnUse"><stop stop-color="#CF2128"/><stop offset=".48" stop-color="#A11E21"/><stop offset=".59" stop-color="#A41E21"/><stop offset=".68" stop-color="#AE1E23"/><stop offset=".77" stop-color="#C02025"/><stop offset=".83" stop-color="#CF2128"/><stop offset=".93" stop-color="#9A1C1F"/><stop offset=".95" stop-color="#971B1E"/><stop offset=".96" stop-color="#8D1A1D"/><stop offset=".97" stop-color="#7D191B"/><stop offset=".98" stop-color="#671718"/><stop offset=".99" stop-color="#4B1415"/><stop offset="1" stop-color="#331212"/></linearGradient><linearGradient id="paint16_linear_4011_129054" x1="16.46" x2="33.23" y1="4.63" y2="18.99" gradientUnits="userSpaceOnUse"><stop stop-color="#B92025"/><stop offset=".02" stop-color="#D72027"/><stop offset=".03" stop-color="#DC3130"/><stop offset=".07" stop-color="#E85544"/><stop offset=".09" stop-color="#F06A50"/><stop offset=".11" stop-color="#F37355"/><stop offset=".28" stop-color="#F05041"/><stop offset=".48" stop-color="#ED2227"/><stop offset=".71" stop-color="#ED2227"/><stop offset="1" stop-color="#D72027"/></linearGradient><radialGradient id="paint17_radial_4011_129054" cx="0" cy="0" r="1" gradientTransform="matrix(30.8705 0 0 30.2618 8.705 13.848)" gradientUnits="userSpaceOnUse"><stop stop-color="#010101"/><stop offset=".24" stop-color="#fff"/><stop offset=".76" stop-color="#fff"/><stop offset=".78" stop-color="#FAFAFA"/><stop offset=".81" stop-color="#EBEBEB"/><stop offset=".85" stop-color="#D4D4D4"/><stop offset=".88" stop-color="#B3B3B3"/><stop offset=".91" stop-color="#888"/><stop offset=".95" stop-color="#555"/><stop offset=".99" stop-color="#181818"/><stop offset="1" stop-color="#010101"/></radialGradient><clipPath id="clip0_4011_129054"><path fill="#fff" d="M0 0h40v32H0z"/></clipPath></defs></svg>