<svg xmlns="http://www.w3.org/2000/svg" width="126" height="20" fill="none" viewBox="0 0 126 20"><g clip-path="url(#a)"><path fill="#1428A0" d="M4.788 5.407a2.39 2.39 0 0 1-.019-.98c.123-.594.514-1.258 1.65-1.258 1.054 0 1.674.678 1.674 1.694V6.02h4.494V4.708C12.585.648 9.053 0 6.507 0 3.304 0 .691 1.1.212 4.15.08 4.985.06 5.72.25 6.665c.78 3.816 7.181 4.92 8.114 7.335.173.448.122 1.025.034 1.378-.148.628-.555 1.26-1.76 1.26-1.126 0-1.8-.678-1.8-1.699l-.006-1.795H0v1.426C0 18.744 3.162 20 6.548 20s5.928-1.15 6.363-4.274c.217-1.61.053-2.658-.019-3.056-.76-3.916-7.59-5.079-8.104-7.263zm58.58.046a2.574 2.574 0 0 1-.016-.966c.13-.597.515-1.249 1.633-1.249 1.04 0 1.649.671 1.649 1.68V6.06h4.44V4.758c0-4.022-3.478-4.655-6-4.655-3.173 0-5.763 1.083-6.237 4.11-.125.825-.158 1.556.044 2.489.772 3.773 7.11 4.868 8.03 7.255.162.453.116 1.029.033 1.369-.14.62-.542 1.246-1.737 1.246-1.122 0-1.795-.668-1.795-1.675v-1.79H58.63v1.423c0 4.125 3.118 5.372 6.478 5.372 3.361 0 5.875-1.139 6.3-4.229.204-1.596.052-2.634-.032-3.027-.744-3.87-7.5-5.033-8.012-7.195l.003.002zm40.902 10.17L100.028.594h-6.684v18.474h4.422l-.257-15.511 4.557 15.51h6.411V.595h-4.45l.245 15.03h-.002zM19.285.594l-3.337 18.668h4.866l2.514-17.28 2.454 17.28h4.832L27.29.594h-8.007.002zm27.207 0L44.22 15.187 41.948.594h-7.349l-.388 18.668h4.5l.123-17.28 3.097 17.28H46.5l3.1-17.28.122 17.28h4.513L53.83.594h-7.339zm41.858 0h-4.557v13.81c.007.239 0 .51-.039.709-.095.462-.474 1.356-1.73 1.356s-1.63-.891-1.719-1.356c-.046-.2-.05-.47-.046-.71V.594h-4.554v13.38c-.005.345.02 1.05.04 1.235.314 3.487 2.965 4.618 6.277 4.618 3.312 0 5.967-1.13 6.289-4.619.025-.184.057-.889.039-1.234V.594zm31.278 8.19v2.724h1.846v2.701c.004.242-.007.501-.047.71-.074.503-.534 1.361-1.845 1.361-1.312 0-1.756-.858-1.835-1.362a4.965 4.965 0 0 1-.046-.709V5.676c0-.302.021-.633.081-.882.09-.456.479-1.352 1.79-1.352 1.379 0 1.721.944 1.8 1.352.051.268.055.719.055.719v1.035h4.536v-.61s.021-.64-.035-1.235c-.34-3.502-3.124-4.61-6.316-4.61-3.192 0-5.926 1.117-6.324 4.61-.037.319-.09.894-.09 1.234v7.848c0 .342.011.606.072 1.232.296 3.406 3.143 4.611 6.328 4.611 3.185 0 6.032-1.208 6.335-4.611.053-.626.06-.89.067-1.232V8.782h-6.372v.003z"/></g><defs><clipPath id="a"><path fill="#fff" d="M0 0h126v20H0z"/></clipPath></defs></svg>