<svg xmlns="http://www.w3.org/2000/svg" width="80" height="32" fill="none" viewBox="0 0 80 32"><g fill="#231F20" clip-path="url(#clip0_3038_107024)"><path d="M46.416 16.485c0 .144.046.229.134.229.06 0 .122-.028.195-.076L71.675.626c.439-.283.84-.43 1.437-.43h5.479c.843 0 1.406.557 1.406 1.39v10.347c0 1.252-.28 1.972-1.406 2.64l-6.648 3.95a.449.449 0 0 1-.222.081c-.082 0-.155-.06-.155-.286V6.24c0-.132-.043-.231-.134-.231a.393.393 0 0 0-.192.069l-18.228 11.71c-.512.328-.932.428-1.397.428H39.53c-.843 0-1.406-.557-1.406-1.391V1.912c0-.109-.049-.211-.134-.211-.06 0-.118.027-.195.072L25.774 8.917c-.122.072-.152.13-.152.186 0 .051.021.1.106.184l8.586 8.492c.113.114.192.199.192.29 0 .102-.125.147-.27.147h-7.771c-.609 0-1.078-.094-1.406-.416l-5.208-5.148c-.052-.05-.095-.08-.15-.08a.342.342 0 0 0-.16.053l-8.712 5.178c-.526.313-.891.416-1.406.416H1.406C.563 18.219 0 17.662 0 16.828V6.668c0-1.25.283-1.969 1.406-2.637L8.093.057A.338.338 0 0 1 8.276 0c.1 0 .158.105.158.334v13.58c0 .141.04.21.134.21.06 0 .122-.036.198-.08L31.359.61c.539-.322.87-.415 1.491-.415h12.16c.843 0 1.406.557 1.406 1.39v14.899zM.383 24.57h.636l2.085 4.793 2.085-4.793h.63v5.762h-.545v-4.738L3.21 30.332h-.219L.928 25.594v4.738H.383V24.57zm8.204 5.452c.827 0 1.357-.629 1.357-1.689v-.13c0-1.053-.53-1.697-1.357-1.697-.828 0-1.358.644-1.358 1.698v.13c0 1.059.53 1.688 1.358 1.688zm-1.894-1.821c0-1.298.773-2.122 1.894-2.122 1.12 0 1.893.824 1.893 2.122v.13c0 1.294-.773 2.113-1.893 2.113s-1.894-.82-1.894-2.114v-.13zm4.547-2.008l1.354 3.585 1.373-3.585h.53l-1.601 4.14h-.615l-1.601-4.14h.56zm6.513 1.818c-.021-1.068-.55-1.508-1.227-1.508-.675 0-1.247.584-1.293 1.508h2.52zm-3.056.145c0-1.213.743-2.077 1.833-2.077 1.09 0 1.747.68 1.747 2.122v.22h-3.05c.03.894.53 1.598 1.357 1.598.728 0 1.203-.364 1.48-.629v.56c-.314.28-.843.494-1.48.494-1.18 0-1.884-.864-1.884-2.114v-.174h-.003zm4.369-1.963h.46l.055.849c.268-.509.752-.963 1.433-.963.643 0 1.056.34 1.181.993.283-.524.773-.993 1.464-.993.783 0 1.227.5 1.227 1.448v2.805h-.52v-2.727c0-.72-.207-1.099-.783-1.099-.52 0-1.172.59-1.348 1.25v2.576h-.52v-2.727c0-.72-.201-1.099-.774-1.099-.52 0-1.171.59-1.348 1.25v2.576h-.52v-4.139h-.007zm9.631 1.818c-.025-1.068-.551-1.508-1.227-1.508s-1.248.584-1.297 1.508h2.524zm-3.056.145c0-1.213.742-2.077 1.832-2.077s1.747.68 1.747 2.122v.22h-3.05c.03.894.53 1.598 1.355 1.598.727 0 1.202-.364 1.479-.629v.56c-.314.28-.843.494-1.48.494-1.18 0-1.883-.864-1.883-2.114v-.174zm4.367-1.963h.46l.054.954c.268-.523.819-1.068 1.57-1.068.865 0 1.319.538 1.319 1.523v2.727h-.52v-2.652c0-.758-.223-1.174-.874-1.174-.652 0-1.318.698-1.486 1.424v2.402h-.52V26.19l-.003.003zm3.877 0h.928v-1.258h.52v1.258h.929v.433h-.928v3.706h-.52v-3.706h-.93v-.433zm4.742 0h.928v-1.258h.52v1.258h.93v.433h-.93v3.706h-.52v-3.706h-.928v-.433zm2.975-1.668h.52v2.601c.268-.515.819-1.044 1.555-1.044.868 0 1.318.538 1.318 1.523v2.727h-.52V27.68c0-.758-.222-1.174-.874-1.174-.651 0-1.293.674-1.479 1.394v2.432h-.52v-5.807zm5.447 5.497c.499 0 1.156-.334 1.515-.978v-.91l-.797.151c-.575.106-1.157.184-1.403.5-.107.135-.137.289-.137.47 0 .523.338.764.822.764M45.9 28.59c.228-.34.691-.5 1.54-.659l1.127-.21c0-.804-.354-1.214-1.136-1.214-.615 0-1.09.28-1.418.614v-.524c.298-.273.797-.514 1.418-.514.995 0 1.647.493 1.647 1.517v2.736h-.384l-.13-.713a2.04 2.04 0 0 1-1.626.825c-.727 0-1.242-.404-1.242-1.174 0-.25.055-.47.201-.684m3.648-2.397h.928v-1.258h.52v1.258h.929v.433h-.928v3.706h-.52v-3.706h-.93v-.433zm5.281 4.139h.52v-4.139h-.52v4.14zm0-4.919h.52v-.734h-.52v.734zm1.539.78h.46l.055.954c.267-.523.818-1.068 1.57-1.068.865 0 1.318.538 1.318 1.523v2.727h-.52v-2.652c0-.758-.223-1.174-.874-1.174s-1.318.698-1.485 1.424v2.402h-.52V26.19l-.004.003zm4.192 3.191c.383.433.767.638 1.302.638.606 0 1.02-.274 1.02-.72 0-.303-.1-.53-.645-.758l-.636-.265c-.667-.28-.99-.62-.99-1.129 0-.554.49-1.068 1.373-1.068.53 0 .99.229 1.282.47v.59c-.408-.425-.874-.636-1.282-.636-.59 0-.834.31-.834.644 0 .295.228.464.706.66l.615.259c.682.289.95.659.95 1.213 0 .704-.636 1.168-1.556 1.168-.66 0-1.035-.22-1.302-.47v-.59l-.003-.006zm5.497.638c.789 0 1.327-.704 1.327-1.767s-.535-1.752-1.327-1.752c-.59 0-1.147.524-1.348 1.16v1.197c.2.638.758 1.16 1.348 1.16m-1.868-3.827h.46l.045.744c.298-.494.819-.858 1.409-.858 1.065 0 1.817.864 1.817 2.176 0 1.313-.752 2.192-1.817 2.192-.581 0-1.087-.356-1.394-.825v2.381h-.52v-5.81zm4.529 4.139h.52v-4.139h-.52v4.14zm0-4.919h.52v-.734h-.52v.734zm1.54.78h.46l.045.734c.253-.508.652-.848 1.248-.848.168 0 .353.03.42.06v.454a1.36 1.36 0 0 0-.46-.069c-.514 0-.989.395-1.196 1.024v2.781h-.52V26.19l.003.003zm5.439 1.818c-.025-1.068-.551-1.508-1.227-1.508s-1.248.584-1.296 1.508h2.523zm-3.06.145c0-1.213.743-2.077 1.833-2.077 1.09 0 1.747.68 1.747 2.122v.22h-3.05c.03.894.53 1.598 1.358 1.598.727 0 1.202-.364 1.48-.629v.56c-.314.28-.844.494-1.48.494-1.181 0-1.884-.864-1.884-2.114v-.174h-.003zm4.138 1.228c.383.433.766.638 1.302.638.606 0 1.02-.274 1.02-.72 0-.303-.1-.53-.645-.758l-.637-.265c-.666-.28-.989-.62-.989-1.129 0-.554.49-1.068 1.373-1.068.53 0 .99.229 1.278.47v.59c-.404-.425-.873-.636-1.278-.636-.59 0-.834.31-.834.644 0 .295.231.464.706.66l.615.259c.682.289.95.659.95 1.213 0 .704-.637 1.168-1.556 1.168-.66 0-1.035-.22-1.302-.47v-.59l-.004-.006z"/></g><defs><clipPath id="clip0_3038_107024"><path fill="#fff" d="M0 0h80v32H0z"/></clipPath></defs></svg>