<svg xmlns="http://www.w3.org/2000/svg" width="152" height="22" fill="none" viewBox="0 0 152 22"><g clip-path="url(#clip0_4011_128952)"><path fill="#FABE00" d="M13.823 0L9.478 2.177 5.141 0l4.337 8.245L13.823 0z"/><path fill="#FABE00" d="M15.339 6.378l-.064-.036 3.097-1.296V.663l-5.382 2.29-2.983 5.637a4.525 4.525 0 0 1-.529 9.017 4.525 4.525 0 0 1-.529-9.017L5.973 2.953.57.663v4.355l3.125 1.324-.07.064a8.902 8.902 0 0 0-2.492 9.84 8.915 8.915 0 0 0 8.349 5.782 8.915 8.915 0 0 0 8.348-5.783 8.902 8.902 0 0 0-2.491-9.84v-.027z"/><path fill="#005BAC" d="M130.13 13.241h-18.831l-.797-1.261h19.628c.204 0 .247.253.247.634 0 .38-.036.627-.247.627zm-9.465-2.939c-4.88 0-8.583-1.24-8.583-3.833s3.703-3.834 8.583-3.834c4.881 0 8.583 1.24 8.583 3.834 0 2.593-3.702 3.833-8.583 3.833zm8.788 9.478h-16.038a1.353 1.353 0 0 1-1.354-1.353v-4.059h2.257c.389 0 .705.316.705.705v2.819a.704.704 0 0 0 .67.704h13.76c.197 0 .247.247.247.635 0 .387-.064.55-.247.55zm-8.788-15.883c-3.209 0-5.557.79-5.557 2.572 0 1.783 2.348 2.572 5.557 2.572 3.209 0 5.558-.79 5.558-2.572 0-1.783-2.349-2.572-5.558-2.572zm29.812 10.796h-3.456a2.165 2.165 0 0 1 1.249 1.952c0 1.91-2.272 2.734-5.36 2.734-3.09 0-5.361-.825-5.361-2.735s2.271-2.762 5.361-2.762h8.35V3.312a.705.705 0 0 0-.705-.705h-2.116v3.636h-1.58V3.312a.705.705 0 0 0-.705-.705h-2.116v9.28h2.821v-4.29h1.58v5.15h-5.529c-4.867 0-8.52 1.333-8.52 3.933 0 2.6 3.653 3.932 8.52 3.932 4.866 0 8.519-1.332 8.519-3.932a2.585 2.585 0 0 0-.952-1.987z"/><path fill="#005BAC" d="M142.924 7.9a3.48 3.48 0 0 0-.706-2.066h-2.821c.489.566.742 1.298.705 2.044 0 1.346-.592 2.776-2.256 2.776-1.411 0-2.293-1.338-2.293-2.776 0-1.438.833-2.86 2.271-2.86h5.466c.17 0 .205-.325.205-.663 0-.339 0-.592-.205-.592h-4.02V2.692a.584.584 0 0 0-.557-.6h-2.454v1.67h-4.394l.663 1.255h1.664a3.522 3.522 0 0 0-1.41 2.882c0 2.227 1.996 4.01 5.042 4.01 3.047 0 5.1-1.783 5.1-4.01zm-60.802 5.566a2.707 2.707 0 0 1 1.36 2.375c0 2.29-2.468 3.34-5.522 3.34-3.053 0-5.522-1.05-5.522-3.34s2.433-3.333 5.522-3.333h9.17a.254.254 0 0 0 .24-.254 2.7 2.7 0 0 0 0-.775.247.247 0 0 0-.24-.218h-7.738V8.87h7.335a.247.247 0 0 0 .24-.246c.037-.26.037-.523 0-.782a.247.247 0 0 0-.247-.212H72.812a.705.705 0 0 1-.705-.704V3.558a.705.705 0 0 0-.706-.704h-2.186v4.714c.02.725.621 1.298 1.347 1.282h5.939v2.425h-8.52l.825 1.247h2.532a3.752 3.752 0 0 0-1.777 3.192c0 3.263 3.759 4.75 8.4 4.75 4.64 0 8.4-1.487 8.4-4.75a3.522 3.522 0 0 0-.706-2.227l-3.533-.02zm15.94-7.624c.15.173.283.362.394.563a3.01 3.01 0 0 1-2.61 4.51 3.01 3.01 0 0 1-3.011-3.009 3.01 3.01 0 0 1 2.948-3.051h6.481a.246.246 0 0 0 .24-.247 2.638 2.638 0 0 0 0-.803.249.249 0 0 0-.081-.156.25.25 0 0 0-.166-.062H97.32v-.705a.705.705 0 0 0-.705-.705h-2.243v1.41H88.73c.113.169.804 1.226.84 1.268h2.115a3.83 3.83 0 0 0-1.763 3.051c0 2.368 2.391 4.285 5.924 4.285 2.377 0 4.12-.867 5.135-2.164h4.104v4.651h-10.89v-1.29a.705.705 0 0 0-.704-.704h-2.236v5.785a1.351 1.351 0 0 0 1.41 1.311h15.46V3.255a.704.704 0 0 0-.705-.704h-2.25v3.29h-7.109zm7.052 12.684H94.598a.388.388 0 0 1-.402-.388v-2.191h10.889l.029 2.579zm0-9.753h-3.477a3.151 3.151 0 0 0 .021-1.642h3.427l.029 1.642zM63.912 2.988h-2.603v6.708H50.645V2.988h-2.574a1.233 1.233 0 0 0-1.114 1.324v14.186a1.24 1.24 0 0 0 1.114 1.324h2.574v-7.209H61.31v7.21h2.603a1.24 1.24 0 0 0 1.12-1.325V4.312a1.226 1.226 0 0 0-1.12-1.324zm-21.293 0h-2.602v12.895L32.195 5.581c-1.297-1.501-2.193-2.593-4.274-2.593h-2.666V18.49a1.24 1.24 0 0 0 1.122 1.324h2.616V6.87l7.871 10.232c1.326 1.537 2.511 2.72 4.436 2.72h2.434V4.32a1.233 1.233 0 0 0-1.115-1.331z"/></g><defs><clipPath id="clip0_4011_128952"><path fill="#fff" d="M0 0h152v22H0z"/></clipPath></defs></svg>