<svg xmlns="http://www.w3.org/2000/svg" width="96" height="18" fill="none" viewBox="0 0 96 18"><g fill="#03CF5D" clip-path="url(#clip0_3038_106945)"><path d="M27.635 0L20.41 18h6.141l.873-2.382h6.924L35.221 18h6.141L34.137 0h-6.503.001zm1.192 11.294l2.06-5.623 2.06 5.623h-4.12zm38.093-.132h8.4V6.838h-8.4V4.412h8.49V0H61.05v18h14.54v-4.412h-8.67v-2.426zm-18.244.673L44.343 0h-6.14l7.224 18h6.502l7.225-18h-6.14l-4.337 11.835zM12.553 9.634L5.69 0H0v18h5.961V8.366L12.824 18h5.69V0h-5.961v9.634zm78.789 2.191l.559-.23c2.141-.875 3.23-2.769 3.23-5.174 0-2.273-.849-3.955-2.523-4.998C91.052.453 89.033 0 86.258 0H78.48v18h5.78v-5.03h2.077L89.86 18h6.141l-4.657-6.175h-.002zm-4.011-3.443h-3.162V4.588h3.162c1.072 0 1.94.849 1.94 1.896s-.868 1.896-1.94 1.896v.002z"/></g><defs><clipPath id="clip0_3038_106945"><path fill="#fff" d="M0 0h96v18H0z"/></clipPath></defs></svg>