<svg xmlns="http://www.w3.org/2000/svg" width="112" height="36" fill="none" viewBox="0 0 112 36"><g fill="#1D1D1B" clip-path="url(#clip0_3038_106952)"><path d="M112.001 35.655V18.233h-3.759l.728 1.307v16.115h3.031zm-43.837 0V18.233h-3.116c.125.208.705 1.283.705 1.476V30.48l-8.45-12.256h-3.727l1.018 1.54v15.89h2.404v-12.28l8.465 12.28h2.701zm-19.106-2.711v-14.72h-3.775l.744 1.308v13.22c-.908.529-1.59.817-2.639.817-2.13 0-3.805-1.9-3.805-4.13V18.233h-3.759l.713 1.307v10.821c0 3.257 2.49 5.647 5.497 5.647 2.247 0 3.578-.778 5.45-1.95.532-.336 1.065-.681 1.558-1.106M32.466 18.233h-3.954l.446 1.307-3.547 6.313-4.245-7.62H17.55l5.974 10.476v6.946h3.039v-7.043l5.904-10.38zM13.61 35.655V18.233H9.866l.713 1.307v5.864H3.751v-7.171H0l.713 1.307v16.115H3.75v-7.82h6.828v7.82h3.03zm66.082-17.43h-6.985l.713 1.307v16.115h4.91a7.643 7.643 0 0 0 4.063-1.139c.447-.249.893-.537 1.347-.818 2.404-1.54 3.884-4.171 3.884-7.187 0-4.669-3.594-8.286-7.932-8.286m2.318 14.518c-.768.498-1.621.554-2.498.554h-3.054V20.607h1.707c3.555 0 6.366 2.984 6.366 6.778 0 2.03-.83 4.243-2.521 5.358m16.342-14.51h-3.289l.54 1.307L88.9 35.655h3.579l-.47-1.315 1.44-3.482h6.829l1.997 4.797h3.304l-7.227-17.43v.008zm-3.915 10.291l2.45-5.88 2.451 5.88h-4.901zM44.4 0l-.416 1.107h2.13v7.067h1.441V1.107h1.715L49.677 0H44.4zm11.761 0l.337.602V3.36h-3.203V0h-1.754l.321.602v7.572h1.433V4.5h3.203v3.674h1.425V0H56.16zm3.845 0l.337.602v7.572h4.392l.4-1.115h-3.36V4.5h2.96l.4-1.115h-3.36V1.107h2.96l.4-1.107h-5.13z"/></g><defs><clipPath id="clip0_3038_106952"><path fill="#fff" d="M0 0h112v36H0z"/></clipPath></defs></svg>