<svg xmlns="http://www.w3.org/2000/svg" width="104" height="40" fill="none" viewBox="0 0 104 40"><path fill="#F57F26" fill-rule="evenodd" d="M100.886 30.198c-2.036 0-3.075 1.342-3.238 1.546-.53-.976-1.466-1.546-2.708-1.546-1.79 0-2.81 1.037-2.974 1.22-.08-.284-.447-1.037-1.608-1.037-.325 0-.814.102-.855.102.041.223.265 1.28.265 2.745v6.426h2.362v-6.548c.04-.04.918-.936 1.975-.936 1.08 0 1.59.794 1.59 1.871v5.613h2.36v-6.548c.062-.06.916-.936 1.995-.936 1.079 0 1.568.793 1.568 1.87v5.614H104v-5.979c.001-2.114-1.2-3.477-3.114-3.477zm-25.838 7.748c-1.608 0-2.748-1.26-2.748-2.908 0-1.83 1.302-2.928 2.748-2.928.774 0 1.1.224 1.61.224.548 0 .854-.266 1.119-.794.162-.283.245-.468.245-.468-.123-.061-1.303-.874-3.34-.874-2.973 0-4.744 2.136-4.744 4.84 0 2.97 2.037 4.819 4.744 4.819 1.976 0 3.156-.792 3.38-.955l-.815-1.606a4.155 4.155 0 0 1-2.199.65zm-25.857-7.748c-2.26 0-4.154 1.83-4.154 4.84 0 3.072 1.854 4.819 4.602 4.819 2.199 0 3.338-.955 3.481-1.037 0 0-.223-.345-.284-.447-.306-.509-.652-.67-1.04-.67-.773 0-.874.324-1.933.324-1.812 0-2.443-1.403-2.484-2.337h6.046v-.713c0-2.867-1.648-4.78-4.234-4.78zM47.38 34c0-1.056.733-2.033 1.791-2.033 1.16 0 1.792 1.017 1.812 2.033H47.38zm10.078 3.052v-9.64c0-1.077-.713-1.912-1.853-1.912h-.488v12.487c0 1.16.712 1.87 1.955 1.87 1.527 0 1.975-1.077 1.975-2.114-.062.04-.388.163-.714.163-.549 0-.875-.305-.875-.854zm-15.76-.326V32.15h1.976l.692-1.77h-2.667v-2.765s-.203-.021-.224 0c-1.039 0-2.138.426-2.138 2.745v.02h-1.73v1.77h1.73v5.389c0 1.525.916 2.317 2.2 2.317 1.038 0 2.38-.304 2.38-2.357-.08.04-.59.364-1.139.364-.774 0-1.08-.467-1.08-1.138zm22.295-6.528c-2.26 0-4.174 1.83-4.174 4.84 0 3.072 1.853 4.819 4.624 4.819 2.177 0 3.317-.955 3.46-1.037l-.265-.447c-.325-.509-.671-.67-1.058-.67-.774 0-.876.324-1.934.324-1.793 0-2.424-1.403-2.464-2.337h6.047v-.713c0-2.867-1.67-4.78-4.236-4.78zM62.16 34c0-1.056.754-2.033 1.792-2.033 1.16 0 1.812 1.017 1.831 2.033H62.16zm21.297 5.857c-2.891 0-4.622-1.891-4.622-4.819 0-2.908 1.71-4.84 4.622-4.84 2.91 0 4.623 1.932 4.623 4.84 0 2.745-1.569 4.819-4.623 4.819zm0-1.809c1.445 0 2.281-1.24 2.281-3.01 0-1.769-.816-3.03-2.281-3.03-1.425 0-2.281 1.24-2.281 3.03 0 1.728.815 3.01 2.28 3.01z" clip-rule="evenodd"/><path fill="#E71836" fill-rule="evenodd" d="M7.534 29.363c-1.426-.67-2.607-1.198-2.607-2.296 0-.835.672-1.424 1.995-1.424.468 0 .876.04 1.283.12.204.042.426.083.631.083 1.14 0 1.791-.692 2.219-1.993l.183-.529c-.183-.081-2.056-.894-4.5-.894-3.888 0-5.944 2.48-5.944 5.084 0 1.301.407 2.237 1.038 2.989.835.955 1.996 1.586 3.095 2.114 1.608.794 3.053 1.363 3.053 2.522 0 1.037-1.058 1.627-2.483 1.627-1.975 0-3.685-1.118-3.889-1.24L0 38.536C.285 38.698 2.341 40 5.761 40c3.625 0 6.373-2.075 6.373-5.288 0-3.172-2.544-4.351-4.6-5.349zm14.19 1.486l6.596-8.073h-4.702l-5.253 6.954h-.082v-6.954h-3.868v17.08h.244c1.67 0 3.664-.772 3.664-3.558v-3.925h.062l5.354 7.281h4.928l-6.942-8.805zm6.8-26.376c-1.364.265-3.38 1.504-3.358 3.68 0 1.973 1.629 3.193 1.629 5.776 0 1.952-1.08 3.274-2.24 4.007a17.9 17.9 0 0 1 1.547-.061c1.202-.02 1.913.1 1.954.1l6.108-7.483a25.257 25.257 0 0 0-5.64-6.02z" clip-rule="evenodd"/><path fill="#E71836" fill-rule="evenodd" d="M33.655 24.707c.773-1.2.875-3.11.937-5.043.081-1.81.447-3.172 2.87-3.192.55 0 1.058.08 1.975.08 3.564-.018 5.885-1.24 7.33-2.053-2.952-1.87-7.248-3.782-12.604-4.007-.345.978-3.054 8.502-3.257 9.112.04.018.51.548 1.1 1.585a16.94 16.94 0 0 1 1.649 3.518z" clip-rule="evenodd"/><path fill="#F57F26" fill-rule="evenodd" d="M20.766 18.566c-.324 0-.468-.203-.509-.57a15135.1 15135.1 0 0 1-1.792-16.41c-.04-.326-.121-.875-.121-1.08 0-.323.224-.506.468-.506.713 0 4.662.914 8.857 3.863-1.201.325-3.4 1.586-3.38 4.19 0 2.278 1.65 3.558 1.67 5.857 0 3.74-4.316 4.656-5.193 4.656zm13.256 7.138c.062.162.122.305.184.407.101.162.223.243.367.243.101 0 .223-.04.366-.1.305-.143 13.07-6.082 14.984-6.955.286-.143.815-.367 1-.47a.476.476 0 0 0 .263-.405.576.576 0 0 0-.081-.265c-.244-.387-1.486-1.687-3.543-3.112-1.629.895-4.195 2.279-8 2.298-.938 0-1.142-.06-1.773-.06-1.872.02-2.32.813-2.403 2.44 0 .305-.02.711-.02 1.16-.06 1.462-.244 3.476-1.344 4.82z" clip-rule="evenodd"/></svg>