<svg width="114" height="20" viewBox="0 0 114 20" fill="none" xmlns="http://www.w3.org/2000/svg">
<path d="M9.38218 11.6166V14.6615H14.9324V18.6199H4.69873V0.685547H14.9324V4.64384H9.38218V7.68871" fill="#2A2B2E"/>
<path d="M22.6573 0.685547V14.7225H28.2531V18.6807H17.9434V0.685547H22.6573Z" fill="#2A2B2E"/>
<path d="M40.9043 15.5597H34.2288L33.1492 18.6046H28.1616L35.0044 0.609375H40.1136L46.9564 18.6046H41.9688L40.9043 15.5597ZM39.6574 11.9972L37.559 6.014L35.4606 11.9972H39.6574Z" fill="#2A2B2E"/>
<path d="M48.6748 18.6807V0.685547H53.3431L61.9801 11.6927V0.685547H66.6332V18.6807H61.9801L53.3431 7.68871V18.6807H48.6748Z" fill="#2A2B2E"/>
<path d="M82.8582 6.68353C82.3891 6.06722 81.7841 5.5679 81.0903 5.22456C80.3965 4.88122 79.6329 4.70318 78.859 4.70438C78.1916 4.70276 77.5303 4.83207 76.9126 5.08499C76.3457 5.33211 75.8299 5.68322 75.392 6.12024C74.9581 6.55767 74.6122 7.07453 74.3732 7.64267C73.8861 8.9118 73.8861 10.3166 74.3732 11.5857C74.6122 12.1539 74.9581 12.6707 75.392 13.1082C75.822 13.5585 76.3395 13.916 76.9126 14.1586C77.5116 14.4204 78.1598 14.5502 78.8133 14.5393C79.5818 14.5284 80.339 14.353 81.034 14.0247C81.7291 13.6965 82.3459 13.223 82.8429 12.6362V18.1779L82.3716 18.3453C81.7157 18.5776 81.0452 18.7658 80.3644 18.9087C79.7569 19.0166 79.1414 19.0727 78.5244 19.0762C77.3037 19.081 76.0942 18.8429 74.9662 18.3758C73.8328 17.9218 72.7995 17.2494 71.925 16.3967C71.0468 15.5208 70.3403 14.4881 69.8418 13.3518C69.3118 12.1428 69.0424 10.8355 69.0511 9.51524C69.034 8.20555 69.2985 6.90751 69.8265 5.70915C70.3151 4.56741 71.023 3.53287 71.9098 2.66428C72.7858 1.8209 73.8192 1.15875 74.951 0.715611C76.0932 0.240861 77.3181 -0.00239531 78.5549 1.77786e-05C79.2656 -0.000163361 79.9742 0.0764384 80.6685 0.22842C81.4108 0.403534 82.1379 0.637659 82.8429 0.928681L82.8582 6.68353Z" fill="#2A2B2E"/>
<path d="M91.0843 4.64384V14.7225H96.6346V18.6807H86.4009V0.685547H96.6346V4.64384H91.0843Z" fill="#2A2B2E"/>
<path d="M114 18.6805H108.176L103.721 11.7687V18.6805H99.0522V0.685303H106.29C107.182 0.668865 108.069 0.818546 108.906 1.12678C109.601 1.3945 110.233 1.80415 110.761 2.32956C111.244 2.83621 111.617 3.43748 111.856 4.09554C112.104 4.78904 112.227 5.52087 112.221 6.25738C112.278 7.44404 111.929 8.61485 111.232 9.57637C110.494 10.481 109.46 11.0955 108.313 11.3119L114 18.6805ZM103.721 8.73895H104.603C105.356 8.78557 106.104 8.58224 106.731 8.16042C106.962 7.95337 107.147 7.69999 107.273 7.41667C107.4 7.13336 107.465 6.82656 107.465 6.51626C107.465 6.20596 107.4 5.89915 107.273 5.61584C107.147 5.33253 106.962 5.07905 106.731 4.872C106.107 4.44373 105.357 4.23979 104.603 4.29347H103.721V8.73895Z" fill="#2A2B2E"/>
<path d="M13.8679 11.0074H0L1.2469 7.00342H15.1148L13.8679 11.0074Z" fill="#FF824D"/>
<path d="M95.4939 11.0074H81.6411L82.888 7.00342H96.756L95.4939 11.0074Z" fill="#FF824D"/>
</svg>
