<svg width="116" height="22" viewBox="0 0 116 22" fill="none" xmlns="http://www.w3.org/2000/svg">
<path d="M10.3822 12.6166V15.6615H15.9324V19.6199H5.69873V1.68555H15.9324V5.64384H10.3822V8.68871" fill="#2A2B2E"/>
<path d="M23.6573 1.68555V15.7225H29.2531V19.6807H18.9434V1.68555H23.6573Z" fill="#2A2B2E"/>
<path d="M41.9043 16.5597H35.2288L34.1492 19.6046H29.1616L36.0044 1.60938H41.1136L47.9564 19.6046H42.9688L41.9043 16.5597ZM40.6574 12.9972L38.559 7.014L36.4606 12.9972H40.6574Z" fill="#2A2B2E"/>
<path d="M49.6748 19.6807V1.68555H54.3431L62.9801 12.6927V1.68555H67.6332V19.6807H62.9801L54.3431 8.68871V19.6807H49.6748Z" fill="#2A2B2E"/>
<path d="M83.8582 7.68353C83.3891 7.06722 82.7841 6.5679 82.0903 6.22456C81.3965 5.88122 80.6329 5.70318 79.859 5.70438C79.1916 5.70276 78.5303 5.83207 77.9126 6.08499C77.3457 6.33211 76.8299 6.68322 76.392 7.12024C75.9581 7.55767 75.6122 8.07453 75.3732 8.64267C74.8861 9.9118 74.8861 11.3166 75.3732 12.5857C75.6122 13.1539 75.9581 13.6707 76.392 14.1082C76.822 14.5585 77.3395 14.916 77.9126 15.1586C78.5116 15.4204 79.1598 15.5502 79.8133 15.5393C80.5818 15.5284 81.339 15.353 82.034 15.0247C82.7291 14.6965 83.3459 14.223 83.8429 13.6362V19.1779L83.3716 19.3453C82.7157 19.5776 82.0452 19.7658 81.3644 19.9087C80.7569 20.0166 80.1414 20.0727 79.5244 20.0762C78.3037 20.081 77.0942 19.8429 75.9662 19.3758C74.8328 18.9218 73.7995 18.2494 72.925 17.3967C72.0468 16.5208 71.3403 15.4881 70.8418 14.3518C70.3118 13.1428 70.0424 11.8355 70.0511 10.5152C70.034 9.20555 70.2985 7.90751 70.8265 6.70915C71.3151 5.56741 72.023 4.53287 72.9098 3.66428C73.7858 2.8209 74.8192 2.15875 75.951 1.71561C77.0932 1.24086 78.3181 0.997605 79.5549 1.00002C80.2656 0.999837 80.9742 1.07644 81.6685 1.22842C82.4108 1.40353 83.1379 1.63766 83.8429 1.92868L83.8582 7.68353Z" fill="#2A2B2E"/>
<path d="M92.0843 5.64384V15.7225H97.6346V19.6807H87.4009V1.68555H97.6346V5.64384H92.0843Z" fill="#2A2B2E"/>
<path d="M115 19.6805H109.176L104.721 12.7687V19.6805H100.052V1.6853H107.29C108.182 1.66887 109.069 1.81855 109.906 2.12678C110.601 2.3945 111.233 2.80415 111.761 3.32956C112.244 3.83621 112.617 4.43748 112.856 5.09554C113.104 5.78904 113.227 6.52087 113.221 7.25738C113.278 8.44404 112.929 9.61485 112.232 10.5764C111.494 11.481 110.46 12.0955 109.313 12.3119L115 19.6805ZM104.721 9.73895H105.603C106.356 9.78557 107.104 9.58224 107.731 9.16042C107.962 8.95337 108.147 8.69999 108.273 8.41667C108.4 8.13336 108.465 7.82656 108.465 7.51626C108.465 7.20596 108.4 6.89915 108.273 6.61584C108.147 6.33253 107.962 6.07905 107.731 5.872C107.107 5.44373 106.357 5.23979 105.603 5.29347H104.721V9.73895Z" fill="#2A2B2E"/>
<path d="M14.8679 12.0074H1L2.2469 8.00342H16.1148L14.8679 12.0074Z" fill="#FF824D"/>
<path d="M96.4939 12.0074H82.6411L83.888 8.00342H97.756L96.4939 12.0074Z" fill="#FF824D"/>
</svg>
