<svg xmlns="http://www.w3.org/2000/svg" width="86" height="32" fill="none" viewBox="0 0 86 32"><g clip-path="url(#clip0_4011_128975)"><path fill="#DC271F" d="M85.883 9.228H0V0h85.883v9.228z"/><path fill="#fff" d="M56.001 5.114c0 1.492-1.23 2.694-2.738 2.694s-2.738-1.202-2.738-2.694 1.23-2.695 2.738-2.695 2.738 1.217 2.738 2.695z"/><path fill="#000" d="M85.868 11.343v4.085l-6.559 5.794h6.574v3.593H73.292v-4.1l6.676-5.91h-6.69v-3.462h12.59zM0 11.328h7.73l1.787 7.374h.029l1.757-7.374h7.715v13.487h-4.685l-.073-10.59h-.044l-2.68 10.59H7.19l-2.606-10.59H4.51l-.058 10.59H0V11.328zm21.053 0h11.815v3.245h-6.691v1.912h6.398v3.245h-6.398v1.84H33v3.245H21.053V11.328zm50.774 3.984h-4.611v9.503h-5.227v-9.503h-4.612v-3.984h14.45v3.984zm-37.012 9.503h5.227v-4.578h1.171c.645 0 1.172.072 1.48.695.424.812.482 2.912.717 3.883h5.446c-.556-1.319-.498-3.405-1.288-4.839-.484-.71-1.172-1.26-2.314-1.448v-.044c1.948-.463 3.265-1.506 3.265-3.578 0-2.593-2.02-3.593-5.27-3.593H34.8V24.8l.014.015zm4.993-10.474h1.45c1.053 0 2.05.174 2.05 1.39 0 1.377-1.055 1.493-2.139 1.493h-1.361V14.34zm16.047-3.013v13.487h-5.242V11.328h5.242zm-.689 15.037h-1.098v1.753h-.645V26.48H50.51v4.404a.33.33 0 0 0 .058.203c.044.057.088.115.176.173a.819.819 0 0 0 .249.13c.088.03.19.044.307.044h2.123v-2.65h.645V32h1.098v-5.65.015zm-2.87.797h.102v3.607h-.82v-3.607h.718zm4.511-.797h-1.098v5.65h1.098v-5.65zm7.086 0v5.65h-1.23v-.84h-.087s-.03 0-.22.057a4.224 4.224 0 0 1-.454.087l-.498.044h-2.811c-.117 0-.22 0-.307-.044a.818.818 0 0 1-.249-.13.988.988 0 0 1-.176-.174.467.467 0 0 1-.058-.203v-2.375h2.664v-1.29h-2.664v-.666h3.88v2.622h-2.665v1.593h2.46l.424-.043c.308-.043.498-.087.586-.116l.117-.043h.059V26.35h1.23v.014zm.951 4.795v.666h6.369v-.666h-6.37zm3.176-2.608a6.629 6.629 0 0 0 2.68 1.232l.44-.58c-2.211-.637-2.49-1.912-2.49-1.912h2.27v-.666h-2.255v-.377h-1.288v.377h-2.255v.666h2.27s-.279 1.275-2.49 1.912l.454.58s1.435-.247 2.68-1.232h-.015zM86 26.365h-1.097v1.854h-.528v-1.854h-1.098v5.65h1.098v-3.072h.528v3.071H86v-5.65zm-6.442.101v.71h.981s.059 1.71-.102 2.231c-.161.521-.469.942-1.318 1.434l.556.565s.894-.377 1.494-1.043c.6.666 1.493 1.043 1.493 1.043l.542-.565c-.85-.492-1.142-.927-1.318-1.434-.16-.521-.102-2.23-.102-2.23h.98v-.71h-3.206zm-.366 1.652h-.79v-1.753h-1.23v4.157h-.03s-.014.03-.19.102c-.117.043-.307.072-.57.116-.147.029-.279.029-.381.029h-1.113v-.594h.059c.366-.13.688-.32.937-.594.249-.261.38-.609.38-1.014 0-.247-.058-.45-.16-.623a2.663 2.663 0 0 0-.484-.536l-.16-.13h.804v-.667h-1.376v-.377h-1.23v.377h-1.376v.666h.79l-.146.13a2.003 2.003 0 0 0-.468.551c-.117.174-.161.391-.161.623 0 .406.117.739.38 1 .25.275.571.463.937.565h.059v.608h-1.728v.666h3.997c.117 0 .25 0 .396-.029l.541-.1.161-.044.147-.044v.782h1.23v-3.172h.79v-.71l-.014.015zm-4.904 1.448c-.205 0-.395-.101-.571-.304a.958.958 0 0 1-.249-.68c0-.262.088-.493.249-.682.175-.188.366-.29.57-.29.206 0 .41.102.572.29.16.189.249.42.249.681 0 .26-.088.493-.25.681-.175.203-.365.304-.57.304z"/></g><defs><clipPath id="clip0_4011_128975"><path fill="#fff" d="M0 0h86v32H0z"/></clipPath></defs></svg>