<svg xmlns="http://www.w3.org/2000/svg" width="102" height="36" fill="none" viewBox="0 0 102 36">
    <g clip-path="url(#a)">
        <path fill="#231F20"
              d="M40.674 13.776h-5.413v.144c0 .633-.202 1.24-.45 1.905 0 0-4.816 12.588-4.998 13.073l-5.662-13.61-.09-.21c-.165-.374-.332-.76-.332-1.158v-.114l-.106-.03h-5.878v.278l.069.034c1.116.418 1.28 1.94 1.28 2.814l-.002 13.166c0 1.526-.16 3.232-1.365 4.317l-.036.038v.25h5.214v-.275l-.065-.033c-1.141-.519-1.237-1.841-1.237-3.1v-.385l.003-.371.008-12.966c.381.934 5.618 13.671 5.618 13.671.763 1.81 1.219 2.664 2.736 3.844l.113.09s6.326-16.57 6.715-17.597l-.005 14.56c0 .973-.145 1.918-1.178 2.254l-.078.022v.286h5.863v-.264l-.046-.034c-1.049-.75-1.52-1.71-1.52-3.112V15.83c0-.345.066-1.501.878-1.743l.076-.027v-.285h-.112z"/>
        <path fill="#EE3E33"
              d="M44.913 25.055c0-5.765 4.565-10.442 10.203-10.442 2.902 0 5.52 1.248 7.375 3.25-2.04-3.187-5.556-5.289-9.562-5.289-6.318 0-11.435 5.239-11.435 11.713C41.494 30.761 46.611 36 52.93 36c1.28 0 2.512-.23 3.66-.623a9.685 9.685 0 0 1-1.475.121c-5.637 0-10.202-4.675-10.202-10.445l.001.002z"/>
        <path fill="#EE3E33"
              d="M55.816 15.89c-3.525-.331-6.75 1.499-8.457 4.408 1.586-1.873 3.993-2.976 6.59-2.731 4.276.396 7.428 4.276 7.035 8.649-.389 4.383-4.172 7.61-8.453 7.21a7.438 7.438 0 0 1-1.703-.367 8.81 8.81 0 0 0 3.366 1.029c4.906.453 9.247-3.245 9.694-8.273.454-5.021-3.162-9.468-8.071-9.924h-.002z"/>
        <path fill="#231F20"
              d="M74.976 22.502c1.926-.94 2.876-2.269 2.876-4.063 0-2.917-2.44-4.663-6.518-4.663h-7.377v.278l.068.034c1.334.504 1.302 2.37 1.284 3.738l-.004.461v11.84l.004.431c.016 1.393.035 3.293-1.287 3.807l-.065.026v.282h5.679c2.163.009 4.397.011 6.405-.985 2.277-1.114 3.74-3.312 3.74-5.6 0-2.731-1.838-4.84-4.805-5.586zm-6.328-6.349c.177-.018 1.96-.212 1.96-.212 1.039-.106 2.076.223 2.784.873.586.545.897 1.286.897 2.137 0 3-3.947 3.151-4.738 3.151h-.904v-5.948h.001zm6.418 14.954c-.905.843-2.307 1.236-3.84 1.083 0 0-2.123-.2-2.578-.24v-7.56c.19-.008 2.044-.118 2.044-.118 1.74-.099 3.368.413 4.36 1.373.74.714 1.114 1.633 1.114 2.728 0 1.096-.37 2.061-1.101 2.732v.002zm11.32-17.331h-5.939v.278l.072.034c1.328.504 1.304 2.385 1.284 3.755l-.005.476v11.848l.005.415c.014 1.391.038 3.297-1.284 3.783l-.072.026v.282h6.046v-.282l-.073-.026c-1.321-.514-1.297-2.402-1.284-3.783l.005-.415V18.32l-.005-.418c-.013-1.395-.036-3.3 1.284-3.819l.073-.028v-.278h-.107zm1.35 5.079c0 3.654 3.155 5.098 5.946 6.38 2.367 1.08 4.607 2.11 4.607 4.3 0 2.06-2.484 3.159-4.276 3.159-2.341 0-4.825-.969-6.65-2.583l-.25-.221.976 4.314.056.02c1.672.63 3.527.952 5.528.952 4.595 0 8.329-2.97 8.329-6.616 0-3.197-3.151-4.673-5.933-5.973-2.375-1.11-4.62-2.16-4.62-4.08 0-2.03 2.07-2.748 3.85-2.748 1.779 0 3.612.76 4.74 1.945l.181.197v-3.907l-.073-.022a15.084 15.084 0 0 0-4.6-.7c-3.608 0-7.81 1.459-7.81 5.583h-.001z"/>
        <path fill="#002D74"
              d="M6.151 3.586H1.965V0H0v9.185h1.965V5.381h4.186v3.804h1.965V0H6.151v3.586zM48.837.525c-.41.43-.427 1.062-.439 1.43v7.23h1.964V6.253h4.17v2.932h1.97V0h-6.126c-.58.007-1.13.092-1.539.525zm2.024 1.27h3.672V4.46h-4.17V2.32c.007-.105-.014-.296.073-.41.093-.12.24-.108.425-.115zM34.933 0h-6.138v9.185h1.966v-7.39h3.686c.184.007.333-.005.424.115.09.114.074.305.077.41v6.866h1.963V1.955c-.01-.368-.024-1-.436-1.43C36.063.09 35.52.006 34.933 0zm-9.839 6.865c-.005.107.013.294-.077.406-.091.122-.241.112-.424.115h-3.685V0h-1.965v9.185h6.137c.585-.006 1.129-.095 1.539-.527.41-.431.428-1.06.44-1.429V0h-1.965v6.865zm21.674-4.91c-.008-.368-.024-1-.435-1.43C45.924.09 45.377.006 44.796 0h-6.14v9.185h6.14c.58-.006 1.127-.095 1.537-.527.41-.431.427-1.06.435-1.429V1.955zm-1.957 4.91c-.008.107.011.294-.075.406-.093.122-.241.112-.426.115h-3.69V1.795h3.689c.185.007.333-.005.426.115.087.114.067.305.075.41v4.547-.002zM13.53 4.018L11.147 0H8.814l3.665 5.792v3.393h2.1V5.792L18.25 0h-2.336L13.53 4.018zM60.568 0H58.47v9.185h2.097V0z"/>
    </g>
    <defs>
        <clipPath id="a">
            <path fill="#fff" d="M0 0h102v36H0z"/>
        </clipPath>
    </defs>
</svg>