<svg xmlns="http://www.w3.org/2000/svg" width="96" height="46" fill="none" viewBox="0 0 96 46"><g clip-path="url(#a)"><path fill="#1D1D1B" d="M44.366 39.103h4.787v-5.165h-6.098v1.17h4.819v2.825h-4.82v5.243h7.395v-1.202h-6.083v-2.87zm8.217-5.898h-1.296V46h1.296V33.205zm6.698 5.195h1.69v3.48h-1.69v1.202h2.986v-9.16h-1.28V37.2h-1.69v1.202h-.016zm-1.706 0h1.69v-1.2h-1.69v-3.277h-1.28v9.159h2.986V41.88h-1.69V38.4h-.016zm8.027-5.195h-1.249V46h1.249v-6.725h1.88v-1.233h-1.88v-4.837zm13.728 6.912h-7.393v-1.966h6.951v-1.155h-6.951V35h7.283v-1.17h-8.61v7.443h8.72v-1.155zm1.47 3.199H69.03v1.17H80.8v-1.17zm-58.396-8.067h-7.205v1.092h7.205V35.25zm-3.571 2.761c1.217 0 1.802.469 1.802 1.171 0 .702-.585 1.155-1.802 1.155v1.123c1.944-.03 3.16-1.092 3.16-2.294 0-1.232-1.185-2.246-3.16-2.246v1.092zm-1.753 1.156c0-.687.584-1.17 1.77-1.17v-1.093c-1.881 0-3.13 1.014-3.13 2.247 0 1.233 1.249 2.294 3.13 2.294V40.32c-1.186 0-1.77-.468-1.77-1.154zm3.745-5.914H16.89v1.092h3.934v-1.092zm1.579 4.509h1.96v1.514h-1.96v1.17h1.96v2.434h1.28v-9.596h-1.28v3.308h-1.96v1.17zm-3.571 4.385h-1.358V46h8.531v-1.155h-7.173v-2.7zm11.486-6.819h3.492v-1.17h-4.788v8.863h5.641v-1.202h-4.345v-6.491zm7.475 2.575h-1.485v-4.4H35.06v12.14h1.248v-6.43h1.485V46h1.28V33.283h-1.28v4.619z"/><path fill="#00917B" d="M55.631 0H0v25.543h55.631V0z"/><path fill="#DB9506" d="M96 0H68.952v25.543h27.05V0z"/><path fill="#1D1D1B" d="M69.22 0H55.379v25.543h13.84V0z"/><path fill="#fff" d="M36.165 15.042c0 .936-.253 1.7-1.438 1.7s-1.437-.764-1.437-1.7V8.176h-1.28v6.866c0 1.53.853 2.73 2.717 2.73 1.849 0 2.718-1.2 2.718-2.73V8.176h-1.296v6.866h.016zm-24.062-2.871h-2.86V8.176H7.947v9.519h1.296v-4.432h2.86v4.432h1.295V8.176h-1.295v3.995zm37.46 2.793l-2.575-6.788h-1.912v9.519h1.248V9.628l3.081 8.067h1.407V8.176h-1.249v6.788zm-26.906-2.746l-1.722-4.042h-1.328l2.402 5.493v4.026h1.28v-4.073l2.354-5.446h-1.327l-1.66 4.042zm65.458-4.042h-1.248v9.519h1.248V8.176zM62.362 9.347c.996.25 1.517 1.092 1.517 3.604s-.521 3.308-1.517 3.605v1.123c.775-.11 1.39-.437 1.833-.983.585-.765.885-1.92.885-3.745 0-1.825-.3-3.011-.885-3.745-.442-.577-1.106-.874-1.832-.983v1.124zm-.948 7.255h-.553v-7.38h.553c.332 0 .664 0 .964.11V8.207c-.22-.032-.474-.032-.742-.032h-2.023v9.519h2.054c.221 0 .474-.032.695-.032V16.54c-.3.078-.584.078-.963.078l.015-.016zM75.65 9.19l1.059 4.729H75.65v1.092h1.296l.585 2.684h1.28l-2.276-9.519h-.885v1.015zm-1.074 4.729l1.074-4.76v.032-1.015h-.853v.032l-2.322 9.44h1.28l.631-2.653h1.249v-1.092H74.56l.016.016z"/></g><defs><clipPath id="a"><path fill="#fff" d="M0 0h96v46H0z"/></clipPath></defs></svg>