<svg xmlns="http://www.w3.org/2000/svg" width="88" height="44" fill="none" viewBox="0 0 88 44"><path fill="#FF9700" d="M44.002 14.303c-4.871-2.153-9.796-1.93-11.043.596-1.261 2.547.577 8.572 4.041 13.57 3.465 4.998 8.362 4.834 11.063-.626 2.661-5.444.803-11.395-4.055-13.547"/><path fill="#006ECD" d="M18.7 16.137c4.408 3.123 9.336 4.07 11.087 2.042 1.764-2.042 1.156-8.008-1.278-13.413-2.433-5.404-7.328-6.4-11.106-2.02-3.739 4.379-3.09 10.281 1.298 13.39z"/><path fill="#EF151E" d="M34.236 33.443c-.714-5.817-3.377-10.526-6.04-10.526-2.683 0-6.608 4.724-8.893 10.549C17.025 39.29 19.619 44 25.369 44c5.724-.045 9.58-4.754 8.867-10.557z"/><path fill="#000" d="M13.636 18.333c-.886 0-1.48.623-1.48 1.55v.935h2.106s.073 7.912-.006 8.748c-.08.828-.267 2.18-1.566 2.887-1.12.608-1.146 1.186-1.22 1.703-.093.669.014.752.44.63 1.673-.463 3.451-1.23 4.35-3.115.487-1.026.687-2.128.687-3.815v-7.038c.893-.007 1.533-.66 1.533-1.55v-.935h-4.844zM11.44 29.34s-1.77 2.743-5.213 2.743C2.785 32.083 0 29.15 0 25.258c0-3.893 2.673-6.925 6.227-6.925 3.555 0 5.164 2.744 5.164 2.744s-.945 1.096-1.854 1.096c-.441 0-.777-.219-1.155-.476-.51-.34-1.091-.733-2.155-.733-2.015 0-3.66 1.928-3.66 4.286 0 2.358 1.645 4.203 3.66 4.203 1.197 0 1.764-.37 2.26-.696.35-.234.686-.453 1.169-.453 1.021 0 1.784 1.035 1.784 1.035zm76.554-11.007v12.363c0 .898-.593 1.38-1.416 1.38h-1.087V23.7l-1.994 7.5c-.174.603-.816.875-1.464.883h-.502l-2.46-8.383v6.98c0 .914-.58 1.395-1.416 1.395h-1.094V19.73c0-.914.578-1.396 1.415-1.396h1.791l2.587 9.114 2.335-8.247c.181-.57.67-.867 1.332-.867H88m-27.492 2.575c.593 0 1.093-.61 1.093-1.332v-1.244h-7.708c-.592 0-1.092.634-1.092 1.332v12.418h7.707c.593 0 1.093-.786 1.093-1.508v-1.083h-5.338c-.882 0-1.033.53-1.033.53v-3.594h5.022c.592 0 1.092-.61 1.092-1.332v-1.26h-5.088c-.882 0-1.033.53-1.033.53v-3.457h5.285zm12.661-2.576c-.594 0-.944.674-.944 1.332v7.172l-5.753-8.504h-1.13c-.594 0-1.102.634-1.102 1.332v12.418h1.474c.594 0 1.102-.65 1.102-1.331v-7.878l6.11 9.21h.772c.594 0 1.102-.634 1.102-1.332V18.333h-1.63z"/></svg>