<svg xmlns="http://www.w3.org/2000/svg" width="64" height="60" fill="none" viewBox="0 0 64 60"><g clip-path="url(#a)"><path fill="#AF9976" d="M1.084 55.932H0v3.985h1.084c1.325 0 2.242-.82 2.242-1.992 0-1.172-.917-1.993-2.242-1.993zm-.563.452h.5c1.094 0 1.762.592 1.762 1.54 0 .949-.668 1.539-1.762 1.539h-.5v-3.079zm4.839 3.079v-1.332h1.344v-.452H5.36v-1.295h1.637v-.452H4.838v3.985h2.375v-.454H5.359zm4.512-3.531h-1.16v3.985h.533v-1.788h.647c.573 0 1.187-.37 1.187-1.1 0-.728-.616-1.097-1.209-1.097m-.623.452h.562c.437 0 .74.266.74.646 0 .443-.376.647-.72.647h-.584v-1.293h.002zm4.222-.534h-.197l-1.678 4.067h.532s.417-1.014.439-1.089h1.594c.021.072.45 1.089.45 1.089h.551l-1.689-4.068h-.002zm.063 1.418s.384.987.436 1.108h-1.22c.063-.123.45-1.108.45-1.108s.107-.29.17-.473l.166.473m4.398.78c.44-.164.742-.545.742-1.016 0-.718-.616-1.098-1.222-1.098h-1.177v3.985h.532v-1.788h.595a456.99 456.99 0 0 0 1.313 1.788h.625s-1.334-1.766-1.408-1.869m-1.125-1.666h.584c.437 0 .74.266.74.646 0 .443-.376.647-.718.647h-.606v-1.293zm2.803-.452v.452h1.345v3.533h.532v-3.533h1.354v-.452h-3.232zm8.361 0h-.354l-1.095 2.197s-.333.74-.458 1.006c-.072-.164-.47-1.006-.47-1.006l-1.105-2.197h-.354l-.323 3.985h.49l.168-2.065s.032-.552.052-.812c.112.248.396.844.396.844l1.031 2.073h.2l1.02-2.054.084-.185s.219-.452.323-.678c.01.248.04.812.04.812l.178 2.065h.513l-.333-3.985h-.003zm2.555 3.531v-1.332h1.345v-.452h-1.345v-1.295h1.637v-.452h-2.167v3.985h2.386v-.454h-1.856zm6.243-3.531v2.116s.01.7.01.895c-.134-.166-.802-.935-.802-.935l-1.856-2.076h-.365v3.985h.532V57.72s-.02-.742-.02-.946c.156.172.874 1.016.874 1.016L37.104 60h.199v-4.068h-.534zm1.817 0v.452h1.343v3.533h.532v-3.533h1.356v-.452h-3.231zm8.036 1.624c-.472-.188-.688-.39-.688-.678 0-.287.238-.566.699-.566.28 0 .575.113.728.204l.063.053.115-.464-.032-.01c-.156-.112-.478-.237-.866-.237-.843 0-1.23.526-1.23 1.035 0 .51.363.927 1.083 1.174.532.186.75.43.75.801 0 .371-.31.648-.78.648-.407 0-.772-.132-1.148-.4l-.113-.094.156.64.01.018c.282.192.688.307 1.084.307.803 0 1.324-.462 1.324-1.17 0-.707-.584-1.037-1.157-1.263m1.765-1.622v.452h1.343v3.533h.521v-3.533h1.367v-.452h-3.231zm5.808-.072c-1.045 0-2.128.771-2.128 2.054s1.085 2.073 2.128 2.073c1.042 0 2.115-.78 2.115-2.073 0-1.294-1.075-2.054-2.115-2.054zm1.585 2.054a1.58 1.58 0 0 1-1.583 1.602c-.779 0-1.588-.554-1.588-1.602 0-1.049.813-1.592 1.588-1.592.774 0 1.583.592 1.583 1.592zm3.426.134c.459-.164.75-.545.75-1.016 0-.718-.624-1.098-1.217-1.098H57.56v3.985h.52v-1.788h.604a451.93 451.93 0 0 0 1.315 1.788h.625s-1.334-1.766-1.419-1.869m-1.124-1.666h.595c.439 0 .74.266.74.646 0 .443-.375.647-.708.647h-.625v-1.293h-.002zm4.064 3.079v-1.332h1.345v-.452h-1.345v-1.295h1.648v-.452h-2.178v3.985h2.386v-.454h-1.856zM17.702 39.712c-4.503 0-7.183 2.723-7.183 6.114 0 3.39 2.68 6.1 7.183 6.1s7.185-2.732 7.185-6.1c0-3.37-2.702-6.114-7.185-6.114zm0 10.897c-2.158 0-3.793-2.137-3.793-4.783 0-2.647 1.637-4.797 3.793-4.797s3.785 2.146 3.785 4.797c0 2.65-1.637 4.783-3.785 4.783zM25.5 41.51h4.721v9.911h3.567v-9.91h3.994v-1.358H25.5v1.358zm13.586 0h3.992v9.911h3.556v-9.91h4.732v-1.358h-12.28v1.358zM3.42 49.4v-9.244H0v9.934a1.34 1.34 0 0 0 1.356 1.333h8.746v-1.342H4.098a.682.682 0 0 1-.679-.682zm49.885-7.9v8.587c0 .74.614 1.334 1.367 1.334h9.319v-1.334h-6.577a.662.662 0 0 1-.68-.669v-3.315h7.153v-1.315h-7.152v-2.632c0-.368.294-.666.679-.666h6.577v-1.337h-9.32c-.75 0-1.366.608-1.366 1.347zM38.72 29.425c-3.692 3.643-9.748 3.643-13.438 0l-6.827-6.719c-3.69-3.658-3.69-9.606 0-13.251l6.828-6.728c3.691-3.635 9.747-3.635 13.437 0l6.828 6.728c3.69 3.645 3.69 9.59 0 13.251l-6.828 6.719z"/><path fill="#fff" d="M27.95 25.96c-.542 0-.98-.42-1.012-.968a.977.977 0 0 1 .273-.707.938.938 0 0 1 .698-.317 1.006 1.006 0 0 1 1.054.952c.021.545-.418 1.008-.971 1.038h-.04l-.002.002zm3.669-18.366c-.552 0-.989.166-1.357.514-.77.769-1.176 2.333-1.146 4.417.052 2.557.666 7.6 2.721 10.19.335.43.688.758 1.053 1.003.366.25.77.473 1.408.473.167 0 .353-.019.552-.05 1.168-.278 2.636-1.571 3.743-3.289a.923.923 0 0 1 .762-.43c.177 0 .333.051.49.145a.93.93 0 0 1 .396.564.921.921 0 0 1-.114.68c-1.387 2.159-3.22 3.686-4.899 4.068-.01 0-.022.01-.03.01a5.597 5.597 0 0 1-.898.073c-1.085 0-1.857-.403-2.398-.75-.54-.352-1.032-.822-1.49-1.387-2.887-3.657-3.086-10.499-3.097-11.268-.03-1.83.24-4.285 1.68-5.713.707-.677 1.583-1.035 2.626-1.035h.168c1.043 0 1.927.358 2.626 1.035 1.449 1.428 1.71 3.883 1.68 5.713-.032 1.899-.389 5.576-2.379 8.875a.957.957 0 0 1-.782.43c-.167 0-.323-.05-.47-.123a.906.906 0 0 1-.313-1.234c1.397-2.312 2.074-4.85 2.136-7.98.033-2.086-.374-3.648-1.157-4.417-.354-.35-.793-.514-1.345-.514h-.169.003z"/></g><defs><clipPath id="a"><path fill="#fff" d="M0 0h64v60H0z"/></clipPath></defs></svg>