<svg xmlns="http://www.w3.org/2000/svg" width="144" height="22" fill="none" viewBox="0 0 144 22"><g clip-path="url(#clip0_4011_129002)"><path fill="#E60000" d="M13.582.048l.925 1.144.154.214c.36.692.926 1.288 1.157 2.074l.154.43s.026.142.051.309c.129.477 0 .977-.05 1.454-.18.858-.72 1.645-1.183 2.383-.437.573-1.414 1.645-1.414 1.645a31.846 31.846 0 0 0-1.799-1.859c-.334-.572-.668-1.144-.976-1.74-.206-.691-.412-1.359-.386-2.05 0 0 0-.286.026-.405.077-.238.128-.5.257-.715.051-.12.205-.334.283-.453 0 0 .282-.358.36-.453C11.808 1.24 12.707.691 13.478 0c.026-.024.052.024.077.048h.026zm-8.944 3.98c.206.096.437.12.642.191.592.048 1.157.19 1.722.358.36.119 1.028.429 1.028.429.9.452 1.517 1.167 2.134 1.811.54.691.976 1.478 1.182 2.384.051.262.154.548.154.834-.976.262-1.953.405-2.93.429-.77-.12-1.516-.382-2.236-.715-.72-.453-1.26-1.025-1.722-1.621-.642-.906-.95-2.074-1.105-3.194 0-.143-.026-.286-.026-.286l-.077-.691v-.19s.206.047.334.07c.232.072.746.215.849.215l.05-.024zm16.114.762s1.002.144 1.567.287c.103 0 .154.047.232.047.488.143.976.31 1.49.477-.077.62-.205 1.24-.617 1.764 0 0-.025.048-.051.071-.334.525-.874.978-1.414 1.311-.514.31-1.002.644-1.593.858-1.182.525-2.57.906-3.88.715-.49-.071-1.029-.095-1.517-.19 0 0 .231-.81.334-1.24.051-.262.308-.762.308-.762.386-.549.489-1.168 1.003-1.669.668-.643 1.362-1.263 2.261-1.573.617-.19 1.311-.214 1.928-.12l-.052.025zM7.516 15.111c.617-.214 1.028-.667 1.491-1.096.437-.429.848-.906 1.208-1.406 0 0 .36-.5.514-.691 0 0 0-.024.026-.048-.848-.31-1.67-.644-2.519-.858-.72-.167-1.414-.382-2.159-.405-.617 0-1.234-.12-1.876.023-1.465.334-2.622 1.05-3.701 1.836v.047c.411.549.822 1.12 1.285 1.621 0 0 .18.215.283.31l.54.5c.205.096.668.287.668.287.54.286 1.13.357 1.722.405.668-.048 1.824-.19 2.518-.524zm12.491-4.504c.334 0 .566.023.848.047.823.096 1.594.334 2.365.644.128.071.257.143.36.214 0 0 .257.191.41.31.232.19.412.405.618.62.051.095.205.334.231.357.308.549.591 1.097.822 1.669 0 .024.026.071.052.095-.129.072-.283.096-.437.12-.026 0-.463.119-.643.19a32.28 32.28 0 0 1-1.49.262c-.026 0-.72.096-1.028.12 0 0-.591.047-.694.023-.154.024-.309 0-.463 0-.308 0-1.028-.047-1.054-.047-.282 0-.72-.12-.848-.167-.051 0-.77-.286-.797-.286a4.025 4.025 0 0 1-.436-.239c-.206-.071-.36-.214-.514-.31-.283-.214-.54-.428-.746-.69-.334-.406-.873-1.36-.873-1.36.668-.524 1.464-.881 2.261-1.191.308-.12.643-.238.977-.334.36-.047.72-.119 1.053-.095l.026.048zm-1.337 5.458c.566.691 1.183 1.335 1.363 2.288.051.31.128.62.128.93.052.333.078.69.103 1 0 .525-.051 1.05-.051 1.574-.283-.072-.54-.19-.823-.286l-1.876-.62a11.136 11.136 0 0 1-1.979-1.049s-.873-.596-1.156-.977c-.18-.238-.36-.5-.54-.739 0-.024-.18-.31-.18-.429-.103-.381-.18-.763-.154-1.144v-.524c.077-.787.308-1.526.565-2.288l.052-.191c1.568.5 3.418 1.24 4.523 2.431l.026.024zm-6.528-2.431c-1.13.381-2.21.858-3.29 1.31-.18.096-.36.239-.565.334-.308.334-1.028.93-1.028.93-.437.381-.848.977-.848 1.573-.052.572 0 1.168.103 1.764.128.62.334 1.24.54 1.835.05.215.102.405.154.596.077 0 .154-.048.23-.048 0 0 1.748-.548 2.52-.953.642-.334 1.233-.715 1.696-1.24.077-.071.231-.262.231-.262.591-.762.951-1.716.951-2.598v-.405c-.026-.334-.129-.667-.154-1.001-.077-.19-.103-.405-.154-.596-.103-.405-.283-.834-.412-1.263l.026.024z"/><path fill="#4F5556" d="M36.327 5.65c-.771.619-1.182 1.5-1.182 2.55 0 1.93 1.747 2.907 3.444 3.86 1.49.835 2.904 1.622 2.904 3.004 0 .882-.874 1.835-2.519 1.835-1.182 0-2.339-.5-3.367-1.43l-.385-.357v2.097l.102.072c1.183.786 2.39 1.144 3.881 1.144 2.313 0 3.984-1.502 3.984-3.575 0-1.05-.411-1.955-1.234-2.718-.72-.667-1.593-1.12-2.467-1.597-1.362-.715-2.647-1.382-2.647-2.598 0-1.025 1.002-1.74 2.441-1.74 1.003 0 2.005.334 2.956 1.025l.36.262V5.601l-.103-.071c-.95-.548-2.005-.858-3.033-.858-1.285 0-2.364.334-3.135.953v.024zm49.217 0c-.772.619-1.183 1.5-1.183 2.55 0 1.93 1.748 2.907 3.444 3.86 1.49.835 2.904 1.622 2.904 3.004 0 .882-.873 1.835-2.518 1.835-1.183 0-2.339-.5-3.367-1.43l-.386-.357v2.097l.103.072c1.183.786 2.39 1.144 3.881 1.144 2.313 0 3.984-1.502 3.984-3.575 0-1.05-.412-1.955-1.234-2.718-.72-.667-1.593-1.12-2.467-1.597-1.362-.715-2.647-1.382-2.647-2.598 0-1.025 1.002-1.74 2.441-1.74 1.002 0 2.005.334 2.956 1.025l.36.262V5.601l-.103-.071c-.951-.548-2.005-.858-3.033-.858-1.285 0-2.364.334-3.135.953v.024zm-29.607-.764v5.911h-7.71v-5.91h-1.8v13.3h1.8v-5.912h7.71v5.911h1.8v-13.3h-1.8zm6.348 0v13.3h1.8v-13.3h-1.8zm33.514 0v13.3h8.07V16.71h-6.271v-4.434h5.86v-1.478h-5.86V6.34h6.065V4.862h-7.864v.024zm39.656 0v13.3h8.07V16.71h-6.271v-4.434h5.86v-1.478h-5.86V6.34h6.066V4.862h-7.865v.024zm-8.276-.071h-1.285l-5.783 13.395h1.851l1.67-4.004h5.963l1.799 4.004h1.825l-6.04-13.395zm-2.93 7.913l2.262-5.41 2.441 5.41h-4.703zm-6.141-5.268V5.72c-1.413-.572-2.904-.977-4.163-.977-2.391 0-4.215.548-5.629 1.788-1.413 1.24-2.082 3.122-2.082 5.03 0 3.717 2.211 6.84 7.094 6.84 1.825 0 3.598-.43 4.78-1.144l.077-.048v-6.364h-4.6v1.406h2.878v4.028c-.899.43-2.03.668-3.187.596-2.647-.19-5.191-1.62-5.191-5.267 0-3.266 2.082-5.363 5.705-5.363 0 0 2.391 0 4.318 1.215zM79.042 4.886v10.345L70.329 4.886h-1.722v13.3h1.671V7.556l8.918 10.63h1.517v-13.3h-1.671z"/></g><defs><clipPath id="clip0_4011_129002"><path fill="#fff" d="M0 0h143v22H0z" transform="translate(.5)"/></clipPath></defs></svg>