<svg xmlns="http://www.w3.org/2000/svg" width="120" height="28" fill="none" viewBox="0 0 120 28">
    <g fill-rule="evenodd" clip-path="url(#clip0_3038_106977)" clip-rule="evenodd">
        <path fill="#5E2E27"
              d="M13.901 3.887l-2.384 2.102a4.142 4.142 0 0 0-1.466-1.776 3.954 3.954 0 0 0-2.16-.686c-2.648 0-4.182 1.036-4.182 4.103v4.318c0 1.152.46 4.19 3.458 4.19a4.977 4.977 0 0 0 2.453-.663 5.175 5.175 0 0 0 1.841-1.799l2.551 2.001a7.957 7.957 0 0 1-2.907 2.81 7.638 7.638 0 0 1-3.868.976 6.62 6.62 0 0 1-2.758-.414 6.788 6.788 0 0 1-2.367-1.518 7.05 7.05 0 0 1-1.58-2.37A7.24 7.24 0 0 1 0 12.338c0-3.11.097-2.533.097-5.557a6.859 6.859 0 0 1 1.874-4.459A6.449 6.449 0 0 1 6.26.317a7.3 7.3 0 0 1 4.347.582A7.596 7.596 0 0 1 13.9 3.887zM33.308.633h3.625v10.581c0 2.117.794 4.996 3.569 4.996 2.774 0 3.876-1.31 3.876-4.895V.75h3.61v18.614h-3.164v-1.685a8.582 8.582 0 0 1-5.298 1.9 6.367 6.367 0 0 1-4.437-2.062 6.784 6.784 0 0 1-1.781-4.675c0-3.901-.042-12.208 0-12.208z"/>
        <path fill="#C7CD1D"
              d="M100.969 19.578H97.33V8.998c0-2.117-.794-4.996-3.555-4.996-2.76 0-3.876 1.972-3.876 5.355v10.077H86.33V.85h3.095v1.685s.99-2.03 4.922-1.9a6.19 6.19 0 0 1 2.554.433 6.339 6.339 0 0 1 2.175 1.449 6.59 6.59 0 0 1 1.436 2.224c.325.835.481 1.73.457 2.63v12.208z"/>
        <path fill="#5E2E27"
              d="M21.946.274H23.8a6.177 6.177 0 0 1 4.423 1.912 6.587 6.587 0 0 1 1.823 4.58V12.9a6.586 6.586 0 0 1-1.828 4.57 6.176 6.176 0 0 1-4.418 1.908h-1.854a6.19 6.19 0 0 1-4.424-1.907 6.601 6.601 0 0 1-1.836-4.571V6.766a6.59 6.59 0 0 1 1.832-4.576A6.176 6.176 0 0 1 21.946.288V.274zm.25 3.253a3.555 3.555 0 0 0-2.357 1.335 3.782 3.782 0 0 0-.793 2.653v4.606a3.767 3.767 0 0 0 .794 2.647 3.54 3.54 0 0 0 2.357 1.327h1.394a3.54 3.54 0 0 0 2.356-1.327 3.767 3.767 0 0 0 .795-2.647V7.515a3.782 3.782 0 0 0-.794-2.653 3.554 3.554 0 0 0-2.357-1.335h-1.395z"/>
        <path fill="#E52330"
              d="M51.447.749v26.085h3.918v-8.638s.809 1.31 4.392 1.31a6.459 6.459 0 0 0 4.489-1.876 6.877 6.877 0 0 0 2.022-4.544v-6.32c0-1.843-1.52-6.104-5.577-6.32-4.057-.216-5.228.922-5.73 2.001V.691h-3.472l-.042.058zm6.762 2.778h1.785a3.555 3.555 0 0 1 2.357 1.335c.588.745.873 1.696.794 2.653v4.606a3.767 3.767 0 0 1-.795 2.647 3.54 3.54 0 0 1-2.356 1.327h-1.785a3.54 3.54 0 0 1-2.356-1.327 3.767 3.767 0 0 1-.795-2.647V7.515a3.782 3.782 0 0 1 .794-2.653 3.555 3.555 0 0 1 2.357-1.335z"/>
        <path fill="#FBBC43"
              d="M69.837 2.001l1.478 2.534a6.428 6.428 0 0 1 4.434-1.008 3.35 3.35 0 0 1 1.43.302c.45.205.853.507 1.18.886.328.38.573.827.72 1.312.145.486.189.998.127 1.502a6.934 6.934 0 0 0-4.183-1.05 6.145 6.145 0 0 0-3.684 1.098 6.462 6.462 0 0 0-2.38 3.105c-.558 2.317-.502 7.73 3.973 8.637 4.476.907 6.58-1.627 6.58-1.627v1.742h3.054V6.162c0-6.622-8.909-7.745-12.785-4.16h.056zm5.451 7.486h.46a3.02 3.02 0 0 1 2.155.928c.572.59.895 1.39.899 2.225v.633a3.22 3.22 0 0 1-.899 2.225 3.02 3.02 0 0 1-2.154.928h-.46a3.02 3.02 0 0 1-2.156-.928 3.22 3.22 0 0 1-.898-2.225v-.633a3.22 3.22 0 0 1 .898-2.226 3.02 3.02 0 0 1 2.155-.927z"/>
        <path fill="#61BFE6"
              d="M115.343 1.943a4.014 4.014 0 0 1 2.126-1.352 3.91 3.91 0 0 1 2.489.2v2.794a2.989 2.989 0 0 0-1.56-.107 3.039 3.039 0 0 0-1.409.697c.415.9.634 1.882.641 2.879a6.494 6.494 0 0 1-1.685 4.527 6.093 6.093 0 0 1-4.282 1.994c-2.092 0-2.789.144-4.657 2.88-.293.59.223.345.223.345a14.428 14.428 0 0 1 7.403-.46 5.975 5.975 0 0 1 3.45 1.989 6.327 6.327 0 0 1 1.514 3.769c.083 3.066-4.462 5.873-4.462 5.873l-1.561-2.692c1.492-1.54 3.485-2.577 1.589-4.736-1.896-2.16-6.581-.979-8.769-.475-2.189.504-2.677-1.944-2.482-3.8.183-.762.51-1.478.962-2.108a5.827 5.827 0 0 1 1.673-1.564 6.587 6.587 0 0 1-2.054-2.393 6.815 6.815 0 0 1-.734-3.106 6.49 6.49 0 0 1 1.685-4.527 6.091 6.091 0 0 1 4.282-1.994h1.938a5.666 5.666 0 0 1 3.639 1.367h.041zm-4.865 1.613a3.35 3.35 0 0 0-2.447.904 3.574 3.574 0 0 0-1.123 2.421v.662a3.573 3.573 0 0 0 1.127 2.412c.668.62 1.546.943 2.443.9h.529a3.353 3.353 0 0 0 2.443-.9 3.573 3.573 0 0 0 1.127-2.412v-.662a3.577 3.577 0 0 0-1.122-2.42 3.354 3.354 0 0 0-2.448-.905h-.529z"/>
    </g>
    <defs>
        <clipPath id="clip0_3038_106977">
            <path fill="#fff" d="M0 0h120v28H0z"/>
        </clipPath>
    </defs>
</svg>