<svg width="116" height="24" viewBox="0 0 116 24" fill="none" xmlns="http://www.w3.org/2000/svg">
<path d="M10.3822 13.6166V16.6615H15.9324V20.6199H5.69873V2.68555H15.9324V6.64384H10.3822V9.68871" fill="#F3F4F6"/>
<path d="M23.6573 2.68555V16.7225H29.2531V20.6807H18.9434V2.68555H23.6573Z" fill="#F3F4F6"/>
<path d="M41.9043 17.5597H35.2288L34.1492 20.6046H29.1616L36.0044 2.60938H41.1136L47.9564 20.6046H42.9688L41.9043 17.5597ZM40.6574 13.9972L38.559 8.014L36.4606 13.9972H40.6574Z" fill="#F3F4F6"/>
<path d="M49.6748 20.6807V2.68555H54.3431L62.9801 13.6927V2.68555H67.6332V20.6807H62.9801L54.3431 9.68871V20.6807H49.6748Z" fill="#F3F4F6"/>
<path d="M83.8582 8.68353C83.3891 8.06722 82.7841 7.5679 82.0903 7.22456C81.3965 6.88122 80.6329 6.70318 79.859 6.70438C79.1916 6.70276 78.5303 6.83207 77.9126 7.08499C77.3457 7.33211 76.8299 7.68322 76.392 8.12024C75.9581 8.55767 75.6122 9.07453 75.3732 9.64267C74.8861 10.9118 74.8861 12.3166 75.3732 13.5857C75.6122 14.1539 75.9581 14.6707 76.392 15.1082C76.822 15.5585 77.3395 15.916 77.9126 16.1586C78.5116 16.4204 79.1598 16.5502 79.8133 16.5393C80.5818 16.5284 81.339 16.353 82.034 16.0247C82.7291 15.6965 83.3459 15.223 83.8429 14.6362V20.1779L83.3716 20.3453C82.7157 20.5776 82.0452 20.7658 81.3644 20.9087C80.7569 21.0166 80.1414 21.0727 79.5244 21.0762C78.3037 21.081 77.0942 20.8429 75.9662 20.3758C74.8328 19.9218 73.7995 19.2494 72.925 18.3967C72.0468 17.5208 71.3403 16.4881 70.8418 15.3518C70.3118 14.1428 70.0424 12.8355 70.0511 11.5152C70.034 10.2055 70.2985 8.90751 70.8265 7.70915C71.3151 6.56741 72.023 5.53287 72.9098 4.66428C73.7858 3.8209 74.8192 3.15875 75.951 2.71561C77.0932 2.24086 78.3181 1.9976 79.5549 2.00002C80.2656 1.99984 80.9742 2.07644 81.6685 2.22842C82.4108 2.40353 83.1379 2.63766 83.8429 2.92868L83.8582 8.68353Z" fill="#F3F4F6"/>
<path d="M92.0843 6.64384V16.7225H97.6346V20.6807H87.4009V2.68555H97.6346V6.64384H92.0843Z" fill="#F3F4F6"/>
<path d="M115 20.68H109.176L104.721 13.7682V20.68H100.052V2.68481H107.29C108.182 2.66838 109.069 2.81806 109.906 3.12629C110.601 3.39402 111.233 3.80366 111.761 4.32907C112.244 4.83572 112.617 5.43699 112.856 6.09506C113.104 6.78855 113.227 7.52038 113.221 8.25689C113.278 9.44355 112.929 10.6144 112.232 11.5759C111.494 12.4805 110.46 13.095 109.313 13.3114L115 20.68ZM104.721 10.7385H105.603C106.356 10.7851 107.104 10.5817 107.731 10.1599C107.962 9.95288 108.147 9.6995 108.273 9.41618C108.4 9.13287 108.465 8.82607 108.465 8.51577C108.465 8.20547 108.4 7.89867 108.273 7.61535C108.147 7.33204 107.962 7.07856 107.731 6.87151C107.107 6.44324 106.357 6.2393 105.603 6.29298H104.721V10.7385Z" fill="#F3F4F6"/>
<path d="M14.8679 13.0074H1L2.2469 9.00342H16.1148L14.8679 13.0074Z" fill="#FF824D"/>
<path d="M96.4939 13.0074H82.6411L83.888 9.00342H97.756L96.4939 13.0074Z" fill="#FF824D"/>
</svg>
