<svg xmlns="http://www.w3.org/2000/svg" width="96" height="26" fill="none" viewBox="0 0 96 26"><g clip-path="url(#clip0_3038_107003)"><path fill="#B61C33" d="M12.747 26c7.041 0 12.747-5.82 12.747-13S19.788 0 12.747 0C5.707 0 0 5.82 0 13s5.706 13 12.747 13z"/><path fill="#fff" d="M12.24 7.293v11.4h3.557v-1.018H13.26V7.293h-1.02zm-3.564 3.112c.843 0 1.525-.696 1.525-1.564 0-.867-.682-1.556-1.525-1.556-.844 0-1.526.696-1.526 1.556 0 .86.682 1.564 1.526 1.564z"/><path fill="#fff" d="M13.261 2.124c-.132 0-.389-.007-.513-.007C6.866 2.117 2.076 7 2.076 13a10.96 10.96 0 0 0 3.125 7.697c2.017 2.057 4.694 3.186 7.547 3.186 2.853 0 5.53-1.13 7.547-3.186A10.946 10.946 0 0 0 23.419 13v-.494H15.8v1.01h6.6v.15c-.344 5.13-4.54 9.2-9.659 9.2-2.581 0-5.009-1.032-6.835-2.895a9.905 9.905 0 0 1-2.839-6.979 9.886 9.886 0 0 1 2.839-6.978 9.497 9.497 0 0 1 6.834-2.887c.118 0 .39 0 .514.007V2.117l.007.007z"/><path fill="#6B6C6C" d="M35.13 4.428h-3.835v16.934h11.779v-3.298h-7.943V4.428zm16.387 10.479h3.124v2.962c-.579.225-1.701.45-2.765.45-3.454 0-4.606-1.789-4.606-5.424 0-3.635 1.1-5.505 4.548-5.505 1.921 0 3.014.613 3.916 1.788l2.384-2.237c-1.452-2.124-4.005-2.767-6.388-2.767-5.37 0-8.193 2.992-8.193 8.691 0 5.7 2.553 8.744 8.163 8.744 2.575 0 5.098-.673 6.47-1.645V11.75h-6.66v3.156h.007zm14.104 1.422h-4.055v2.229h6.476c1.797 0 3.894-.42 5.024-1.1v-2.266c-1.144.658-2.927 1.137-4.628 1.137v-2.027H65.62v2.027zm6.63-8.834h-10.73v2.214h10.73V7.495zm-3.718 4.129c0 .845-.447 1.443-1.525 1.443-1.078 0-1.563-.606-1.563-1.443 0-.838.47-1.429 1.563-1.429 1.092 0 1.525.569 1.525 1.429zm.932-7.24h-1.937c-1.166 0-2.581-.203-3.263-.48l-.411 2.304c.77.24 2.06.382 2.978.382h2.633V4.376v.007zm9.08 5.026h-2.707V4.234h-2.867v17.069h2.515c.235-1.01.36-2.506.36-3.86v-5.58h2.706V9.41h-.007zm-15.828 2.303c0 2.05 1.24 3.329 4.247 3.329 3.007 0 4.268-1.279 4.268-3.329 0-1.922-1.628-3.276-4.268-3.276-2.64 0-4.247 1.354-4.247 3.277zm23.338-.508c0 .733-.462 1.316-1.526 1.316-1.114 0-1.54-.583-1.54-1.316 0-.733.433-1.302 1.54-1.302 1.108 0 1.526.584 1.526 1.302zM96 8.055h-2.728v-3.82H90.42v10.262h2.853v-4.062H96V8.056zm-2.728 7.286H82.153v2.252h8.266V21.4h2.53c.235-.95.323-2.237.323-3.074V15.34zm-12.85-4.061c0 1.922 1.188 3.216 4.108 3.216 2.919 0 4.121-1.316 4.121-3.216 0-1.758-1.576-3.15-4.121-3.15-2.546 0-4.108 1.392-4.108 3.15zm9.264-3.972H79.19V9.47h10.496V7.308zM87.082 4.27h-1.958c-1.167 0-2.53-.202-3.3-.494l-.397 2.327c.77.276 2.01.381 2.816.381h2.839V4.271z"/></g><defs><clipPath id="clip0_3038_107003"><path fill="#fff" d="M0 0h96v26H0z"/></clipPath></defs></svg>