<svg xmlns="http://www.w3.org/2000/svg" width="100" height="26" fill="none" viewBox="0 0 100 26"><g fill="#005386" clip-path="url(#clip0_4011_128967)"><path d="M78.985 12.438c-1.394 3.894-4.706 6.295-8.964 6.295-5.272 0-9.416-4.009-9.416-9.367C60.605 4.01 64.75 0 70.022 0c4.37 0 8.022 2.736 9.19 6.594.225 1.048-.114 1.162-.677 1.272-.603.114-1.505 0-2.07-.338-.603-.338-1.508-1.61-1.508-1.61-1.017-1.725-2.862-2.736-4.935-2.736-3.316 0-6.1 2.846-6.1 6.182 0 3.335 2.787 6.144 6.1 6.144 2.299 0 4.144-1.235 5.272-3.07 0 0 .565-1.012 1.959-1.387 1.508-.338 1.845.114 1.845.114s.34.113-.115 1.273h.003zM30.173 3.185c3.353 0 6.1 2.846 6.1 6.181 0 3.336-2.75 6.145-6.1 6.145v3.222c5.31 0 9.416-4.009 9.416-9.367C39.589 4.01 35.485 0 30.173 0v3.185zm0 12.326c-3.315 0-6.063-2.846-6.063-6.145 0-3.298 2.75-6.181 6.063-6.181V0c-5.271 0-9.415 3.972-9.415 9.366 0 5.395 4.143 9.367 9.415 9.367v-3.222zM90.585 3.185c3.316 0 6.063 2.846 6.063 6.181 0 3.336-2.75 6.145-6.063 6.145v3.222c5.272 0 9.416-4.009 9.416-9.367C100.001 4.01 95.857 0 90.585 0v3.185zm0 0V0c-5.311 0-9.415 3.972-9.415 9.366 0 5.395 4.104 9.367 9.415 9.367v-3.222c-3.352 0-6.102-2.846-6.102-6.145 0-3.298 2.75-6.181 6.102-6.181zm-36.308 7.866c1.168.114 1.393.6 1.053 1.5-.676 1.725-3.087 3.071-5.271 3.071-2.525 0-3.804-1.236-4.82-2.287-.943-1.011-2.788-1.125-3.354-.898-.565.225-.34 1.126-.114 1.611 1.62 2.96 4.935 4.685 8.173 4.685 3.427.11 6.403-1.61 8.248-4.457 1.733-2.847 1.017-6.407-3.087-6.407l-9.19-.11c-1.394 0-1.508-.787-1.168-1.725.942-1.685 3.013-2.96 5.537-2.96 2.525 0 3.653 1.5 4.48 2.284.903.787 2.637 1.011 3.428.673.451-.224.34-.787 0-1.46C56.687 1.685 53.372 0 50.056 0c-2.899 0-6.1 1.236-8.06 4.196-1.581 2.548-1.467 6.744 4.256 6.744l8.022.111h.003zM9.42 18.733c5.272 0 9.416-4.009 9.416-9.367C18.836 4.01 14.696 0 9.421 0v3.185c3.315 0 6.063 2.735 6.063 6.181 0 3.447-2.75 6.145-6.063 6.145v3.222zM9.42 0C4.113 0 .006 3.972.006 9.366v12.401s-.114 1.61.566 2.736c.565.787 1.393 1.386 2.184 1.497.566-.11.677-.824.677-.824v-8.505c1.62 1.235 3.69 2.06 5.989 2.06v-3.223c-3.353 0-6.1-2.846-6.1-6.144 0-3.299 2.75-6.182 6.1-6.182V0z"/></g><defs><clipPath id="clip0_4011_128967"><path fill="#fff" d="M0 0h100v26H0z"/></clipPath></defs></svg>