<svg width="24" height="24" viewBox="0 0 24 24" fill="none" xmlns="http://www.w3.org/2000/svg">
<g clip-path="url(#clip0_3033_78680)">
<path d="M12.0701 12.6364C13.0828 12.6364 14.054 12.2341 14.77 11.518C15.486 10.802 15.8883 9.83083 15.8883 8.81818C15.8883 7.80554 15.486 6.83437 14.77 6.11832C14.054 5.40227 13.0828 5 12.0701 5C11.0575 5 10.0863 5.40227 9.37027 6.11832C8.65422 6.83437 8.25195 7.80554 8.25195 8.81818C8.25195 9.83083 8.65422 10.802 9.37027 11.518C10.0863 12.2341 11.0575 12.6364 12.0701 12.6364Z" stroke="#38383D" stroke-width="1.5" stroke-linecap="round" stroke-linejoin="round"/>
<path d="M5 19.3313V18.014C5 16.7617 5.49748 15.5607 6.38299 14.6752C7.2685 13.7897 8.46952 13.2922 9.72182 13.2922H14.2782C15.5305 13.2922 16.7315 13.7897 17.617 14.6752C18.5025 15.5607 19 16.7617 19 18.014V19.3313" stroke="#38383D" stroke-width="1.5" stroke-linecap="round" stroke-linejoin="round"/>
</g>
<defs>
<clipPath id="clip0_3033_78680">
<rect width="24" height="24" fill="white"/>
</clipPath>
</defs>
</svg>
