<svg width="320" height="260" viewBox="0 0 320 260" fill="none" xmlns="http://www.w3.org/2000/svg">
    <path d="M197 26L197 76.75L255.252 76.75V120.25L197 120.25L197 171H276.861C296.268 171 312 153.147 312 131.125C312 117.639 306.1 105.716 297.07 98.5C306.1 91.2836 312 79.3611 312 65.875C312 43.8527 296.268 26 276.861 26L197 26Z" fill="#FFE18B"/>
    <path d="M296.897 171.826L307.508 165.58C306.073 163.133 304.238 160.944 302.081 159.101L282.063 165.336L297.751 156.13C293.868 154.006 289.497 152.929 285.07 153.004C280.642 153.078 276.311 154.302 272.501 156.555C268.692 158.808 265.536 162.012 263.344 165.852C261.152 169.692 259.999 174.035 260 178.454C260 192.513 271.414 193 285.5 193C299.586 193 311 192.513 311 178.454C311.005 174.898 310.259 171.38 308.81 168.13L296.897 171.826Z" fill="#FA751E"/>
    <path opacity="0.1" d="M299.506 185.394C298.38 184.249 297.121 183.245 295.758 182.406C293.834 181.112 291.849 179.794 289.583 179.352C287.592 178.965 285.541 179.29 283.501 179.178C279.982 178.958 276.669 177.417 274.208 174.856C272.765 173.343 271.626 171.493 269.89 170.322C268.016 169.078 265.639 168.808 263.417 169.117C262.773 169.215 262.134 169.348 261.504 169.515C260.506 172.321 259.997 175.281 260 178.264C260 192.507 271.383 193 285.431 193C292.247 193 298.434 192.882 303 191.133L302.237 189.687C301.509 188.145 300.592 186.702 299.506 185.394Z" fill="black"/>
    <mask id="mask0_3033_81122" style="mask-type:alpha" maskUnits="userSpaceOnUse" x="197" y="26" width="115" height="145">
        <path d="M197 26L197 76.75L255.103 76.75V120.25L197 120.25L197 171H276.631C295.982 171 311.668 153.147 311.668 131.125C311.668 117.639 305.786 105.716 296.781 98.5C305.786 91.2836 311.668 79.3611 311.668 65.875C311.668 43.8527 295.982 26 276.631 26L197 26Z" fill="#FFE18B"/>
    </mask>
    <g mask="url(#mask0_3033_81122)">
        <path opacity="0.2" d="M320.068 141.36V236.006H319.072V236.102H180.246V120.471C181.136 119.461 182.039 118.413 182.954 117.327C202.45 94.1801 228.951 88.0887 249.461 87.4499C263.515 86.9936 277.504 89.8819 290.859 95.6174C297.914 98.6471 308.038 101.969 319.072 102.297V138.079C319.746 139.991 320.068 141.36 320.068 141.36Z" fill="#FF6948"/>
        <path opacity="0.2" d="M320.068 141.862V236.102H180.246V174.368C185.226 173.128 192.179 168.358 201.101 155.178C211.772 139.408 226.27 135.26 237.492 134.824C245.179 134.524 252.835 136.478 260.141 140.39C268.361 144.783 284.205 150.08 296.243 134.701C309.553 117.696 316.63 131.721 319.072 138.595C319.746 140.499 320.068 141.862 320.068 141.862Z" fill="#FF6948"/>
    </g>
    <path d="M211.181 49.2652L204.197 53.6676L208.436 46.0037C207.234 45.0503 205.747 44.5228 204.21 44.5049H204.098C203.613 44.512 203.128 44.476 202.649 44.3975L200.282 45.8874L201.299 44.0531C199.62 43.4723 198.17 42.3754 197.159 40.9213L192.92 43.6057L195.598 38.7693C193.118 35.812 189.779 34 186.107 34C181.702 34 177.778 36.6039 175.245 40.6618C174.495 41.8802 173.434 42.8787 172.169 43.5548C170.903 44.2309 169.48 44.5604 168.045 44.5094H167.806C162.942 44.5094 159 49.99 159 56.7547C159 63.5194 162.942 69 167.806 69C168.876 68.995 169.929 68.7325 170.875 68.235C172.53 67.4342 174.34 67.001 176.18 66.9654C178.02 66.9299 179.846 67.2929 181.531 68.0291C182.957 68.6632 184.501 68.9909 186.062 68.9909C187.624 68.9909 189.168 68.6632 190.594 68.0291C192.267 67.308 194.076 66.9532 195.899 66.9887C197.722 67.0242 199.516 67.4493 201.16 68.235C202.096 68.7221 203.136 68.9783 204.192 68.9821C209.057 68.9821 212.999 63.497 212.999 56.7368C213.032 54.1342 212.407 51.5649 211.181 49.2652Z" fill="#F2F2F2"/>
    <mask id="mask1_3033_81122" style="mask-type:alpha" maskUnits="userSpaceOnUse" x="159" y="34" width="54" height="35">
        <path d="M211.181 49.2652L204.197 53.6676L208.436 46.0037C207.234 45.0503 205.747 44.5228 204.21 44.5049H204.098C203.613 44.512 203.128 44.476 202.649 44.3975L200.282 45.8874L201.299 44.0531C199.62 43.4723 198.17 42.3754 197.159 40.9213L192.92 43.6057L195.598 38.7693C193.118 35.812 189.779 34 186.107 34C181.702 34 177.778 36.6039 175.245 40.6618C174.495 41.8802 173.434 42.8787 172.169 43.5548C170.903 44.2309 169.48 44.5604 168.045 44.5094H167.806C162.942 44.5094 159 49.99 159 56.7547C159 63.5194 162.942 69 167.806 69C168.876 68.995 169.929 68.7325 170.875 68.235C172.53 67.4342 174.34 67.001 176.18 66.9654C178.02 66.9299 179.846 67.2929 181.531 68.0291C182.957 68.6632 184.501 68.9909 186.062 68.9909C187.624 68.9909 189.168 68.6632 190.594 68.0291C192.267 67.308 194.076 66.9532 195.899 66.9887C197.722 67.0242 199.516 67.4493 201.16 68.235C202.096 68.7221 203.136 68.9783 204.192 68.9821C209.057 68.9821 212.999 63.497 212.999 56.7368C213.032 54.1342 212.407 51.5649 211.181 49.2652Z" fill="#F2F2F2"/>
    </mask>
    <g mask="url(#mask1_3033_81122)">
        <path opacity="0.03" d="M199 68.1224C196.397 67.6193 193.706 67.9174 191.271 68.9788C189.807 69.6443 188.223 69.9882 186.621 69.9882C185.019 69.9882 183.434 69.6443 181.971 68.9788C180.242 68.206 178.368 67.8256 176.48 67.8638C174.593 67.902 172.735 68.3579 171.037 69.2C170.066 69.7214 168.986 69.9958 167.888 70C163.456 70 159.766 65.4494 159 59.4447C159.884 58.7846 160.636 57.9589 161.216 57.0118C163.816 52.7388 167.842 50 172.363 50C176.883 50 180.858 52.7059 183.444 56.9318C184.222 58.2028 185.309 59.2477 186.599 59.9657C187.889 60.6837 189.339 61.0505 190.809 61.0306H190.924C194.457 61.0306 197.513 63.9153 199 68.1224Z" fill="black"/>
    </g>
    <path d="M312.821 30.0314L308.294 32.9245L311.042 27.8882C310.263 27.2616 309.299 26.915 308.303 26.9032H308.23C307.916 26.9079 307.601 26.8843 307.291 26.8327L305.757 27.8117L306.416 26.6063C305.328 26.2246 304.388 25.5039 303.733 24.5483L300.985 26.3123L302.721 23.1341C301.114 21.1907 298.95 20 296.57 20C293.714 20 291.171 21.7111 289.529 24.3777C289.043 25.1784 288.355 25.8346 287.535 26.2789C286.715 26.7232 285.793 26.9397 284.862 26.9062H284.708C281.555 26.9062 279 30.5077 279 34.9531C279 39.3984 281.555 43 284.708 43C285.401 42.9967 286.084 42.8242 286.697 42.4973C287.769 41.971 288.943 41.6864 290.135 41.663C291.328 41.6397 292.511 41.8782 293.603 42.362C294.527 42.7787 295.528 42.9941 296.54 42.9941C297.553 42.9941 298.553 42.7787 299.477 42.362C300.562 41.8881 301.735 41.655 302.916 41.6783C304.098 41.7016 305.261 41.9809 306.326 42.4973C306.932 42.8174 307.607 42.9857 308.291 42.9882C311.444 42.9882 313.999 39.3837 313.999 34.9413C314.021 33.231 313.616 31.5427 312.821 30.0314Z" fill="#F2F2F2"/>
    <mask id="mask2_3033_81122" style="mask-type:alpha" maskUnits="userSpaceOnUse" x="279" y="20" width="35" height="23">
        <path d="M312.821 30.0314L308.294 32.9245L311.042 27.8882C310.263 27.2616 309.299 26.915 308.303 26.9032H308.23C307.916 26.9079 307.601 26.8843 307.291 26.8327L305.757 27.8117L306.416 26.6063C305.328 26.2246 304.388 25.5039 303.733 24.5483L300.985 26.3123L302.721 23.1341C301.114 21.1907 298.95 20 296.57 20C293.714 20 291.171 21.7111 289.529 24.3777C289.043 25.1784 288.355 25.8346 287.535 26.2789C286.715 26.7232 285.793 26.9397 284.862 26.9062H284.708C281.555 26.9062 279 30.5077 279 34.9531C279 39.3984 281.555 43 284.708 43C285.401 42.9967 286.084 42.8242 286.697 42.4973C287.769 41.971 288.943 41.6864 290.135 41.663C291.328 41.6397 292.511 41.8782 293.603 42.362C294.527 42.7787 295.528 42.9941 296.54 42.9941C297.553 42.9941 298.553 42.7787 299.477 42.362C300.562 41.8881 301.735 41.655 302.916 41.6783C304.098 41.7016 305.261 41.9809 306.326 42.4973C306.932 42.8174 307.607 42.9857 308.291 42.9882C311.444 42.9882 313.999 39.3837 313.999 34.9413C314.021 33.231 313.616 31.5427 312.821 30.0314Z" fill="#F2F2F2"/>
    </mask>
    <g mask="url(#mask2_3033_81122)">
        <path opacity="0.03" d="M305 42.7795C303.308 42.4525 301.559 42.6463 299.976 43.3362C299.025 43.7688 297.995 43.9923 296.954 43.9923C295.912 43.9923 294.882 43.7688 293.931 43.3362C292.807 42.8339 291.589 42.5866 290.362 42.6114C289.135 42.6363 287.928 42.9326 286.824 43.48C286.193 43.8189 285.491 43.9973 284.777 44C281.896 44 279.498 41.0421 279 37.1391C279.574 36.71 280.063 36.1733 280.441 35.5576C282.13 32.7802 284.747 31 287.686 31C290.624 31 293.208 32.7588 294.889 35.5056C295.394 36.3318 296.101 37.011 296.939 37.4777C297.778 37.9444 298.72 38.1828 299.676 38.1699H299.751C302.047 38.1699 304.034 40.0449 305 42.7795Z" fill="black"/>
    </g>
    <path d="M289.225 61.5422L286.251 63.429L288.056 60.1444C287.544 59.7358 286.911 59.5098 286.256 59.5021H286.208C286.002 59.5051 285.795 59.4897 285.591 59.4561L284.583 60.0946L285.016 59.3085C284.301 59.0595 283.683 58.5895 283.253 57.9663L281.447 59.1167L282.588 57.044C281.532 55.7766 280.11 55 278.546 55C276.669 55 274.998 56.1159 273.919 57.855C273.6 58.3772 273.148 58.8051 272.609 59.0949C272.07 59.3847 271.464 59.5259 270.852 59.504H270.751C268.679 59.504 267 61.8529 267 64.752C267 67.6512 268.679 70 270.751 70C271.207 69.9979 271.655 69.8854 272.058 69.6721C272.763 69.3289 273.534 69.1433 274.318 69.128C275.101 69.1128 275.879 69.2684 276.597 69.5839C277.204 69.8557 277.861 69.9961 278.527 69.9961C279.192 69.9961 279.849 69.8557 280.457 69.5839C281.169 69.2749 281.94 69.1228 282.716 69.138C283.493 69.1532 284.257 69.3354 284.957 69.6721C285.356 69.8809 285.799 69.9907 286.249 69.9923C288.32 69.9923 289.999 67.6416 289.999 64.7443C290.014 63.6289 289.747 62.5278 289.225 61.5422Z" fill="#F2F2F2"/>
    <mask id="mask3_3033_81122" style="mask-type:alpha" maskUnits="userSpaceOnUse" x="267" y="55" width="23" height="15">
        <path d="M289.225 61.5422L286.251 63.429L288.056 60.1444C287.544 59.7358 286.911 59.5098 286.256 59.5021H286.208C286.002 59.5051 285.795 59.4897 285.591 59.4561L284.583 60.0946L285.016 59.3085C284.301 59.0595 283.683 58.5895 283.253 57.9663L281.447 59.1167L282.588 57.044C281.532 55.7766 280.11 55 278.546 55C276.669 55 274.998 56.1159 273.919 57.855C273.6 58.3772 273.148 58.8051 272.609 59.0949C272.07 59.3847 271.464 59.5259 270.852 59.504H270.751C268.679 59.504 267 61.8529 267 64.752C267 67.6512 268.679 70 270.751 70C271.207 69.9979 271.655 69.8854 272.058 69.6721C272.763 69.3289 273.534 69.1433 274.318 69.128C275.101 69.1128 275.879 69.2684 276.597 69.5839C277.204 69.8557 277.861 69.9961 278.527 69.9961C279.192 69.9961 279.849 69.8557 280.457 69.5839C281.169 69.2749 281.94 69.1228 282.716 69.138C283.493 69.1532 284.257 69.3354 284.957 69.6721C285.356 69.8809 285.799 69.9907 286.249 69.9923C288.32 69.9923 289.999 67.6416 289.999 64.7443C290.014 63.6289 289.747 62.5278 289.225 61.5422Z" fill="#F2F2F2"/>
    </mask>
    <g mask="url(#mask3_3033_81122)">
        <path opacity="0.03" d="M284 70.1551C282.894 69.9287 281.75 70.0628 280.715 70.5405C280.093 70.8399 279.42 70.9947 278.739 70.9947C278.058 70.9947 277.385 70.8399 276.763 70.5405C276.028 70.1927 275.232 70.0215 274.429 70.0387C273.627 70.0559 272.838 70.261 272.116 70.64C271.703 70.8746 271.244 70.9981 270.778 71C268.894 71 267.326 68.9522 267 66.2501C267.376 65.953 267.695 65.5815 267.942 65.1553C269.047 63.2325 270.758 62 272.679 62C274.6 62 276.29 63.2176 277.389 65.1193C277.719 65.6912 278.181 66.1615 278.73 66.4846C279.278 66.8077 279.894 66.9727 280.519 66.9638H280.568C282.069 66.9638 283.368 68.2619 284 70.1551Z" fill="black"/>
    </g>
    <path d="M31.9788 201.507V210.562H49.334V222.333H17.334V169H49.334V180.771H31.9788V189.826" fill="#1B1C1E"/>
    <path d="M140 182.333H134.667C134.667 182.333 130.657 182.149 128.415 182.153C126.481 182.148 124.566 182.509 122.776 183.217C121.134 183.907 119.64 184.889 118.371 186.111C117.114 187.334 116.112 188.779 115.42 190.367C114.009 193.916 114.009 197.843 115.42 201.391C116.112 202.98 117.114 204.425 118.371 205.648C119.617 206.907 121.116 207.906 122.776 208.585C124.512 209.316 126.389 209.679 128.283 209.649C130.509 209.619 134.667 209.649 134.667 209.649H140L139.956 219.822L138.59 220.29C136.691 220.939 134.748 221.465 132.776 221.865C131.016 222.167 129.233 222.323 127.446 222.333C123.909 222.347 120.406 221.681 117.138 220.375C113.854 219.106 110.861 217.226 108.328 214.842C105.784 212.393 103.737 209.506 102.293 206.329C100.758 202.949 99.9772 199.294 100.002 195.603C99.9529 191.941 100.719 188.312 102.249 184.962C103.664 181.77 105.715 178.877 108.284 176.449C110.821 174.091 113.815 172.24 117.094 171.001C120.403 169.673 123.951 168.993 127.534 169C129.593 169 131.645 169.214 133.657 169.639C135.807 170.128 137.913 170.783 139.956 171.596L140 182.333Z" fill="#1B1C1E"/>
    <path d="M99.9993 222.333H82.3364L68.824 201.85V222.333H54.666V169.004H76.6179C79.322 168.955 82.0116 169.398 84.5499 170.312C86.6578 171.105 88.5739 172.319 90.1764 173.876C91.6408 175.378 92.7712 177.16 93.4967 179.11C94.2481 181.165 94.6231 183.334 94.6037 185.517C94.7772 189.033 93.7197 192.503 91.606 195.353C89.3654 198.034 86.2299 199.855 82.7515 200.496L99.9993 222.333ZM68.824 192.871H71.4989C73.7852 193.009 76.0541 192.407 77.9552 191.157C78.6553 190.543 79.2153 189.792 79.5987 188.952C79.9821 188.113 80.1802 187.204 80.1802 186.284C80.1802 185.364 79.9821 184.455 79.5987 183.616C79.2153 182.776 78.6553 182.025 77.9552 181.411C76.0631 180.142 73.7873 179.538 71.4989 179.697H68.824V192.871Z" fill="#1B1C1E"/>
    <path d="M45.5936 201H4L7.73977 190.333H49.3333L45.5936 201Z" fill="#FF824D"/>
    <path d="M163.999 222.333H126.666V209.562H163.999V222.333Z" fill="#FF824D"/>
    <path d="M139.999 182.333H126.666V169H139.999V182.333Z" fill="#FF824D"/>
    <path d="M225.371 124.255C225.371 124.255 227.59 108.032 231.288 112.456C234.986 116.881 231.288 123.517 231.288 123.517L228.329 127.204L225.371 124.992V124.255Z" fill="#E79787"/>
    <path d="M216.495 129.417C216.495 129.417 223.892 121.306 225.371 122.781C226.85 124.255 231.288 124.993 230.548 127.942C229.809 130.892 214.276 140.478 214.276 140.478L216.495 129.417Z" fill="#E36817"/>
    <path d="M174.335 128.679V134.579C174.335 134.579 173.595 147.852 178.033 147.115C182.471 146.377 180.252 135.316 180.252 135.316L179.512 128.679L174.335 128.679Z" fill="#E79787"/>
    <path d="M176.554 171.449C176.554 171.449 169.898 181.773 167.679 182.511C165.46 183.248 153.626 189.885 152.147 196.521L141.792 209.795L146.969 216.432C146.969 216.432 170.637 191.36 177.294 189.147C183.951 186.935 190.607 175.874 190.607 175.874L176.554 171.449Z" fill="#E79787"/>
    <path d="M229.069 154.489C229.069 154.489 243.122 156.701 240.903 165.55C238.684 174.399 217.235 192.834 217.235 192.834L216.495 197.259L208.359 198.734L204.661 195.047L205.401 192.834C205.401 192.834 214.276 184.723 215.016 181.773C215.756 178.824 223.891 167.025 227.59 166.288L222.412 163.338L229.069 154.489Z" fill="#E79787"/>
    <path d="M144.011 209.795C144.011 209.795 146.969 205.37 142.532 206.108C138.094 206.845 135.135 207.582 135.135 210.532C135.135 213.482 138.833 234.129 143.271 232.654C147.709 231.18 144.011 224.543 144.011 224.543C144.011 224.543 146.23 218.644 147.709 217.906C149.188 217.169 149.188 213.482 147.709 213.482C146.23 213.482 143.271 211.27 144.011 209.795Z" fill="#2A2B2E"/>
    <path d="M206.879 193.572C206.879 193.572 206.879 189.885 203.921 193.572C200.962 197.259 199.483 200.208 202.441 202.421C205.4 204.633 215.755 209.795 215.755 209.795C215.755 209.795 226.849 212.007 225.37 206.845C225.37 206.845 217.974 203.158 217.974 200.208C217.974 197.259 217.974 192.097 215.755 193.572C213.536 195.047 206.879 195.784 206.879 193.572Z" fill="#2A2B2E"/>
    <path d="M192.827 138.266C192.827 138.266 182.472 139.74 183.212 154.489C183.212 154.489 169.898 167.762 173.596 172.187C177.295 176.611 185.431 184.722 188.389 182.51C191.348 180.298 200.223 163.338 200.223 163.338C200.223 163.338 220.933 170.712 224.631 167.025C228.329 163.338 232.027 154.489 232.027 154.489L213.537 144.902L192.827 138.266Z" fill="#2A2B2E"/>
    <path d="M221.671 96.2335C216.769 96.2335 212.796 92.2717 212.796 87.3846C212.796 82.4975 216.769 78.5356 221.671 78.5356C226.573 78.5356 230.547 82.4975 230.547 87.3846C230.547 92.2717 226.573 96.2335 221.671 96.2335Z" fill="#E79787"/>
    <path d="M215.016 88.1218C215.016 88.1218 209.838 96.2333 208.359 96.9708C206.88 97.7082 218.714 105.082 218.714 105.082C218.714 105.082 218.714 95.4959 222.412 93.2837L215.016 88.1218Z" fill="#E79787"/>
    <path d="M214.276 96.2337C214.276 96.2337 202.442 92.5466 200.223 98.4459C198.004 104.345 192.827 115.406 193.566 122.78C194.306 130.155 195.785 128.68 193.566 130.892C191.348 133.104 189.868 131.629 190.608 134.579C191.348 137.529 192.087 137.529 191.348 139.004C190.608 140.478 200.223 145.64 208.359 146.378L216.495 147.115C216.495 147.115 216.495 133.842 217.974 130.892C219.454 127.942 222.412 122.043 222.412 119.831V113.977C222.412 110.082 221.392 106.253 219.454 102.87C219.454 102.87 215.016 96.2337 214.276 96.2337Z" fill="#FA751E"/>
    <path d="M205.401 99.1833C205.401 99.1833 178.035 101.396 175.076 108.77C172.118 116.144 170.638 130.892 173.597 130.892C176.555 130.892 180.254 132.367 180.993 130.892C181.733 129.417 184.691 114.669 185.431 114.669C186.171 114.669 208.36 112.457 208.36 112.457C208.36 112.457 217.975 100.658 205.401 99.1833Z" fill="#FA751E"/>
    <path d="M222.029 85.1909C222.029 85.1909 224.384 81.11 227.328 84.6546C230.272 88.1992 235.062 81.6854 234.327 80.2955C233.591 78.9056 230.995 80.358 226.545 78.9078C222.096 77.4576 213.524 74.5032 212.089 84.1405C210.653 93.7777 214.072 92.7674 214.072 92.7674C214.072 92.7674 215.639 84.2278 217.056 86.6807L218.472 89.1337L219.701 89.4351L222.029 85.1909Z" fill="#2A2B2E"/>
</svg>
