<svg width="26" height="26" viewBox="0 0 26 26" fill="none" xmlns="http://www.w3.org/2000/svg">
<g id="search">
<path id="Union" fill-rule="evenodd" clip-rule="evenodd" d="M3.25 11.2407C3.25 6.82754 6.82754 3.25 11.2406 3.25C15.6537 3.25 19.2313 6.82754 19.2313 11.2407C19.2313 15.6538 15.6537 19.2313 11.2406 19.2313C6.82754 19.2313 3.25 15.6538 3.25 11.2407ZM11.2406 0.25C5.17067 0.25 0.25 5.17069 0.25 11.2407C0.25 17.3106 5.17067 22.2313 11.2406 22.2313C13.7348 22.2313 16.0348 21.4006 17.8792 20.0006L23.1855 25.3069C23.7712 25.8926 24.721 25.8926 25.3068 25.3069C25.8926 24.7211 25.8926 23.7713 25.3068 23.1855L20.0006 17.8793C21.4005 16.0349 22.2313 13.7348 22.2313 11.2407C22.2313 5.17069 17.3106 0.25 11.2406 0.25Z" fill="#38383D"/>
</g>
</svg>
