<svg width="214" height="242" viewBox="0 0 214 242" fill="none" xmlns="http://www.w3.org/2000/svg">
<g id="Group 8162600">
<path id="Vector" d="M145.216 15.9102H23.9901C17.175 15.9102 11.6504 21.4348 11.6504 28.2498V149.475C11.6504 156.29 17.175 161.815 23.9901 161.815H145.216C152.031 161.815 157.555 156.29 157.555 149.475V28.2498C157.555 21.4348 152.031 15.9102 145.216 15.9102Z" fill="#FDF6F4"/>
<path id="Vector_2" d="M62.3195 185.245H95.1699C101.388 185.245 106.435 190.291 106.435 196.51V229.36C106.435 235.579 101.388 240.625 95.1699 240.625H62.3195C56.1011 240.625 51.0547 235.579 51.0547 229.36V196.51C51.0547 190.291 56.1011 185.245 62.3195 185.245Z" fill="#FF9148"/>
<path id="Vector_3" d="M138.678 160.215L84.4048 105.942L133.154 57.1934C136.2 54.1473 141.156 54.1473 144.202 57.1934L192.951 105.942L138.678 160.215Z" fill="#2A2B2E" stroke="#2A2B2E" stroke-width="0.5" stroke-miterlimit="10" stroke-linecap="round"/>
<path id="Vector_4" d="M138.674 136.351L84.4009 82.0779L133.15 33.3289C136.196 30.2828 141.152 30.2828 144.198 33.3289L192.947 82.0779L138.674 136.351Z" stroke="#2A2B2E" stroke-width="0.5" stroke-miterlimit="10" stroke-linecap="round"/>
<g id="Vector_5">
<path d="M64.9004 178.329V216.356C64.9004 222.699 70.0095 227.845 76.3075 227.845H201.528C207.826 227.845 212.935 222.699 212.935 216.356V90.2343C212.935 83.891 207.826 78.7451 201.528 78.7451H76.3075C70.0095 78.7451 64.9004 83.891 64.9004 90.2343V169.283" fill="white"/>
<path d="M64.9004 178.329V216.356C64.9004 222.699 70.0095 227.845 76.3075 227.845H201.528C207.826 227.845 212.935 222.699 212.935 216.356V90.2343C212.935 83.891 207.826 78.7451 201.528 78.7451H76.3075C70.0095 78.7451 64.9004 83.891 64.9004 90.2343V169.283" stroke="#2A2B2E" stroke-width="0.5" stroke-miterlimit="10" stroke-linecap="round"/>
</g>
<path id="Vector_6" d="M207.611 28.6902C211.14 28.6902 214.001 25.8293 214.001 22.3002C214.001 18.7711 211.14 15.9102 207.611 15.9102C204.082 15.9102 201.221 18.7711 201.221 22.3002C201.221 25.8293 204.082 28.6902 207.611 28.6902Z" fill="#FF9148"/>
<path id="Vector_7" d="M11.1175 135.19C16.7052 135.19 21.235 130.66 21.235 125.073C21.235 119.485 16.7052 114.955 11.1175 114.955C5.52976 114.955 1 119.485 1 125.073C1 130.66 5.52976 135.19 11.1175 135.19Z" fill="white" stroke="#2A2B2E" stroke-width="0.5" stroke-miterlimit="10" stroke-linecap="round"/>
<path id="Vector_8" d="M31.8848 241.69V147.97" stroke="#2A2B2E" stroke-width="0.5" stroke-miterlimit="10" stroke-linecap="round"/>
<g id="Vector_9">
<path d="M85.3092 6.96451C80.2318 2.92011 73.7129 0.657179 66.6494 1.04236C53.131 1.78062 41.9351 12.5978 40.7339 26.1112C39.949 34.9703 43.3446 43.0431 49.1588 48.6121L41.5027 52.5602C39.6127 53.5392 40.3174 56.396 42.4317 56.3799L68.3952 56.2676C83.5313 56.1552 95.7843 43.8295 95.7843 28.6309C95.7843 22.2273 93.622 16.3372 89.9701 11.6509" fill="white"/>
<path d="M85.3092 6.96451C80.2318 2.92011 73.7129 0.657179 66.6494 1.04236C53.131 1.78062 41.9351 12.5978 40.7339 26.1112C39.949 34.9703 43.3446 43.0431 49.1588 48.6121L41.5027 52.5602C39.6127 53.5392 40.3174 56.396 42.4317 56.3799L68.3952 56.2676C83.5313 56.1552 95.7843 43.8295 95.7843 28.6309C95.7843 22.2273 93.622 16.3372 89.9701 11.6509" stroke="#2A2B2E" stroke-width="0.5" stroke-miterlimit="10" stroke-linecap="round"/>
</g>
<path id="Vector_10" d="M67.9532 16.4638L70.6296 21.7113C71.278 22.9951 72.5414 23.8778 74.0043 24.0864L80.0055 24.9209C80.8367 25.0332 81.1692 26.0281 80.5708 26.6058L76.2319 30.698C75.168 31.6929 74.6859 33.1211 74.9352 34.5333L75.9659 40.3104C76.1155 41.1128 75.2345 41.7226 74.4864 41.3535L69.1169 38.6255C67.8036 37.9675 66.2409 37.9675 64.9442 38.6255L59.5747 41.3535C58.8266 41.7387 57.9456 41.1128 58.0952 40.3104L59.1259 34.5333C59.3752 33.1211 58.8931 31.6929 57.8292 30.698L53.4903 26.6058C52.8919 26.0442 53.2244 25.0492 54.0556 24.9209L60.0568 24.0864C61.5197 23.8778 62.7831 22.9951 63.4315 21.7113L66.1079 16.4638C66.4736 15.7256 67.5542 15.7256 67.9366 16.4638H67.9532Z" stroke="#1B1C1E" stroke-width="0.5" stroke-miterlimit="10" stroke-linecap="round"/>
<path id="Vector_11" d="M162.881 194.83C154.648 194.83 147.971 188.391 147.971 180.452C147.971 172.514 154.648 166.075 162.881 166.075C171.113 166.075 177.791 172.514 177.791 180.452C177.791 188.391 171.113 194.83 162.881 194.83Z" fill="white" stroke="#2A2B2E" stroke-width="0.5" stroke-miterlimit="10" stroke-linecap="round"/>
<path id="Vector_12" d="M159.193 130.93H118.641C115.428 130.93 112.824 133.534 112.824 136.746V177.299C112.824 180.511 115.428 183.115 118.641 183.115H159.193C162.405 183.115 165.009 180.511 165.009 177.299V136.746C165.009 133.534 162.405 130.93 159.193 130.93Z" fill="#2A2B2E" stroke="#2A2B2E" stroke-width="0.5" stroke-miterlimit="10" stroke-linecap="round"/>
<path id="Vector_13" d="M147.955 153.233C147.955 147.969 143.672 143.71 138.378 143.71C133.084 143.71 128.801 147.969 128.801 153.233C128.801 156.926 130.918 160.117 134.016 161.704V166.827C134.016 169.357 136.071 171.4 138.615 171.4C141.159 171.4 143.214 169.357 143.214 166.827V161.468C146.059 159.818 147.971 156.753 147.971 153.249L147.955 153.233Z" fill="white" stroke="#2A2B2E" stroke-width="0.5" stroke-miterlimit="10" stroke-linecap="round"/>
</g>
</svg>
