<svg width="239" height="148" viewBox="0 0 239 148" fill="none" xmlns="http://www.w3.org/2000/svg">
<g id="Group 8162599">
<path id="Vector" d="M233.578 141.962C233.578 143.398 233 144.701 232.06 145.642C231.103 146.582 229.816 147.16 228.364 147.16H6.21386C3.32644 147.16 1 144.833 1 141.962C1 140.527 1.57748 139.207 2.51796 138.267C3.47493 137.326 4.7619 136.749 6.21386 136.749H228.364C231.251 136.749 233.578 139.075 233.578 141.962Z" stroke="#2A2B2E" stroke-width="0.5" stroke-miterlimit="10" stroke-linecap="round"/>
<path id="Vector_2" d="M200.117 6.58333V121.552C200.117 125.182 197.197 128.103 193.567 128.103H30.5843C26.9379 128.103 24.001 125.182 24.001 121.552V6.58333C24.001 2.95342 26.9379 0 30.5843 0H193.567C197.197 0 200.117 2.95342 200.117 6.58333Z" fill="#FDF6F4"/>
<path id="Vector_3" d="M160.436 104.64V128.103H30.5843C26.9379 128.103 24.001 125.182 24.001 121.536V104.64H160.436Z" fill="#2A2B2E"/>
<path id="Vector_4" d="M143.373 119.704H117.832V82.9104L143.373 70.6348V119.704Z" fill="#2A2B2E"/>
<path id="Vector_5" d="M160.748 133.581H123.854V66.5593L160.748 48.8223V133.581Z" fill="white"/>
<path id="Vector_6" d="M78.7295 34.4015C78.7295 38.5759 82.1119 41.9583 86.2863 41.9583C90.4607 41.9583 93.8431 38.5759 93.8431 34.4015C93.8431 30.2271 90.4607 26.8447 86.2863 26.8447C82.1119 26.8447 78.7295 30.2271 78.7295 34.4015Z" stroke="#2A2B2E" stroke-width="0.5" stroke-miterlimit="10" stroke-linecap="round"/>
<path id="Vector_7" d="M47.0342 76.0796L72.7405 83.1249V128.152H47.0342V76.0796Z" fill="#FF9148"/>
<g id="Clip path group">
<mask id="mask0_3550_73139" style="mask-type:luminance" maskUnits="userSpaceOnUse" x="24" y="0" width="177" height="129">
<g id="clippath">
<path id="Vector_8" d="M200.134 7.06184V122.014C200.134 125.661 197.213 128.581 193.567 128.581H30.5843C26.9379 128.581 24.001 125.661 24.001 122.014V7.06184C24.001 3.41544 26.9544 0.478516 30.5843 0.478516H193.551C197.197 0.478516 200.117 3.43194 200.117 7.06184H200.134Z" fill="white"/>
</g>
</mask>
<g mask="url(#mask0_3550_73139)">
<g id="Group">
<path id="Vector_9" d="M205.462 9.98218L161.21 39.9454V134.917" stroke="#2A2B2E" stroke-width="0.5" stroke-miterlimit="10" stroke-linecap="round"/>
<path id="Vector_10" d="M154.297 52.551V131.699" stroke="#2A2B2E" stroke-width="0.5" stroke-miterlimit="10" stroke-linecap="round"/>
</g>
</g>
</g>
<path id="Vector_11" d="M144.695 56.5935V25.4094C144.695 25.1784 144.447 25.0134 144.233 25.1289L112.224 42.4204V108.006" stroke="#2A2B2E" stroke-width="0.5" stroke-miterlimit="10" stroke-linecap="round"/>
<path id="Vector_12" d="M144.694 24.8813H182" stroke="#2A2B2E" stroke-width="0.5" stroke-miterlimit="10" stroke-linecap="round"/>
<path id="Vector_13" d="M177.892 129.604H170.913V61.1804L177.892 56.3955V129.604Z" fill="white"/>
<path id="Vector_14" d="M195.365 16.6812H157.053V24.6669H183.403L195.365 16.6812Z" fill="#2A2B2E"/>
<path id="Vector_15" d="M42.9912 38.2954L68.2025 38.2129C68.2025 38.2129 66.1896 26.4652 57.8078 34.3025C57.8078 34.3025 53.9634 29.6827 50.6305 35.54C50.6305 35.54 43.0077 38.0809 43.0077 38.2954H42.9912Z" fill="white"/>
<path id="Vector_16" d="M67.6094 98.354H52.6113V127.707H67.6094V98.354Z" stroke="#2A2B2E" stroke-width="0.5" stroke-miterlimit="10" stroke-linecap="round"/>
<path id="Vector_17" d="M34.1816 126.304V136.319" stroke="#2A2B2E" stroke-width="0.5" stroke-miterlimit="10" stroke-linecap="round"/>
<path id="Vector_18" d="M190.928 128.185V136.319" stroke="#2A2B2E" stroke-width="0.5" stroke-miterlimit="10" stroke-linecap="round"/>
<path id="Vector_19" d="M226.186 71.839C214.125 72.895 199.144 75.8649 185.168 80.1218C172.266 78.0759 152.879 84.6262 136.676 97.7928C129.119 103.947 126.133 109.607 130.126 110.333C134.119 111.058 142.121 105.597 142.121 105.597C142.121 105.597 142.138 105.597 142.187 105.63C134.977 117.84 134.713 132.31 134.713 132.31C134.713 132.31 133.64 135.709 137.666 134.603C141.692 133.498 149.364 117.774 149.364 117.774C149.364 117.774 144.612 128.202 151.377 130.577C152.978 131.138 154.677 130.561 156.311 129.307C160.403 134.042 166.309 131.105 170.731 126.288L168.405 129.571C171.54 132.458 177.711 128.433 181.852 123.648L183.601 124.291C183.601 124.291 192.775 120.034 194.606 107.924C194.606 107.924 214.34 103.766 229.47 101.918L226.219 71.8225L226.186 71.839Z" fill="white"/>
<path id="Vector_20" d="M165.385 112.626C165.385 112.626 173.289 105.795 176.754 111.455C180.218 117.114 165.006 138.547 156.954 128.68" stroke="#2A2B2E" stroke-width="0.5" stroke-miterlimit="10" stroke-linecap="round"/>
<path id="Vector_21" d="M226.713 70.9812C203.531 73.0106 169.542 82.1184 152.63 93.8661C139.776 102.792 134.645 122.262 132.929 131.122C132.335 134.191 135.124 136.93 138.143 136.138C138.176 136.138 138.226 136.121 138.259 136.105C142.284 135.016 149.891 116.949 149.891 116.949C149.891 116.949 145.139 127.377 151.904 129.753C158.668 132.129 167.265 114.21 164.889 110.003C162.513 105.795 155.88 105.548 150.006 116.619" stroke="#2A2B2E" stroke-width="0.5" stroke-miterlimit="10" stroke-linecap="round"/>
<path id="Vector_22" d="M176.687 117.048C176.687 117.048 182.33 110.234 184.921 114.754C185.696 116.107 185.02 119.325 183.436 121.8C179.74 127.608 172.694 132.211 168.916 128.73" stroke="#2A2B2E" stroke-width="0.5" stroke-miterlimit="10" stroke-linecap="round"/>
<g id="Vector_23">
<path d="M174.113 98.2055C159.742 114.755 142.649 104.756 142.649 104.756C142.649 104.756 134.646 110.217 130.653 109.491C126.661 108.765 129.63 103.089 137.204 96.9516C153.753 83.4879 173.651 76.9211 186.554 79.4125" fill="white"/>
<path d="M174.113 98.2055C159.742 114.755 142.649 104.756 142.649 104.756C142.649 104.756 134.646 110.217 130.653 109.491C126.661 108.765 129.63 103.089 137.204 96.9516C153.753 83.4879 173.651 76.9211 186.554 79.4125" stroke="#2A2B2E" stroke-width="0.5" stroke-miterlimit="10" stroke-linecap="round"/>
</g>
<path id="Vector_24" d="M182.114 123.697C182.114 123.697 193.284 119.209 195.116 107.099C195.116 107.099 214.849 102.941 229.98 101.093" stroke="#2A2B2E" stroke-width="0.5" stroke-miterlimit="10" stroke-linecap="round"/>
<path id="Vector_25" d="M196.784 72.2021C196.784 72.2021 192.643 74.281 195.002 83.1578C197.378 92.0346 197.955 108.617 204.473 108.617C210.99 108.617 226.384 104.772 233.199 105.366C240.013 105.96 240.31 70.7336 236.746 67.7637C233.199 64.8103 210.099 65.6848 196.784 72.2021Z" fill="#FF9148"/>
<path id="Vector_26" d="M207.574 97.0505C207.574 98.9149 209.092 100.416 210.94 100.416C212.788 100.416 214.306 98.8984 214.306 97.0505C214.306 95.2025 212.788 93.6846 210.94 93.6846C209.092 93.6846 207.574 95.2025 207.574 97.0505Z" stroke="#2A2B2E" stroke-width="0.5" stroke-miterlimit="10" stroke-linecap="round"/>
<path id="Vector_27" d="M137.716 146.318V147.16H95.8398V146.318C95.8398 144.074 97.6713 142.259 99.9152 142.259H133.657C135.901 142.259 137.716 144.074 137.716 146.318Z" fill="#2A2B2E"/>
</g>
</svg>
