<svg width="226" height="226" viewBox="0 0 226 226" fill="none" xmlns="http://www.w3.org/2000/svg">
<g id="Group 8162601">
<path id="Vector" d="M58.0835 133.189C58.0835 133.189 58.6941 139.327 57.3851 144.29C55.1138 152.888 50.6493 162.431 52.9597 162.582C60.3793 163.06 71.1496 148.636 71.6283 147.92C72.107 147.203 59.6759 153.975 59.6759 153.975C59.6759 153.975 63.1244 131.99 58.0884 133.189H58.0835Z" fill="#FFE3DD"/>
<path id="Vector_2" d="M43.7378 193.174H22.5195V208.534H43.7378V193.174Z" fill="#FFE3DD"/>
<path id="Vector_3" d="M0.225628 124.332C-0.419128 124.98 15.8512 120.762 25.7667 128.4C25.7667 128.4 26.5141 118.818 38.0952 113.693C38.0952 113.693 30.705 109.241 24.4381 117.702C24.4381 117.702 18.1371 110.05 7.2984 113.421C7.2984 113.421 11.587 114.263 17.634 118.794C17.634 118.794 6.33615 118.18 0.230512 124.332H0.225628Z" fill="#FFE3DD"/>
<path id="Vector_4" d="M21.8535 125.896C21.8535 125.896 24.1883 123.816 26.7722 124.401C29.3561 124.985 30.4405 145.274 28.3548 149.766C26.2691 154.257 23.3531 149.434 23.3531 149.434C23.3531 149.434 27.6905 133.632 21.8535 125.901V125.896Z" fill="#F6F7F9" stroke="#38383D" stroke-width="0.5" stroke-miterlimit="10" stroke-linecap="round"/>
<g id="Vector_5">
<path d="M23.7441 129.077L24.7064 129.404C25.4293 129.647 26.2255 129.418 26.7042 128.829L28.1744 127.021" fill="#F6F7F9"/>
<path d="M23.7441 129.077L24.7064 129.404C25.4293 129.647 26.2255 129.418 26.7042 128.829L28.1744 127.021" stroke="#38383D" stroke-width="0.5" stroke-miterlimit="10" stroke-linecap="round"/>
</g>
<g id="Vector_6">
<path d="M24.8477 133.608L26.4058 134.207C27.2801 134.543 28.2766 134.314 28.9116 133.622L29.0728 133.447" fill="#F6F7F9"/>
<path d="M24.8477 133.608L26.4058 134.207C27.2801 134.543 28.2766 134.314 28.9116 133.622L29.0728 133.447" stroke="#38383D" stroke-width="0.5" stroke-miterlimit="10" stroke-linecap="round"/>
</g>
<path id="Vector_7" d="M184.088 76.9927C184.088 78.8146 185.568 80.2857 187.39 80.2857C189.212 80.2857 190.692 78.8097 190.692 76.9927C190.692 75.1757 189.212 73.6997 187.39 73.6997C185.568 73.6997 184.088 75.1757 184.088 76.9927Z" fill="#F6F7F9" stroke="#38383D" stroke-width="0.5" stroke-miterlimit="10" stroke-linecap="round"/>
<path id="Vector_8" d="M187.547 73.7388V1" stroke="#38383D" stroke-width="0.5" stroke-miterlimit="10" stroke-linecap="round"/>
<path id="Vector_9" d="M189.026 61.2488H185.959C185.12 61.2488 184.439 61.9271 184.439 62.7638V69.9295C184.439 70.7662 185.12 71.4445 185.959 71.4445H189.026C189.865 71.4445 190.545 70.7662 190.545 69.9295V62.7638C190.545 61.9271 189.865 61.2488 189.026 61.2488Z" fill="#F6F7F9" stroke="#38383D" stroke-width="0.5" stroke-miterlimit="10" stroke-linecap="round"/>
<path id="Vector_10" d="M197.868 77.0025H176.508C177.206 73.6607 181.72 69.2424 187.185 69.2424C192.651 69.2424 197.164 73.6607 197.868 77.0025Z" fill="#38383D"/>
<path id="Vector_11" d="M36.6504 76.9927C36.6504 78.8146 38.1304 80.2857 39.9523 80.2857C41.7742 80.2857 43.2542 78.8097 43.2542 76.9927C43.2542 75.1757 41.7742 73.6997 39.9523 73.6997C38.1304 73.6997 36.6504 75.1757 36.6504 76.9927Z" fill="#F6F7F9" stroke="#38383D" stroke-width="0.5" stroke-miterlimit="10" stroke-linecap="round"/>
<path id="Vector_12" d="M40.1016 73.7388V1" stroke="#38383D" stroke-width="0.5" stroke-miterlimit="10" stroke-linecap="round"/>
<path id="Vector_13" d="M41.5807 61.2488H38.5132C37.6743 61.2488 36.9941 61.9271 36.9941 62.7638V69.9295C36.9941 70.7662 37.6743 71.4445 38.5132 71.4445H41.5807C42.4197 71.4445 43.0998 70.7662 43.0998 69.9295V62.7638C43.0998 61.9271 42.4197 61.2488 41.5807 61.2488Z" fill="#F6F7F9" stroke="#38383D" stroke-width="0.5" stroke-miterlimit="10" stroke-linecap="round"/>
<path id="Vector_14" d="M50.4283 77.0025H29.0684C29.7668 73.6607 34.2801 69.2424 39.7459 69.2424C45.2117 69.2424 49.725 73.6607 50.4283 77.0025Z" fill="#38383D"/>
<g id="Vector_15">
<path d="M83.8926 190.977C83.8926 190.977 80.7567 188.274 82.139 187.436C83.7851 186.437 84.0147 189.857 84.0489 190.656C84.0489 190.704 84.1124 190.714 84.1368 190.675L86.6328 186.257" fill="#F6F7F9"/>
<path d="M83.8926 190.977C83.8926 190.977 80.7567 188.274 82.139 187.436C83.7851 186.437 84.0147 189.857 84.0489 190.656C84.0489 190.704 84.1124 190.714 84.1368 190.675L86.6328 186.257" stroke="#38383D" stroke-width="0.5" stroke-miterlimit="10" stroke-linecap="round"/>
</g>
<path id="Vector_16" d="M37.6207 130.587C37.6207 130.587 38.0115 127.971 36.8148 124.391C35.6181 120.81 39.809 119.763 40.7077 120.06C40.7077 120.06 41.6065 118.268 44.4493 118.57C47.2921 118.867 50.213 123.422 53.129 122.822C53.129 122.822 52.1814 125.857 48.8795 125.76C45.5776 125.662 37.6256 130.587 37.6256 130.587H37.6207Z" fill="#38383D"/>
<path id="Vector_17" d="M66.1379 162.577C66.1379 162.577 70.4704 163.376 73.0836 161.472C74.3487 160.546 76.1169 160.57 77.1866 161.71C77.2648 161.793 77.3429 161.886 77.4211 161.978C77.592 162.188 77.8509 162.305 78.1196 162.3C78.7985 162.285 79.2137 161.54 78.862 160.96C77.9046 159.401 76.4588 157.653 73.8212 156.776C69.8794 155.465 65.6836 157.107 65.6836 157.107C65.6836 157.107 66.7533 160.127 66.1379 162.573V162.577Z" fill="#F6F7F9" stroke="#38383D" stroke-width="0.5" stroke-miterlimit="10" stroke-linecap="round"/>
<path id="Vector_18" d="M72.2712 177.771C72.1296 170.371 66.0728 164.414 58.619 164.414C58.3552 164.414 58.0964 164.424 57.8375 164.438H45.5627V172.184H46.2807C45.4357 173.957 44.957 175.939 44.957 178.034C44.957 185.555 51.0724 191.654 58.6141 191.654C58.7167 191.654 58.8193 191.649 58.9218 191.645V193.861H72.3201V177.766H72.2663L72.2712 177.771Z" fill="#F6F7F9" stroke="#38383D" stroke-width="0.5" stroke-miterlimit="10" stroke-linecap="round"/>
<path id="Vector_19" d="M38.8613 137.125H13.5888C9.04132 137.125 5.35352 140.802 5.35352 145.338V187.528C5.35352 193.116 9.89611 197.641 15.4938 197.641H49.0113C49.0113 197.641 46.8865 162.017 47.0917 145.43C47.1503 140.856 43.4429 137.12 38.8564 137.12L38.8613 137.125Z" fill="#F6F7F9" stroke="#38383D" stroke-width="0.5" stroke-miterlimit="10" stroke-linecap="round"/>
<path id="Vector_20" d="M48.7137 123.899C46.9944 122.247 43.2284 122.121 41.0157 124.293C39.6529 125.633 38.5832 128.103 38.8861 129.993L35.1641 135.512C35.1641 135.512 39.6187 138.065 43.2479 137.636C43.2479 137.636 43.033 136.058 43.8829 134.752C44.3518 134.962 44.8403 135.04 45.3043 134.864C47.1116 134.182 47.8394 132.015 47.8394 132.015C47.8394 132.015 48.66 132.507 48.8847 132.273C49.1142 132.039 48.6942 130.626 49.2022 129.657C49.7101 128.687 50.4379 125.555 48.7137 123.904V123.899Z" fill="#F6F7F9" stroke="#38383D" stroke-width="0.5" stroke-miterlimit="10" stroke-linecap="round"/>
<path id="Vector_21" d="M38.7798 131.143C38.3255 131.62 37.544 131.24 37.6172 130.587C37.6807 130.056 37.6856 129.389 37.5879 128.551C37.1972 125.243 39.7274 119.69 45.4862 120.348C50.4977 120.918 50.8445 124.537 49.765 125.692C49.5306 125.94 49.1447 125.964 48.8761 125.76C48.0408 125.127 45.6816 123.602 42.7362 123.884C42.4676 123.909 42.2429 124.108 42.1696 124.371C41.8375 125.58 40.7531 129.067 38.7798 131.138V131.143Z" fill="#38383D"/>
<path id="Vector_22" d="M38.4511 131.347C38.4511 131.347 41.0106 130.787 42.4515 128.415L43.448 128.726C43.448 128.726 44.9084 128.278 45.2601 125.195C45.2601 125.195 49.5878 127.255 51.5221 125.058C53.4563 122.861 47.8098 121.566 44.7766 121.517C41.7433 121.468 37.9382 128.668 38.4511 131.342V131.347Z" fill="#38383D"/>
<path id="Vector_23" d="M43.6696 129.019C43.6696 129.019 44.1043 127.211 42.6439 127.148C41.1834 127.085 40.9685 130.017 42.0577 130.207C43.147 130.402 43.6745 129.019 43.6745 129.019H43.6696Z" fill="#F6F7F9"/>
<g id="Vector_24">
<path d="M43.1204 129.116C43.1204 129.116 43.5356 128.015 42.3633 127.967L43.1204 129.116Z" fill="#F6F7F9"/>
<path d="M43.1204 129.116C43.1204 129.116 43.5356 128.015 42.3633 127.967" stroke="#38383D" stroke-width="0.5" stroke-miterlimit="10" stroke-linecap="round"/>
</g>
<path id="Vector_25" d="M47.3617 129.92C47.3373 130.173 47.4203 130.392 47.5473 130.407C47.6743 130.422 47.8013 130.222 47.8257 129.969C47.8501 129.715 47.7671 129.496 47.6401 129.481C47.5131 129.467 47.3861 129.667 47.3617 129.92Z" fill="#38383D"/>
<path id="Vector_26" d="M47.1081 128.931C47.1081 128.931 47.5233 128.858 48.0313 128.975C48.5393 129.092 48.5393 128.459 47.8359 128.468C47.1325 128.478 46.859 128.921 47.1032 128.931H47.1081Z" fill="#38383D"/>
<path id="Vector_27" d="M44.0394 134.65C44.0394 134.65 42.027 133.525 41.8316 133.793C41.6411 134.061 42.9258 136.642 43.3361 136.321C43.3751 136.292 43.4679 135.147 44.0394 134.65Z" fill="#38383D"/>
<g id="Vector_28">
<path d="M46.2988 133.159C46.2988 133.159 46.3721 133.617 46.7873 133.72L46.2988 133.159Z" fill="#F6F7F9"/>
<path d="M46.2988 133.159C46.2988 133.159 46.3721 133.617 46.7873 133.72" stroke="#38383D" stroke-width="0.5" stroke-miterlimit="10" stroke-linecap="round"/>
</g>
<path id="Vector_29" d="M31.2757 197.295H27.5879V216.142H31.2757V197.295Z" fill="#38383D"/>
<path id="Vector_30" d="M16.3047 219.051C16.3047 220.166 17.2132 221.067 18.3269 221.067C19.4405 221.067 20.3491 220.161 20.3491 219.051C20.3491 217.94 19.4405 217.034 18.3269 217.034C17.2132 217.034 16.3047 217.94 16.3047 219.051Z" fill="#38383D"/>
<path id="Vector_31" d="M38.1934 219.051C38.1934 220.166 39.1019 221.067 40.2155 221.067C41.3292 221.067 42.2377 220.161 42.2377 219.051C42.2377 217.94 41.3292 217.034 40.2155 217.034C39.1019 217.034 38.1934 217.94 38.1934 219.051Z" fill="#38383D"/>
<path id="Vector_32" d="M17.9648 219.051H39.8523" stroke="#38383D" stroke-width="0.5" stroke-miterlimit="10" stroke-linecap="round"/>
<path id="Vector_33" d="M24.5781 218.987V218.028C24.5781 217.034 25.3792 216.23 26.3659 216.23H32.618C33.6047 216.23 34.4058 217.034 34.4058 218.028V219.031" stroke="#38383D" stroke-width="0.5" stroke-miterlimit="10" stroke-linecap="round"/>
<path id="Vector_34" d="M66.4894 162.261C66.4894 162.261 54.1854 162.641 51.8359 162.056C49.4865 161.472 41.9204 156.099 41.9204 156.099L40.5429 180.275L18.1914 179.432C18.1914 179.432 18.3184 172.53 19.0218 164.234C19.0462 164.268 19.0706 164.297 19.095 164.326C19.095 164.326 19.1292 163.966 19.2172 163.323C19.7789 159.133 22.4751 143.014 31.3698 136.896C35.6242 133.968 41.4221 134.747 44.9536 138.503L57.9123 152.289L65.5614 155.909C70.2603 157.667 66.4943 162.256 66.4943 162.256L66.4894 162.261Z" fill="#38383D"/>
<path id="Vector_35" d="M10.6353 180.28H40.5382C45.3153 180.28 49.1887 184.143 49.1887 188.907C49.1887 193.671 45.3153 197.534 40.5382 197.534H16.9363C16.9363 197.534 10.4887 180.285 10.6353 180.285V180.28Z" fill="#F6F7F9"/>
<path id="Vector_36" d="M75.4365 220.824L51.0335 220.434L49.9296 215.368L49.4021 212.937C49.2702 212.328 49.109 211.729 48.9283 211.135C46.823 204.149 45.4456 193.963 46.823 188.634C46.823 188.634 42.8666 190.125 39.1006 190.125C32.531 190.125 22.8645 188.995 19.2842 182.784C15.7722 176.685 18.9471 168.525 18.9471 168.525C18.9471 168.525 46.6228 164.302 54.5894 166.996C65.5209 170.698 69.4627 184.045 76.7749 189.16C75.9152 190.373 74.8162 192.624 75.2069 195.922C75.6319 199.453 72.8477 202.41 71.016 203.95C68.7643 202.035 65.5502 198.903 63.3083 195.05C63.3083 195.05 62.2727 203.818 64.3584 209.912C65.0032 211.797 65.9459 213.429 67.3136 214.467C71.2505 217.443 74.9139 217.443 75.4365 220.824Z" fill="#FF9148"/>
<path id="Vector_37" d="M63.5394 194.821C63.5394 194.821 67.3298 177.528 58.1079 177.372C48.0702 177.206 47.0786 185.054 37.207 185.073" stroke="#38383D" stroke-width="0.5" stroke-miterlimit="10" stroke-linecap="round"/>
<path id="Vector_38" d="M41.3096 166.167C41.3096 166.167 38.6329 172.978 25.8599 174.468C13.082 175.959 24.3652 161.394 24.3652 161.394L41.3096 166.167Z" fill="#38383D"/>
<path id="Vector_39" d="M19.0951 164.331H12.4668" stroke="#38383D" stroke-width="0.5" stroke-miterlimit="10" stroke-linecap="round"/>
<path id="Vector_40" d="M36.8728 177.771C36.7311 170.371 30.6743 164.414 23.2206 164.414C22.9568 164.414 22.6979 164.424 22.439 164.438H10.1643V172.184H10.8823C10.0373 173.957 9.55859 175.939 9.55859 178.034C9.55859 185.555 15.674 191.654 23.2157 191.654C23.3183 191.654 23.4208 191.649 23.5234 191.645V193.861H36.9216V177.766H36.8679L36.8728 177.771Z" fill="#F6F7F9"/>
<path id="Vector_41" d="M46.707 188.751C46.707 188.751 47.9575 187.411 49.4033 186.447" stroke="#38383D" stroke-width="0.5" stroke-miterlimit="10" stroke-linecap="round"/>
<path id="Vector_42" d="M86.2504 162.046L91.8334 147.208C91.9946 146.775 91.7748 146.292 91.3401 146.132L90.9786 145.995C90.5439 145.835 90.0603 146.054 89.8992 146.487L84.8144 160C84.6923 160.327 84.3797 160.541 84.028 160.541H69.0081C68.5441 160.541 68.168 160.916 68.168 161.379C68.168 161.842 68.5441 162.217 69.0081 162.217H86.182H86.2455V162.046H86.2504Z" fill="#38383D"/>
<g id="Vector_43">
<path d="M73.6504 158.407C73.6504 158.407 75.697 159.031 77.348 161.018L73.6504 158.407Z" fill="#F6F7F9"/>
<path d="M73.6504 158.407C73.6504 158.407 75.697 159.031 77.348 161.018" stroke="#38383D" stroke-width="0.5" stroke-miterlimit="10" stroke-linecap="round"/>
</g>
<g id="Vector_44">
<path d="M72.7949 159.089C72.7949 159.089 74.0454 159.542 75.413 160.848L72.7949 159.089Z" fill="#F6F7F9"/>
<path d="M72.7949 159.089C72.7949 159.089 74.0454 159.542 75.413 160.848" stroke="#38383D" stroke-width="0.5" stroke-miterlimit="10" stroke-linecap="round"/>
</g>
<path id="Vector_45" d="M36.8398 189.886V197.778" stroke="#38383D" stroke-width="0.5" stroke-miterlimit="10" stroke-linecap="round"/>
<path id="Vector_46" d="M92.6691 192.39L73.6684 206.01C73.6684 206.01 71.2652 204.154 69.707 202.834C71.5387 201.295 75.6319 199.453 75.207 195.922C74.8162 192.624 75.9152 190.373 76.7749 189.16C77.8739 189.93 79.0511 190.514 80.3357 190.851C81.508 191.153 82.7389 191.157 83.9405 190.967C85.6891 190.695 89.6407 190.378 92.6691 192.39Z" fill="#F6F7F9" stroke="#38383D" stroke-width="0.5" stroke-miterlimit="10" stroke-linecap="round"/>
<path id="Vector_47" d="M75.4386 220.824L51.0355 220.434L49.9316 215.368C52.1101 215.587 56.8579 215.85 59.476 214.408C62.0501 212.991 62.3627 210.828 64.3605 209.912C65.0052 211.797 65.948 213.429 67.3156 214.467C71.2525 217.443 74.9159 217.443 75.4386 220.824Z" fill="#F6F7F9" stroke="#38383D" stroke-width="0.5" stroke-miterlimit="10" stroke-linecap="round"/>
<path id="Vector_48" d="M41.9204 156.103C41.9204 156.103 39.4146 153.57 37.7832 153.317" stroke="#F6F7F9" stroke-width="0.5" stroke-miterlimit="10" stroke-linecap="round"/>
<g id="Vector_49">
<path d="M71.2618 213.571C71.13 213.571 68.0625 214.949 68.0625 214.949L69.5327 211.413" fill="#F6F7F9"/>
<path d="M71.2618 213.571C71.13 213.571 68.0625 214.949 68.0625 214.949L69.5327 211.413" stroke="#38383D" stroke-width="0.5" stroke-miterlimit="10" stroke-linecap="round"/>
</g>
<path id="Vector_50" d="M46.7012 158.846C46.7012 158.846 54.0426 154.452 56.1674 162.431" stroke="#F6F7F9" stroke-width="0.5" stroke-miterlimit="10" stroke-linecap="round"/>
<path id="Vector_51" d="M92.8172 192.327L73.6406 206.122L75.5065 207.511L94.3949 193.462L92.8172 192.327Z" fill="#38383D"/>
<path id="Vector_52" d="M50.8906 220.346L51.2374 222.051L75.6746 222.446L75.5574 220.795L50.8906 220.346Z" fill="#38383D"/>
<path id="Vector_53" d="M176.604 166.46H45.2449C44.0677 166.46 43.1152 165.51 43.1152 164.336C43.1152 163.162 44.0677 162.212 45.2449 162.212H176.604C177.781 162.212 178.734 163.162 178.734 164.336C178.734 165.51 177.781 166.46 176.604 166.46Z" fill="#FFE3DD"/>
<path id="Vector_54" d="M60.2029 165.261H58.1758V225.992H60.2029V165.261Z" fill="#FFE3DD"/>
<path id="Vector_55" d="M164.193 154.389C164.193 154.389 162.899 153.414 161.385 152.874C159.138 151.519 157.799 152.114 156.461 152.499C155.059 152.903 154.116 152.25 153.95 152.547C153.843 152.742 155.025 153.877 156.93 153.478C155.636 153.95 152.544 154.725 151.371 154.559C149.002 154.218 150.346 154.983 153.1 155.49C153.179 155.504 153.179 155.616 153.1 155.631C152.632 155.709 151.728 155.889 150.541 155.723C148.445 155.426 147.938 156.352 152.06 156.688C152.187 156.698 152.856 156.737 152.749 156.805C152.241 157.112 151.171 157.029 150.004 156.854C148.724 156.659 150.609 157.891 153.14 158.018C153.11 158.188 151.699 158.315 151.103 158.188C149.676 157.891 150.639 159.143 153.838 158.578C156.432 158.12 158.415 158.067 159.069 158.062C160.896 158.49 162.278 159.202 162.278 159.202C162.278 159.202 164.222 156.673 164.188 154.394L164.193 154.389Z" fill="#F6F7F9" stroke="#38383D" stroke-width="0.5" stroke-miterlimit="10" stroke-linecap="round"/>
<path id="Vector_56" d="M214.803 174.916C217.743 164.721 222.633 154.885 224.777 147.471C226.189 142.595 222.618 137.69 217.538 137.427C213.909 137.241 210.729 139.063 208.98 143.048L199.968 162.071C198.347 165.296 195.04 167.332 191.421 167.332H169.758C162.04 167.332 156.316 174.473 158.015 181.98C161.166 195.902 173.631 205.742 187.938 205.611C198.215 205.518 207.266 198.864 210.412 189.111C212.004 184.172 213.63 178.984 214.803 174.921V174.916Z" fill="#38383D"/>
<path id="Vector_57" d="M217.625 137.417L209.634 137.281L179.086 205.757L187.932 205.611C187.932 205.611 203.694 201.441 211.583 170.328C219.471 139.214 217.625 137.412 217.625 137.412V137.417Z" fill="#38383D"/>
<path id="Vector_58" d="M188.226 146.171L185.828 136.165C185.828 136.165 181.422 137.427 177.402 141.718C172.997 146.429 171.673 148.991 171.233 150.214C170.974 150.935 171.038 154.077 170.842 155.441C170.344 158.861 169.065 161.803 169.065 163.513C169.05 173.869 172.42 180.353 172.42 180.353L194.762 170.182L188.222 146.166L188.226 146.171Z" fill="#FF9148"/>
<path id="Vector_59" d="M187.219 199.078H183.531V217.926H187.219V199.078Z" fill="#38383D"/>
<path id="Vector_60" d="M166.645 212.689C166.865 213.244 167.075 213.799 167.29 214.384L157.414 220.6C155.123 222.042 152.466 222.802 149.755 222.782L141.832 222.729C141.832 222.729 141.91 222.012 142.447 220.926C143.024 219.752 144.133 218.145 146.243 216.547C149.066 214.408 149.183 208.831 149.642 205.947C149.984 203.808 150.834 202.103 150.834 202.103C150.243 194.752 149.247 183.953 148.211 179.271C147.268 175.019 145.73 172.827 147.781 168.983C147.884 168.793 147.987 168.608 148.094 168.428C151.611 162.417 159.509 160.624 165.458 164.253L182.652 171.687L184.484 193.096L152.397 172.875C155.343 182.413 158.972 187.621 164.052 205.075C165.131 208.787 165.908 210.779 166.645 212.689Z" fill="#F6F7F9" stroke="#38383D" stroke-width="0.5" stroke-miterlimit="10" stroke-linecap="round"/>
<path id="Vector_61" d="M175.091 172.31L169.42 193.043L154.142 186.744C153.619 196.711 150.21 204.87 148.021 209.303C147.582 210.458 146.659 212.479 145.867 214.969C145.315 216.727 144.827 218.715 144.632 220.79C144.568 221.428 144.534 222.071 144.534 222.719H117.449C117.449 222.719 117.684 221.857 118.47 220.79C119.31 219.655 120.79 218.291 123.316 217.516C125.064 216.98 126.505 216.016 127.687 214.856C128.796 213.77 129.68 212.513 130.369 211.281C131.434 209.391 132.044 207.559 132.342 206.488C132.352 206.458 132.357 206.434 132.367 206.41C132.518 205.859 132.586 205.528 132.586 205.528L132.611 205.538C134.594 198.43 137.388 187.952 138.033 183.198C138.614 178.882 140.016 174.717 143.269 171.813C147.088 168.394 152.334 167.054 157.336 168.204L175.091 172.31Z" fill="#F6F7F9" stroke="#38383D" stroke-width="0.5" stroke-miterlimit="10" stroke-linecap="round"/>
<path id="Vector_62" d="M174.119 122.696C174.119 122.696 174.261 122.486 174.525 122.194C175.086 121.571 176.239 120.694 177.773 120.348C182.037 119.388 187.215 123.222 186.56 126.617C185.905 130.013 184.362 132.097 184.362 132.097L174.119 122.701V122.696Z" fill="#38383D"/>
<path id="Vector_63" d="M172.927 128.785C172.927 128.785 170.255 129.501 169.845 127.09C169.43 124.683 172.131 122.15 174.92 122.223" stroke="#38383D" stroke-width="0.5" stroke-miterlimit="10" stroke-linecap="round"/>
<path id="Vector_64" d="M163.006 152.576C162.508 152.421 162 152.8 161.902 153.312C161.643 154.705 160.911 157.204 158.879 158.597C155.953 160.599 173.156 171.472 175.501 168.769C177.337 166.65 173.259 154.997 172.756 152.908C172.634 152.401 173.962 156.571 173.459 156.702C172.018 157.078 165.883 153.492 163.006 152.576Z" fill="#FF9148"/>
<path id="Vector_65" d="M174.524 122.194C174.524 122.194 170.176 123.475 170.577 128.074C170.577 128.074 170.948 130.324 172.824 129.433C174.704 128.541 173.918 130.383 175.891 131.172C177.869 131.961 183.462 130.261 181.757 126.154C180.053 122.043 174.519 122.199 174.519 122.199L174.524 122.194Z" fill="#38383D"/>
<path id="Vector_66" d="M174.47 128.96C174.47 128.96 173.537 133.608 179.569 134.869C185.602 136.126 189.06 130.163 186.369 125.516C183.682 120.869 174.465 128.96 174.465 128.96H174.47Z" fill="#38383D"/>
<path id="Vector_67" d="M183.453 131.479C183.453 131.479 188.416 130.456 188.108 135.288C187.795 140.116 181.529 139.375 180.537 137.514" stroke="#38383D" stroke-width="0.5" stroke-miterlimit="10" stroke-linecap="round"/>
<g id="Vector_68">
<path d="M149.848 176.797C149.848 176.797 150.092 172.71 150.175 170.912C150.258 169.115 155.499 164.886 155.499 164.886C155.499 164.886 157.057 165.588 158 167.843" fill="#F6F7F9"/>
<path d="M149.848 176.797C149.848 176.797 150.092 172.71 150.175 170.912C150.258 169.115 155.499 164.886 155.499 164.886C155.499 164.886 157.057 165.588 158 167.843" stroke="#38383D" stroke-width="0.5" stroke-miterlimit="10" stroke-linecap="round"/>
</g>
<path id="Vector_69" d="M155 165.062C155 165.062 156.475 161.71 168.686 160.322C180.898 158.934 185.24 160.892 185.24 160.892L183.325 167.332L157.13 170.211L155 165.062Z" fill="#FF9148"/>
<path id="Vector_70" d="M206.713 174.916C209.653 164.721 214.543 154.885 216.687 147.471C218.099 142.595 214.528 137.69 209.448 137.427C205.819 137.241 202.639 139.063 200.891 143.048L191.879 162.071C190.257 165.296 186.95 167.332 183.331 167.332H161.668C153.95 167.332 148.226 174.473 149.926 181.98C153.076 195.902 165.541 205.742 179.848 205.611C190.125 205.518 199.176 198.864 202.322 189.111C203.914 184.172 205.541 178.984 206.713 174.921V174.916Z" fill="#F6F7F9" stroke="#38383D" stroke-width="0.5" stroke-miterlimit="10" stroke-linecap="round"/>
<path id="Vector_71" d="M160.74 161.618C160.74 161.618 167.969 159.124 176.63 159.479" stroke="#38383D" stroke-width="0.5" stroke-miterlimit="10" stroke-linecap="round"/>
<path id="Vector_72" d="M177.254 146.838C177.254 146.838 176.897 156.99 174.846 159.392" stroke="#38383D" stroke-width="0.5" stroke-miterlimit="10" stroke-linecap="round"/>
<path id="Vector_73" d="M186.897 166.694C186.897 166.694 188.323 163.576 186.359 153.604" stroke="#38383D" stroke-width="0.5" stroke-miterlimit="10" stroke-linecap="round"/>
<path id="Vector_74" d="M172.248 220.839C172.248 221.954 173.157 222.855 174.27 222.855C175.384 222.855 176.292 221.949 176.292 220.839C176.292 219.728 175.384 218.822 174.27 218.822C173.157 218.822 172.248 219.728 172.248 220.839Z" fill="#38383D"/>
<path id="Vector_75" d="M194.137 220.839C194.137 221.954 195.045 222.855 196.159 222.855C197.273 222.855 198.181 221.949 198.181 220.839C198.181 219.728 197.273 218.822 196.159 218.822C195.045 218.822 194.137 219.728 194.137 220.839Z" fill="#38383D"/>
<path id="Vector_76" d="M173.91 220.838H195.798" stroke="#38383D" stroke-width="0.5" stroke-miterlimit="10" stroke-linecap="round"/>
<path id="Vector_77" d="M180.523 220.775V219.816C180.523 218.822 181.324 218.018 182.311 218.018H188.563C189.55 218.018 190.351 218.822 190.351 219.816V220.819" stroke="#38383D" stroke-width="0.5" stroke-miterlimit="10" stroke-linecap="round"/>
<path id="Vector_78" d="M144.632 220.79C144.568 221.428 144.534 222.071 144.534 222.719H117.449C117.449 222.719 117.684 221.857 118.47 220.79H144.632Z" fill="#38383D"/>
<path id="Vector_79" d="M167.29 214.384L157.414 220.6C155.123 222.042 152.466 222.802 149.755 222.782L141.832 222.729C141.832 222.729 141.91 222.012 142.447 220.926C143.747 220.838 144.631 220.79 144.631 220.79C144.631 220.79 149.96 221.472 153.653 220.171C156.437 219.192 163.387 214.793 166.645 212.689C166.865 213.244 167.075 213.799 167.29 214.384Z" fill="#38383D"/>
<g id="Vector_80">
<path d="M156.932 153.473C156.932 153.473 157.596 154.808 160.028 154.603L156.932 153.473Z" fill="#F6F7F9"/>
<path d="M156.932 153.473C156.932 153.473 157.596 154.808 160.028 154.603" stroke="#38383D" stroke-width="0.5" stroke-miterlimit="10" stroke-linecap="round"/>
</g>
<g id="Vector_81">
<path d="M151.611 170.254C151.611 170.254 151.078 170.785 150.927 171.691C150.775 172.597 150.512 174.604 150.512 174.604" fill="#F6F7F9"/>
<path d="M151.611 170.254C151.611 170.254 151.078 170.785 150.927 171.691C150.775 172.597 150.512 174.604 150.512 174.604" stroke="#38383D" stroke-width="0.5" stroke-miterlimit="10" stroke-linecap="round"/>
</g>
<path id="Vector_82" d="M131.609 208.733C131.609 208.733 147.606 209.41 148.021 209.303C148.021 209.303 150.029 205.08 150.434 203.725L133.255 203.009L131.609 208.738V208.733Z" fill="#38383D"/>
<path id="Vector_83" d="M149.242 209.22C149.242 209.22 153.277 210.774 163.603 203.716L162.826 200.54L160.633 199.059C160.633 199.059 158.342 197.573 153.76 191.352C153.76 191.352 152.422 199.619 149.692 205.971C149.369 206.726 149.242 209.22 149.242 209.22Z" fill="#38383D"/>
<g id="Vector_84">
<path d="M171.896 129.584C171.896 129.584 173.132 131.703 173.611 134.304C174.09 136.905 176.219 138.479 179.306 137.178" fill="#F6F7F9"/>
<path d="M171.896 129.584C171.896 129.584 173.132 131.703 173.611 134.304C174.09 136.905 176.219 138.479 179.306 137.178" stroke="#38383D" stroke-width="0.5" stroke-miterlimit="10" stroke-linecap="round"/>
</g>
<g id="Vector_85">
<path d="M178.07 137.573C178.07 137.573 178.92 139.2 178.715 140.364L178.07 137.573Z" fill="#F6F7F9"/>
<path d="M178.07 137.573C178.07 137.573 178.92 139.2 178.715 140.364" stroke="#38383D" stroke-width="0.5" stroke-miterlimit="10" stroke-linecap="round"/>
</g>
<path id="Vector_86" d="M183.438 140.228C185.998 140.228 188.074 138.317 188.074 135.96C188.074 133.604 185.998 131.693 183.438 131.693C180.878 131.693 178.803 133.604 178.803 135.96C178.803 138.317 180.878 140.228 183.438 140.228Z" fill="#38383D"/>
<path id="Vector_87" d="M179.624 137.212C179.624 137.212 180.2 138.898 178.627 139.171L178.237 137.919C178.237 137.919 177.802 137.5 179.756 137.168" fill="#38383D"/>
<path id="Vector_88" d="M170.738 127.547C170.738 127.547 170.23 131.712 175.896 131.172C181.562 130.631 173.464 126.573 172.614 126.739C171.764 126.904 170.743 127.552 170.743 127.552L170.738 127.547Z" fill="#38383D"/>
</g>
</svg>
