<svg width="249" height="274" viewBox="0 0 249 274" fill="none" xmlns="http://www.w3.org/2000/svg">
<path d="M61.5101 226.138C53.7476 242.305 34.4132 249.089 18.3131 241.294C2.21313 233.5 -4.54313 214.086 3.21938 197.919C10.9819 181.753 23.7038 127.961 55.9996 144.464C71.9319 152.595 69.2726 209.996 61.5101 226.138Z" fill="#FFE3DD"/>
<path d="M60.216 273.531H122.987C125.047 273.531 126.724 271.847 126.724 269.778C126.724 267.709 125.047 266.025 122.987 266.025H60.216C58.1556 266.025 56.4785 267.709 56.4785 269.778C56.4785 271.847 58.1556 273.531 60.216 273.531Z" fill="#2A2B2E"/>
<path d="M119.394 176.268V104.914C119.394 89.9502 107.319 77.8013 92.3929 77.8013H51.6397C36.7376 77.8013 24.6387 89.9261 24.6387 104.914V198.593C24.6387 210.814 34.5095 220.725 46.6804 220.725H150.827C162.998 220.725 172.869 210.814 172.869 198.593V198.4C172.869 186.179 162.998 176.268 150.827 176.268H119.37H119.394Z" fill="#FF9148"/>
<path d="M103.174 220.917H78.5684V269.85H103.174V220.917Z" fill="#2A2B2E"/>
<path d="M119.392 176.268H78.8789" stroke="#2A2B2E" stroke-width="0.5" stroke-miterlimit="10" stroke-linecap="round"/>
<path d="M132.258 74.0241C132.258 74.0241 127.203 20.3284 185.733 0C185.733 0 195.844 4.35436 199.461 21.0501C203.079 37.7458 211.033 21.7718 211.033 21.7718C211.033 21.7718 229.745 40.5605 221.743 63.9441" stroke="#2A2B2E" stroke-width="0.5" stroke-miterlimit="10" stroke-linecap="round"/>
<path d="M154.014 70.0785C154.014 70.0785 158.901 36.639 181.446 30.2397C181.446 30.2397 187.819 34.6663 187.819 46.4784C187.819 58.2905 197.618 46.4784 197.618 46.4784C197.618 46.4784 211.322 62.717 192.73 75.4914C174.115 88.2658 154.038 70.0785 154.038 70.0785H154.014Z" fill="#FFE3DD"/>
<path d="M98.0947 151.849H218.533C221.672 151.849 224.235 149.299 224.235 146.124L237.652 70.3194C237.652 67.1679 235.112 64.5938 231.95 64.5938H111.511C108.373 64.5938 105.809 67.1438 105.809 70.3194L92.3926 146.124C92.3926 149.275 94.9322 151.849 98.0947 151.849Z" fill="#2A2B2E"/>
<path d="M101.903 151.849H222.342C225.48 151.849 228.044 149.299 228.044 146.124L241.461 70.3194C241.461 67.1679 238.921 64.5938 235.759 64.5938H115.32C112.181 64.5938 109.618 67.1438 109.618 70.3194L96.2012 146.124C96.2012 149.275 98.7408 151.849 101.903 151.849Z" fill="white" stroke="#2A2B2E" stroke-width="0.5" stroke-miterlimit="10" stroke-linecap="round"/>
<path d="M143.999 134.456H189.281C190.455 134.456 191.413 133.494 191.413 132.315L196.468 103.831C196.468 102.652 195.51 101.69 194.336 101.69H149.055C147.881 101.69 146.922 102.652 146.922 103.831L141.867 132.315C141.867 133.494 142.826 134.456 143.999 134.456Z" fill="#FFE3DD"/>
<path d="M149.582 158.224H176.08L184.274 117.471C184.777 114.993 183.747 112.973 181.255 112.973H162.28C159.812 112.973 157.8 114.993 157.8 117.471L149.606 158.224H149.582Z" fill="white" stroke="#2A2B2E" stroke-width="0.5" stroke-miterlimit="10" stroke-linecap="round"/>
<path d="M181.447 157.888H138.154C136.86 157.888 135.83 158.946 135.83 160.221C135.83 161.52 136.884 162.555 138.154 162.555H181.447C182.741 162.555 183.771 161.496 183.771 160.221C183.771 158.922 182.717 157.888 181.447 157.888Z" fill="#2A2B2E"/>
<path d="M150.636 209.971H234.969C241.03 209.971 245.966 205.04 245.966 198.929C245.966 192.843 241.054 187.887 234.969 187.887H150.636C144.574 187.887 139.639 192.818 139.639 198.929C139.639 205.015 144.55 209.971 150.636 209.971Z" fill="white" stroke="#2A2B2E" stroke-width="0.5" stroke-miterlimit="10" stroke-linecap="round"/>
<path d="M185.039 201.479H201.139C202.481 201.479 203.583 200.373 203.583 199.026C203.583 197.678 202.481 196.572 201.139 196.572H185.039C183.698 196.572 182.596 197.678 182.596 199.026C182.596 200.373 183.698 201.479 185.039 201.479Z" fill="#2A2B2E"/>
<path d="M150.636 254.429H234.969C241.03 254.429 245.966 249.498 245.966 243.387C245.966 237.301 241.054 232.345 234.969 232.345H150.636C144.574 232.345 139.639 237.276 139.639 243.387C139.639 249.473 144.55 254.429 150.636 254.429Z" fill="white" stroke="#2A2B2E" stroke-width="0.5" stroke-miterlimit="10" stroke-linecap="round"/>
<path d="M185.039 245.889H201.139C202.481 245.889 203.583 244.782 203.583 243.435C203.583 242.088 202.481 240.981 201.139 240.981H185.039C183.698 240.981 182.596 242.088 182.596 243.435C182.596 244.782 183.698 245.889 185.039 245.889Z" fill="#2A2B2E"/>
<path d="M81.6828 170.157H245.007C247.067 170.157 248.744 168.473 248.744 166.404C248.744 164.335 247.067 162.651 245.007 162.651H81.6828C79.6224 162.651 77.9453 164.335 77.9453 166.404C77.9453 168.473 79.6224 170.157 81.6828 170.157Z" fill="#2A2B2E"/>
</svg>
