<svg width="274" height="274" viewBox="0 0 274 274" fill="none" xmlns="http://www.w3.org/2000/svg">
<path d="M80.9867 41.2704C77.7381 44.6517 73.5761 47.0263 69.0423 48.23C44.4424 54.7519 33.8215 82.9239 54.9977 97.609C75.5067 111.829 85.9581 89.1831 107.823 93.6477C129.689 98.1123 132.062 44.6791 110.197 35.3012C96.0758 29.2444 86.2042 35.8428 80.9867 41.2704Z" fill="#FFE3DD"/>
<path d="M106.963 129.129H69.2324V57.9907H204.553V94.7856" fill="white"/>
<path d="M106.963 129.129H69.2324V57.9907H204.553V94.7856" stroke="#2A2B2E" stroke-width="0.5" stroke-miterlimit="10" stroke-linecap="round"/>
<mask id="mask0_3550_69349" style="mask-type:luminance" maskUnits="userSpaceOnUse" x="73" y="73" width="132" height="56">
<path d="M204.669 73.9346H73.7832V128.9H204.669V73.9346Z" fill="white"/>
</mask>
<g mask="url(#mask0_3550_69349)">
<path d="M198.308 88.0615H183.602V129.365H198.308V88.0615Z" fill="#FFE3DD"/>
<path d="M174.616 95.4917H162.359V129.359H174.616V95.4917Z" fill="#FFE3DD"/>
<path d="M192.861 102.654H178.701V129.365H192.861V102.654Z" fill="#FFE3DD"/>
<path d="M165.357 104.033H155.01V129.365H165.357V104.033Z" fill="#FFE3DD"/>
<path d="M187.955 114.22H132.953V129.365H187.955V114.22Z" fill="#FFE3DD"/>
<path d="M137.585 120.551H124.514V129.36H137.585V120.551Z" fill="#FFE3DD"/>
<path d="M150.185 112.376H139.361V115.818H150.185V112.376Z" fill="#FFE3DD"/>
<path d="M172.45 91.2681H164.41V97.8337H172.45V91.2681Z" fill="#FFE3DD"/>
<path d="M193.905 76.8618H183.875V94.0856H193.905V76.8618Z" fill="#FFE3DD"/>
<path d="M169.354 81.4414H167.418V92.4169H169.354V81.4414Z" fill="#FFE3DD"/>
<path d="M204.767 95.9297H194.666V129.633H204.767V95.9297Z" fill="#FFE3DD"/>
<path d="M126.433 126.903H107.488V129.431H126.433V126.903Z" fill="#FFE3DD"/>
<path d="M121.172 123.844H117.092V128.5H121.172V123.844Z" fill="#FFE3DD"/>
</g>
<path d="M162.426 104.153V110.232" stroke="#2A2B2E" stroke-width="0.5" stroke-miterlimit="10" stroke-linecap="round"/>
<path d="M193.928 87.3774V95.9292" stroke="#2A2B2E" stroke-width="0.5" stroke-miterlimit="10" stroke-linecap="round"/>
<path d="M138.848 113.733V120.55" stroke="#2A2B2E" stroke-width="0.5" stroke-miterlimit="10" stroke-linecap="round"/>
<path d="M99.2803 92.3458C101.525 92.3458 103.344 90.5257 103.344 88.2806C103.344 86.0354 101.525 84.2153 99.2803 84.2153C97.0361 84.2153 95.2168 86.0354 95.2168 88.2806C95.2168 90.5257 97.0361 92.3458 99.2803 92.3458Z" fill="#FFE3DD"/>
<path d="M97.316 130.607C99.0333 133.923 98.8364 135.969 95.812 138.595C92.7876 141.221 96.255 143.935 99.3341 144.488" stroke="#FF9148" stroke-width="0.5" stroke-miterlimit="10"/>
<path d="M107.489 148.367C102.753 149.275 97.9675 146.512 96.562 141.894C96.3158 141.079 96.201 140.313 96.3323 139.716C97.0432 136.516 100.084 136.538 98.4214 133.359C96.4909 129.66 95.8346 126.711 98.7988 124.161C99.9473 123.177 99.8543 121.628 102.058 120.419C102.583 120.129 103.092 120.178 103.36 119.954C107.013 116.879 110.798 121.141 111.41 122.602C111.657 123.187 112.198 123.549 112.805 123.592C113.374 123.631 114.572 123.581 116.032 124.375C117.58 125.212 118.919 126.897 119.177 128.259C119.291 128.872 119.674 129.386 120.221 129.687C121.102 130.163 127.249 133.692 126.363 139.022C125.625 143.464 125.061 145.62 125.061 145.62C125.061 145.62 113.893 147.147 107.484 148.372L107.489 148.367Z" fill="#FF9148"/>
<path d="M111.18 135.411C111.18 135.411 120.166 134.497 125.782 139.831C131.399 145.171 132.247 176.232 135.758 179.181C139.269 182.13 143.694 181.452 141.654 182.13C141.232 182.273 86.1973 181.851 86.1973 181.851C86.1973 181.851 96.2385 165.082 93.6407 155.162C90.6053 143.568 94.4118 140.707 105.159 136.882" fill="white"/>
<path d="M111.18 135.411C111.18 135.411 120.166 134.497 125.782 139.831C131.399 145.171 132.247 176.232 135.758 179.181C139.269 182.13 143.694 181.452 141.654 182.13C141.232 182.273 86.1973 181.851 86.1973 181.851C86.1973 181.851 96.2385 165.082 93.6407 155.162C90.6053 143.568 94.4118 140.707 105.159 136.882" stroke="#2A2B2E" stroke-width="0.5" stroke-miterlimit="10" stroke-linecap="round"/>
<path d="M139.625 235.334C139.625 235.334 141.151 238.382 144.339 239.859C147.528 241.342 148.135 243.546 148.359 243.891C148.359 243.891 141.381 245.057 131.017 244.077C124.667 243.475 122.02 243.508 122.02 243.508L119.4 235.536C119.4 235.536 132.406 236.735 139.62 235.339L139.625 235.334Z" fill="#2A2B2E"/>
<path d="M107.773 238.392L109.244 245.166C109.244 245.166 106.209 245.91 103.31 246.03C99.2357 246.2 94.3683 245.658 89.2656 244.657L92.301 238.201L107.773 238.392Z" fill="#2A2B2E"/>
<path d="M125.231 166.986C125.231 166.986 124.482 180.467 129.223 195.946C133.965 211.424 139.702 235.394 139.702 235.394C139.702 235.394 126.007 242.266 113.527 225.535C112.63 224.331 116.065 236.751 114.304 237.698C108.348 240.904 92.7993 239.098 92.7993 239.098C92.7993 239.098 92.0008 175.696 96.2776 164.239L125.225 166.986H125.231Z" fill="#FFE3DD"/>
<path d="M102.611 125.677C102.097 127.094 99.5268 126.574 99.9589 128.248C100.238 129.332 100.243 128.746 100.506 130.442C101.064 134.075 104.17 135.454 106.899 133.233C109.672 130.973 109.814 130.163 108.064 126.322C107.419 124.911 106.675 124.719 106.09 124.883C105.477 125.053 104.826 124.96 104.334 124.555C103.842 124.156 103.191 124.101 102.617 125.671L102.611 125.677Z" fill="white"/>
<path d="M101.172 130.24C101.282 130.503 101.473 130.667 101.604 130.612C101.736 130.558 101.746 130.306 101.637 130.043C101.528 129.781 101.336 129.616 101.205 129.671C101.074 129.726 101.063 129.978 101.172 130.24Z" fill="#2A2B2E"/>
<path d="M104.65 129.255C104.694 129.529 104.842 129.748 104.984 129.742C105.126 129.737 105.208 129.507 105.165 129.228C105.121 128.954 104.973 128.736 104.831 128.746C104.689 128.757 104.607 128.982 104.65 129.261V129.255Z" fill="#2A2B2E"/>
<path d="M104.601 134.305C104.601 134.305 105.553 135.75 105.154 137.49C105.154 137.49 108.938 139.766 111.175 135.416C111.175 135.416 109.365 131.394 108.993 129.053C108.993 129.053 104.831 133.884 104.596 134.305H104.601Z" fill="white"/>
<path d="M104.602 134.305C104.602 134.305 106.177 133.993 107.435 132.527C108.692 131.061 107.757 135.055 105.154 136.001C105.154 136.001 105.154 135.345 104.602 134.305Z" fill="#2A2B2E"/>
<path d="M101.324 128.265C101.324 128.265 100.602 128.506 100.181 129.02C99.7602 129.535 100.345 127.455 101.324 128.265Z" fill="#2A2B2E"/>
<path d="M104.541 127.198C104.541 127.198 105.826 127.198 106.318 127.291C106.772 127.373 105.23 125.874 104.541 127.198Z" fill="#2A2B2E"/>
<path d="M108.031 127.816C108.031 127.816 108.485 126.558 109.431 126.367C110.378 126.175 110.815 129.069 108.781 129.31C106.746 129.551 108.031 127.822 108.031 127.822V127.816Z" fill="white"/>
<path d="M108.867 129.403C109.042 129.819 109.523 130.016 109.939 129.841C110.354 129.666 110.551 129.184 110.376 128.768C110.201 128.352 109.72 128.155 109.304 128.331C108.889 128.506 108.692 128.987 108.867 129.403Z" fill="#2A2B2E"/>
<path d="M108.813 127.915C108.813 127.915 108.791 127.149 109.463 126.952" stroke="#2A2B2E" stroke-width="0.5" stroke-miterlimit="10" stroke-linecap="round"/>
<path d="M101.872 132.15C102.83 132.15 103.606 131.373 103.606 130.415C103.606 129.457 102.83 128.681 101.872 128.681C100.915 128.681 100.139 129.457 100.139 130.415C100.139 131.373 100.915 132.15 101.872 132.15Z" stroke="#2A2B2E" stroke-width="0.5" stroke-miterlimit="10" stroke-linecap="round"/>
<path d="M103.973 129.414C103.973 130.372 104.749 131.149 105.706 131.149C106.663 131.149 107.44 130.372 107.44 129.414C107.44 128.457 106.663 127.68 105.706 127.68C104.749 127.68 103.973 128.457 103.973 129.414Z" stroke="#2A2B2E" stroke-width="0.5" stroke-miterlimit="10" stroke-linecap="round"/>
<path d="M114.089 206.97C114.089 206.97 112.181 196.777 111.426 186.688" stroke="#2A2B2E" stroke-width="0.5" stroke-miterlimit="10" stroke-linecap="round"/>
<path d="M132.92 180.259C132.92 180.259 134.353 181.561 136.103 181.873L132.92 180.259Z" fill="white"/>
<path d="M132.92 180.259C132.92 180.259 134.353 181.561 136.103 181.873" stroke="#2A2B2E" stroke-width="0.5" stroke-miterlimit="10" stroke-linecap="round"/>
<path d="M125.805 178.158C125.805 178.158 126.948 181.14 129.535 181.939L125.805 178.158Z" fill="white"/>
<path d="M125.805 178.158C125.805 178.158 126.948 181.14 129.535 181.939" stroke="#2A2B2E" stroke-width="0.5" stroke-miterlimit="10" stroke-linecap="round"/>
<path d="M113.122 135.509C113.122 135.509 112.028 139.432 107.451 140.554C103.059 141.632 103.71 137.424 103.71 137.424" fill="white"/>
<path d="M113.122 135.509C113.122 135.509 112.028 139.432 107.451 140.554C103.059 141.632 103.71 137.424 103.71 137.424" stroke="#2A2B2E" stroke-width="0.5" stroke-miterlimit="10" stroke-linecap="round"/>
<path d="M105.738 131.833C105.738 131.833 105.793 132.56 104.973 132.763L105.738 131.833Z" fill="white"/>
<path d="M105.738 131.833C105.738 131.833 105.793 132.56 104.973 132.763" stroke="#2A2B2E" stroke-width="0.5" stroke-miterlimit="10" stroke-linecap="round"/>
<path d="M107.178 128.44C107.178 128.44 108.217 126.268 109.639 126.29L107.178 128.44Z" fill="white"/>
<path d="M107.178 128.44C107.178 128.44 108.217 126.268 109.639 126.29" stroke="#2A2B2E" stroke-width="0.5" stroke-miterlimit="10" stroke-linecap="round"/>
<path d="M103.514 129.699L103.989 129.551" stroke="#2A2B2E" stroke-width="0.5" stroke-miterlimit="10" stroke-linecap="round"/>
<path d="M103.24 123.888C103.24 123.888 104.93 126.749 108.02 124.687" stroke="#FF9148" stroke-width="0.5" stroke-miterlimit="10"/>
<path d="M130.137 200.087C130.137 200.087 118.728 211.829 134.933 215.801" stroke="#2A2B2E" stroke-width="0.5" stroke-miterlimit="10" stroke-linecap="round"/>
<path d="M100.182 122.307C100.182 122.307 100.182 123.521 96.8786 125.004C93.5752 126.481 94.0128 131.088 96.009 131.263" stroke="#FF9148" stroke-width="0.5" stroke-miterlimit="10"/>
<path d="M124.279 174.553H134.665C135.042 174.553 135.321 174.203 135.239 173.831L134.846 172.151C134.785 171.883 134.545 171.697 134.271 171.697H124.279V174.553Z" fill="#2A2B2E"/>
<path d="M162.311 183.416C162.311 183.416 164.843 187.82 164.624 195.316" stroke="#2A2B2E" stroke-width="0.5" stroke-miterlimit="10" stroke-linecap="round"/>
<path d="M168.398 184.051C168.398 184.051 169.722 188.57 168.289 193.637" stroke="#2A2B2E" stroke-width="0.5" stroke-miterlimit="10" stroke-linecap="round"/>
<path d="M170.82 169.628C160.008 170.11 143.912 126.848 158.083 132.855C162.152 134.579 164.93 138.343 166.828 142.83C165.865 146.14 165.045 149.953 166.051 150.889C166.669 151.463 168.293 150.796 169.808 148.569C172.067 158.319 170.82 169.628 170.82 169.628Z" fill="#FFE3DD"/>
<path d="M159.227 140.581C159.227 140.581 166.112 154.352 168.229 167.243" stroke="white" stroke-miterlimit="10"/>
<path d="M164.012 170.619C163.749 169.448 153.768 150.035 141.955 153.389C130.142 156.749 165.833 178.798 164.012 170.619Z" fill="#FFE3DD"/>
<path d="M147.725 157.734C147.725 157.734 157.077 164.168 161.43 172.616" stroke="white" stroke-miterlimit="10"/>
<path d="M165.346 139.646C165.346 139.646 167.9 131.827 172.86 136.035C179.215 141.429 174.063 163.101 174.063 163.101" stroke="#2A2B2E" stroke-width="0.5" stroke-miterlimit="10" stroke-linecap="round"/>
<path d="M27.9902 194.436C27.9902 194.436 34.3289 188.335 40.23 192.915C47.6132 198.643 32.2178 206.757 33.4429 220.031" fill="white"/>
<path d="M27.9902 194.436C27.9902 194.436 34.3289 188.335 40.23 192.915C47.6132 198.643 32.2178 206.757 33.4429 220.031" stroke="#2A2B2E" stroke-width="0.5" stroke-miterlimit="10" stroke-linecap="round"/>
<path d="M13.4818 194.331C13.4818 194.331 9.40737 191.886 7.31819 195.24C5.23448 198.594 5.86889 206.21 10.7637 208.382C15.6585 210.559 13.2084 215.09 17.3758 216.54C21.5432 217.99 23.9004 219.894 23.4465 221.524C22.9925 223.155 27.7944 222.252 27.7944 222.252C27.7944 222.252 24.8958 200.317 13.4818 194.337V194.331Z" fill="#FFE3DD"/>
<path d="M27.0655 223.018C25.3701 224.189 26.7264 218.635 22.6739 215.73C21.1316 214.625 19.2448 213.273 19.4143 209.547C19.7534 202.095 12.6436 203.791 12.9827 198.369C13.3218 192.947 16.7071 189.9 10.9537 183.465C5.2002 177.031 10.4778 169.858 18.9057 174.503C26.1303 178.486 29.2641 185.977 27.8804 195.656C26.8686 202.725 34.7495 217.705 27.0655 223.012V223.018Z" fill="white" stroke="#2A2B2E" stroke-width="0.5" stroke-miterlimit="10" stroke-linecap="round"/>
<path d="M22.5215 193.517C22.5215 193.517 24.4466 196.477 23.1067 200.98C21.7668 205.482 30.9821 212.655 26.6616 224.244" stroke="#2A2B2E" stroke-width="0.5" stroke-miterlimit="10" stroke-linecap="round"/>
<path d="M23.7677 220.342H34.509C35.8817 220.342 37.0029 221.458 37.0029 222.837V232.39H21.2793V222.837C21.2793 221.464 22.395 220.342 23.7732 220.342H23.7677Z" fill="white" stroke="#2A2B2E" stroke-width="0.5" stroke-miterlimit="10" stroke-linecap="round"/>
<path d="M258.773 197.795C245.708 208.251 246.577 221.667 246.577 221.667C245.183 222.865 243.98 223.636 242.951 224.085C242.585 218.581 242.908 209.301 247.567 200.509C249.673 196.537 252.719 190.294 255.12 185.288C254.661 187.148 255.126 185.326 255.126 185.326C260.874 182.366 271.839 187.339 258.773 197.795Z" fill="#FFE3DD"/>
<path d="M256.253 178.388C256.023 181.999 255.023 185.512 253.442 188.767C251.413 192.953 249.203 197.417 247.568 200.503C242.909 209.296 242.586 218.575 242.952 224.079C242.105 224.451 241.377 224.605 240.743 224.605C239.244 224.605 238.298 223.735 237.713 222.783C236.996 221.623 236.816 220.337 236.816 220.337C229.493 200.367 234.563 170.783 248.148 168.518C255.28 167.331 256.603 172.862 256.253 178.388Z" fill="white" stroke="#2A2B2E" stroke-width="0.5" stroke-miterlimit="10" stroke-linecap="round"/>
<path d="M255.236 171.139C255.236 171.139 249.554 176.265 251.506 178.12C252.857 179.4 256.253 176.282 256.253 176.282" stroke="#2A2B2E" stroke-width="0.5" stroke-miterlimit="10" stroke-linecap="round"/>
<path d="M233.457 201.887C233.457 201.887 235.338 204.229 236.306 203.075C237.417 201.756 233.725 195.426 233.725 195.426" stroke="#2A2B2E" stroke-width="0.5" stroke-miterlimit="10" stroke-linecap="round"/>
<path d="M247.715 174.832C247.715 174.832 235.733 197.423 239.884 220.78" stroke="#2A2B2E" stroke-width="0.5" stroke-miterlimit="10" stroke-linecap="round"/>
<path d="M236.816 220.342H247.984C249.242 220.342 250.265 221.365 250.265 222.624V232.39H234.541V222.624C234.541 221.365 235.564 220.342 236.822 220.342H236.816Z" fill="white" stroke="#2A2B2E" stroke-width="0.5" stroke-miterlimit="10" stroke-linecap="round"/>
<mask id="mask1_3550_69349" style="mask-type:luminance" maskUnits="userSpaceOnUse" x="0" y="69" width="274" height="205">
<path d="M273.623 69.7705H0.169922V273.994H273.623V69.7705Z" fill="white"/>
</mask>
<g mask="url(#mask1_3550_69349)">
<path d="M-8.06641 232.374H319.711" stroke="#2A2B2E" stroke-width="0.5" stroke-miterlimit="10" stroke-linecap="round"/>
</g>
<path d="M146.188 176.752C146.188 177.857 145.296 178.749 144.192 178.749C143.087 178.749 142.195 177.857 142.195 176.752C142.195 175.647 143.087 174.755 144.192 174.755C145.296 174.755 146.188 175.647 146.188 176.752Z" fill="white" stroke="#2A2B2E" stroke-width="0.5" stroke-miterlimit="10" stroke-linecap="round"/>
<path d="M144.192 177.863C143.58 177.863 143.082 177.365 143.082 176.752C143.082 176.139 143.58 175.642 144.192 175.642C144.805 175.642 145.302 176.139 145.302 176.752C145.302 177.365 144.805 177.863 144.192 177.863Z" fill="white" stroke="#2A2B2E" stroke-width="0.5" stroke-miterlimit="10" stroke-linecap="round"/>
<path d="M151.007 172.474H145.1C144.679 172.474 144.351 172.851 144.417 173.267L145.221 178.569C145.494 180.363 147.036 181.693 148.852 181.693H154.611L151.007 172.474Z" fill="white" stroke="#2A2B2E" stroke-width="0.5" stroke-miterlimit="10" stroke-linecap="round"/>
<path d="M190.816 156.973H221.005C226.097 156.973 230.226 161.104 230.226 166.198V213.585C230.226 219.861 225.14 224.944 218.872 224.944H181.344C181.344 224.944 181.83 184.932 181.601 166.302C181.535 161.164 185.686 156.968 190.822 156.968L190.816 156.973Z" fill="#2A2B2E"/>
<path d="M222.136 161.142C223.235 162.986 224.236 165.268 225.139 168.075C225.915 170.482 227.551 176.178 227.206 178.279C225.33 189.807 211.466 183.673 211.466 183.673C211.466 183.673 218.948 203.967 178.444 189.369C178.444 189.369 182.753 187.055 184.728 182.169L166.817 181.397C166.817 181.397 166.445 178.421 175.562 175.811C180.566 174.383 182.097 172.878 183.65 169.103C184.29 167.549 184.695 165.919 184.952 164.261C185.247 162.357 185.668 160.869 186.254 159.66" fill="white"/>
<path d="M222.136 161.142C223.235 162.986 224.236 165.268 225.139 168.075C225.915 170.482 227.551 176.178 227.206 178.279C225.33 189.807 211.466 183.673 211.466 183.673C211.466 183.673 218.948 203.967 178.444 189.369C178.444 189.369 182.753 187.055 184.728 182.169L166.817 181.397C166.817 181.397 166.445 178.421 175.562 175.811C180.566 174.383 182.097 172.878 183.65 169.103C184.29 167.549 184.695 165.919 184.952 164.261C185.247 162.357 185.668 160.869 186.254 159.66" stroke="#2A2B2E" stroke-width="0.5" stroke-miterlimit="10" stroke-linecap="round"/>
<path d="M193.857 192.138C193.857 192.138 187.677 189.189 176.64 189.353C169.727 189.457 159.341 192.149 153.878 196.383C149.448 199.814 145.335 204.93 145.018 212.19C144.597 221.76 151.756 240.433 151.756 240.433C151.756 240.433 160.922 242.54 171.138 238.759C171.138 238.759 170.602 222.46 166.473 214.204C166.118 213.492 166.637 212.655 167.436 212.65C173.802 212.584 194.431 211.818 193.862 204.716C193.189 196.323 193.862 192.132 193.862 192.132L193.857 192.138Z" fill="#FF9148"/>
<path d="M171.204 238.693C171.204 238.693 171.466 240.696 172.029 243.355C172.801 246.993 172.872 248.886 172.872 248.886C172.872 248.886 154.971 252.043 143.404 249.636C143.404 249.636 143.962 246.993 149.781 244.974C152.144 244.154 151.821 240.619 151.821 240.619" stroke="#2A2B2E" stroke-width="0.5" stroke-miterlimit="10" stroke-linecap="round"/>
<path d="M172.752 247.655C172.752 247.655 156.815 250.686 144.039 248.624" stroke="#2A2B2E" stroke-width="0.5" stroke-miterlimit="10" stroke-linecap="round"/>
<path d="M193.846 165.602C193.846 165.602 192.254 168.272 192.981 171.188C193.709 174.104 195.453 179.291 194.907 182.327" stroke="white" stroke-width="0.5" stroke-miterlimit="10" stroke-linecap="round"/>
<path d="M199.73 177.097C199.73 177.097 211.505 171.445 217.434 174.29L199.73 177.097Z" fill="white"/>
<path d="M199.73 177.097C199.73 177.097 211.505 171.445 217.434 174.29" stroke="#2A2B2E" stroke-width="0.5" stroke-miterlimit="10" stroke-linecap="round"/>
<path d="M211.16 167.024C211.16 167.024 213.211 169.212 214.294 173.425L211.16 167.024Z" fill="white"/>
<path d="M211.16 167.024C211.16 167.024 213.211 169.212 214.294 173.425" stroke="#2A2B2E" stroke-width="0.5" stroke-miterlimit="10" stroke-linecap="round"/>
<path d="M218.477 248.766H220.769V221.562H215.037L218.477 248.766Z" fill="#2A2B2E"/>
<path d="M202.591 182.043C202.591 182.043 202.372 178.054 199.6 177.058C199.6 177.058 195.192 177.097 191.751 175.92C188.311 174.744 186.463 181.463 186.463 181.463C186.463 181.463 187.332 182.409 189.444 179.641C189.493 179.581 189.586 179.625 189.569 179.701L189.061 181.802" fill="#FFE3DD"/>
<path d="M193.72 178.952C193.72 178.952 192.407 177.737 191.554 177.573C190.701 177.409 188.562 180.648 188.562 180.648" stroke="#2A2B2E" stroke-width="0.5" stroke-miterlimit="10" stroke-linecap="round"/>
<path d="M193.884 180.002C193.884 180.002 191.095 178.886 191.259 180.954" stroke="#2A2B2E" stroke-width="0.5" stroke-miterlimit="10" stroke-linecap="round"/>
<path d="M189.289 239.388C189.289 239.388 189.552 241.391 190.115 244.05C190.886 247.688 190.958 249.581 190.958 249.581C190.958 249.581 173.057 252.738 161.49 250.331C161.49 250.331 162.048 247.688 167.867 245.669C170.23 244.849 169.907 241.314 169.907 241.314" fill="white"/>
<path d="M189.289 239.388C189.289 239.388 189.552 241.391 190.115 244.05C190.886 247.688 190.958 249.581 190.958 249.581C190.958 249.581 173.057 252.738 161.49 250.331C161.49 250.331 162.048 247.688 167.867 245.669C170.23 244.849 169.907 241.314 169.907 241.314" stroke="#2A2B2E" stroke-width="0.5" stroke-miterlimit="10" stroke-linecap="round"/>
<path d="M211.943 192.827C211.943 192.827 205.762 189.878 194.726 190.042C187.813 190.146 177.427 192.838 171.964 197.073C167.534 200.503 163.421 205.619 163.104 212.88C162.683 222.449 169.842 241.123 169.842 241.123C169.842 241.123 179.008 243.229 189.224 239.449C189.224 239.449 188.688 223.149 184.559 214.893C184.203 214.182 184.723 213.345 185.521 213.339C191.887 213.274 212.517 212.508 211.948 205.406C211.275 197.013 211.948 192.822 211.948 192.822L211.943 192.827Z" fill="#FF9148"/>
<path d="M169.07 239.531C169.07 239.531 156.464 213.979 162.939 203.31C168.988 193.347 188.201 190.611 188.201 190.611" stroke="#2A2B2E" stroke-width="0.5" stroke-miterlimit="10" stroke-linecap="round"/>
<path d="M200.375 201.68C200.375 201.68 192.981 207.556 180.112 208.333C177.53 208.486 175.797 211.041 176.628 213.492C178.805 219.938 182.36 231.313 183.847 241.008" stroke="#2A2B2E" stroke-width="0.5" stroke-miterlimit="10" stroke-linecap="round"/>
<path d="M190.838 248.35C190.838 248.35 174.901 251.381 162.125 249.319" stroke="#2A2B2E" stroke-width="0.5" stroke-miterlimit="10" stroke-linecap="round"/>
<path d="M204.074 188.625H222.1V220.025H195.689V197.013C195.689 192.384 199.447 188.625 204.074 188.625Z" fill="#2A2B2E"/>
<path d="M159.253 240.444C159.472 234.355 150.344 236.653 150.344 236.653C150.344 236.653 150.77 238.677 151.263 240.515C151.837 242.655 151.957 243.99 149.77 244.975C149.77 244.975 158.941 249.056 159.247 240.444H159.253Z" fill="#2A2B2E"/>
<path d="M158.575 245.018C158.455 245.018 155.13 242.332 151.039 242.786" stroke="white" stroke-miterlimit="10"/>
<path d="M150.082 244.427C150.082 244.427 153.757 243.853 156.377 246.162" stroke="white" stroke-miterlimit="10"/>
<path d="M167.211 245.888C167.211 245.888 170.137 247.978 173.183 246.484C176.229 244.991 176.41 239.197 174.616 237.823C172.822 236.45 168.048 237.107 168.048 237.107C168.048 237.107 169.185 241.735 169.322 243.869C169.393 245.002 167.211 245.888 167.211 245.888Z" fill="#2A2B2E"/>
<path d="M175.311 246.146C175.311 246.146 172.15 243.711 169.109 243.941" stroke="white" stroke-miterlimit="10"/>
<path d="M173.85 247.448C173.85 247.448 170.689 245.013 167.648 245.243" stroke="white" stroke-miterlimit="10"/>
<path d="M190.662 165.832C190.662 165.832 188.769 177.354 184.389 181.222" stroke="#2A2B2E" stroke-width="0.5" stroke-miterlimit="10" stroke-linecap="round"/>
<path d="M222.136 161.142L222.109 161.159C200.779 163.079 186.221 159.917 186.221 159.917L186.254 159.654C187.096 157.898 188.283 156.732 189.918 155.737C195.715 152.213 200.139 154.527 203.536 154.161C211.22 153.329 217.526 153.406 222.136 161.142Z" fill="#FF9148"/>
<path d="M194.206 141.451C192.494 142.091 190.493 141.549 191.062 143.568C191.428 144.876 191.412 145.232 191.767 147.283C192.538 151.677 196.339 153.269 199.588 150.506C202.891 147.699 203.011 145.653 200.786 141.035C199.156 137.648 197.696 139.755 197.696 139.755C197.696 139.755 196.334 140.647 194.206 141.451Z" fill="#FFE3DD"/>
<path d="M192.111 145.396C192.248 145.708 192.489 145.905 192.642 145.839C192.795 145.768 192.811 145.462 192.669 145.15C192.532 144.838 192.292 144.641 192.139 144.706C191.986 144.772 191.969 145.084 192.111 145.396Z" fill="#2A2B2E"/>
<path d="M195.475 144.367C195.535 144.701 195.721 144.958 195.89 144.947C196.06 144.936 196.153 144.652 196.098 144.323C196.038 143.99 195.852 143.733 195.682 143.744C195.513 143.754 195.42 144.039 195.475 144.367Z" fill="#2A2B2E"/>
<path d="M196.832 151.858C196.832 151.858 197.647 153.045 197.68 154.659C197.707 156.125 198.779 157.384 200.239 157.509C200.267 157.509 200.294 157.509 200.321 157.515C201.803 157.624 205.922 156.946 205.408 153.953C205.408 153.953 202.542 148.197 202.039 145.374C202.039 145.374 197.111 151.338 196.838 151.852L196.832 151.858Z" fill="#FFE3DD"/>
<path d="M196.832 151.857C196.832 151.857 198.735 151.442 200.223 149.631C201.71 147.825 200.677 152.684 197.543 153.898C197.543 153.898 197.527 153.105 196.832 151.852V151.857Z" fill="#2A2B2E"/>
<path d="M194.731 143.082C194.731 143.082 196.951 142.797 197.208 142.474C197.558 142.042 194.468 140.685 194.731 143.082Z" fill="#2A2B2E"/>
<path d="M193.036 143.59C193.036 143.59 191.018 144.553 190.624 144.422C190.094 144.247 191.964 141.435 193.036 143.59Z" fill="#2A2B2E"/>
<path d="M200.825 143.908C200.825 143.908 201.344 142.37 202.487 142.113C203.63 141.856 204.232 145.352 201.771 145.697C199.31 146.042 200.825 143.908 200.825 143.908Z" fill="#FFE3DD"/>
<path d="M201.776 144.006C201.776 144.006 201.732 143.076 202.541 142.824" stroke="#2A2B2E" stroke-width="0.5" stroke-miterlimit="10" stroke-linecap="round"/>
<path d="M202.137 145.719C202.137 145.719 203.646 151.217 205.489 154.177" stroke="#2A2B2E" stroke-width="0.5" stroke-miterlimit="10" stroke-linecap="round"/>
<path d="M191.521 146.25C192.67 150.545 194.502 152.985 197.45 151.759" stroke="#2A2B2E" stroke-width="0.5" stroke-miterlimit="10" stroke-linecap="round"/>
<path d="M196.892 148.969C196.892 148.969 195.886 149.91 195.186 149.527" stroke="#2A2B2E" stroke-width="0.5" stroke-miterlimit="10" stroke-linecap="round"/>
<path d="M198.933 138.666C198.933 138.666 194.328 143.448 188.968 142.758L189.909 141.872L188.574 140.958C188.574 140.958 189.788 140.942 191.276 139.984C192.769 139.027 195.941 136.51 198.577 137.604C201.213 138.699 198.933 138.666 198.933 138.666Z" fill="#2A2B2E"/>
<path d="M197.799 139.273C197.799 139.273 198.641 141.249 199.855 141.571C201.069 141.894 201.217 143.076 201.217 143.076C201.217 143.076 201.758 142.283 202.207 142.118C202.207 142.118 201.545 136.368 197.957 137.309L197.799 139.279V139.273Z" fill="#2A2B2E"/>
<path d="M211.807 188.816H219.863" stroke="white" stroke-width="0.5" stroke-miterlimit="10" stroke-linecap="round"/>
<path d="M195.771 212.775V217.185" stroke="white" stroke-width="0.5" stroke-miterlimit="10" stroke-linecap="round"/>
<path d="M202.59 181.824H195.699" stroke="#2A2B2E" stroke-width="0.5" stroke-miterlimit="10" stroke-linecap="round"/>
<path d="M188.721 176.905C188.721 176.905 187.627 175.57 186.139 175.91C184.652 176.249 183.192 178.777 183.618 178.903C183.925 178.996 185.04 178.295 185.647 177.896C185.888 177.737 186.205 177.743 186.44 177.918L187.49 178.695L188.721 176.905Z" fill="#FFE3DD" stroke="#2A2B2E" stroke-width="0.5" stroke-miterlimit="10" stroke-linecap="round"/>
<path d="M189.241 176.407C189.241 176.407 187.348 178.388 186.648 180.866L189.241 176.407Z" fill="#FFE3DD"/>
<path d="M189.241 176.407C189.241 176.407 187.348 178.388 186.648 180.866" stroke="#2A2B2E" stroke-width="0.5" stroke-miterlimit="10" stroke-linecap="round"/>
<path d="M78.6837 239.388C78.6837 239.388 78.4212 241.391 77.8579 244.05C77.0867 247.688 77.0156 249.581 77.0156 249.581C77.0156 249.581 94.9159 252.738 106.483 250.331C106.483 250.331 105.925 247.688 100.106 245.669C97.7434 244.849 98.066 241.314 98.066 241.314" fill="white"/>
<path d="M78.6837 239.388C78.6837 239.388 78.4212 241.391 77.8579 244.05C77.0867 247.688 77.0156 249.581 77.0156 249.581C77.0156 249.581 94.9159 252.738 106.483 250.331C106.483 250.331 105.925 247.688 100.106 245.669C97.7434 244.849 98.066 241.314 98.066 241.314" stroke="#2A2B2E" stroke-width="0.5" stroke-miterlimit="10" stroke-linecap="round"/>
<path d="M77.1309 248.35C77.1309 248.35 93.0677 251.381 105.843 249.319" stroke="#2A2B2E" stroke-width="0.5" stroke-miterlimit="10" stroke-linecap="round"/>
<path d="M77.8579 244.05L77.125 248.389L83.2777 249.281C83.2777 249.281 81.6206 243.798 77.8579 244.05Z" fill="#2A2B2E"/>
<path d="M131.88 238.283C131.88 238.283 134.237 241.664 137.655 243.082C141.621 244.723 141.347 247.048 141.347 247.048C141.347 247.048 125.842 249.034 114.231 246.463C114.231 246.463 112.974 243.153 110.688 239.044" fill="white"/>
<path d="M131.88 238.283C131.88 238.283 134.237 241.664 137.655 243.082C141.621 244.723 141.347 247.048 141.347 247.048C141.347 247.048 125.842 249.034 114.231 246.463C114.231 246.463 112.974 243.153 110.688 239.044" stroke="#2A2B2E" stroke-width="0.5" stroke-miterlimit="10" stroke-linecap="round"/>
<path d="M98.5856 189.861H79.6189L77.2344 217.207L110.776 218.236V202.057C110.776 195.322 105.318 189.861 98.5856 189.861Z" fill="#2A2B2E"/>
<path d="M75.2599 156.973H46.963C41.8713 156.973 37.7422 161.104 37.7422 166.198V213.585C37.7422 219.861 42.8284 224.944 49.096 224.944H86.6247C86.6247 224.944 84.2456 184.932 84.4753 166.302C84.541 161.164 80.3899 156.968 75.2545 156.968L75.2599 156.973Z" fill="#2A2B2E"/>
<path d="M78.0554 155.737C72.2527 152.213 67.8337 154.522 64.432 154.156C54.9158 153.127 47.5216 153.488 42.8292 168.069C42.0526 170.482 40.4173 176.178 40.7619 178.273C42.6378 189.807 56.5073 183.674 56.5073 183.674C56.5073 183.674 49.0256 203.961 89.5295 189.369C89.5295 189.369 85.5098 183.559 83.3987 175.281C81.5775 168.146 84.2847 159.523 78.0554 155.737Z" fill="white" stroke="#2A2B2E" stroke-width="0.5" stroke-miterlimit="10" stroke-linecap="round"/>
<path d="M74.1224 165.602C74.1224 165.602 75.7139 168.272 74.9865 171.188C74.2592 174.104 72.5145 179.291 73.0614 182.327" stroke="white" stroke-width="0.5" stroke-miterlimit="10" stroke-linecap="round"/>
<path d="M68.2366 177.097C68.2366 177.097 56.4617 171.445 50.5332 174.29L68.2366 177.097Z" fill="white"/>
<path d="M68.2366 177.097C68.2366 177.097 56.4617 171.445 50.5332 174.29" stroke="#2A2B2E" stroke-width="0.5" stroke-miterlimit="10" stroke-linecap="round"/>
<path d="M56.8076 167.024C56.8076 167.024 54.7567 169.212 53.6738 173.425L56.8076 167.024Z" fill="white"/>
<path d="M56.8076 167.024C56.8076 167.024 54.7567 169.212 53.6738 173.425" stroke="#2A2B2E" stroke-width="0.5" stroke-miterlimit="10" stroke-linecap="round"/>
<path d="M68.3849 149.226C58.7156 154.079 65.7925 149.964 63.4846 150.429C60.4274 151.294 56.1014 148.044 57.4741 146.184C59.1968 143.842 55.6912 145.319 56.7686 142.212C56.9655 141.637 57.671 141.391 57.671 140.756C57.671 139.175 58.3327 138.31 59.8094 137.233C62.6424 135.17 64.562 137.566 64.562 137.566C64.562 137.566 64.7917 136.467 66.9137 136.68C69.4185 136.932 69.3584 139.033 70.6764 139.771C72.9078 141.019 71.2561 144.515 68.8388 146.211C67.3403 147.262 67.4606 148.733 68.3903 149.226H68.3849Z" fill="#FF9148"/>
<path d="M66.6899 142.157C67.9587 141.347 69.5174 140.986 69.7689 142.698C69.9275 143.804 70.0643 144.066 70.4799 145.735C71.3714 149.302 69.047 151.775 65.6726 150.785C62.2435 149.778 61.4669 148.279 61.5927 144.055C61.6857 140.953 63.4905 142.053 63.4905 142.053C63.4905 142.053 64.7538 143.382 66.6899 142.157Z" fill="white"/>
<path d="M69.2649 144.323C69.2649 144.608 69.15 144.832 69.0133 144.832C68.8766 144.832 68.7617 144.602 68.7617 144.323C68.7617 144.044 68.8766 143.814 69.0133 143.814C69.15 143.814 69.2649 144.044 69.2649 144.323Z" fill="#2A2B2E"/>
<path d="M65.995 144.657C66.0607 144.925 66.006 145.188 65.8747 145.232C65.7434 145.281 65.5794 145.1 65.5083 144.827C65.4426 144.559 65.4973 144.296 65.6286 144.252C65.7599 144.203 65.9239 144.384 65.995 144.657Z" fill="#2A2B2E"/>
<path d="M68.2 150.872C68.2 150.872 67.8828 152.574 68.9219 154.019C68.9219 154.019 69.7586 156.82 68.9109 159.731C68.6594 160.601 67.582 160.907 66.8874 160.322C65.4162 159.08 63.1794 156.869 62.5668 154.44C62.5668 154.44 62.6762 150.03 62.1074 147.732C62.1074 147.732 67.8171 150.572 68.1945 150.867L68.2 150.872Z" fill="white"/>
<path d="M68.1991 150.873C68.1991 150.873 66.624 151.195 64.8958 150.336C63.173 149.472 65.5794 152.788 68.3468 152.651C68.3468 152.651 68.0897 152.049 68.1991 150.873Z" fill="#2A2B2E"/>
<path d="M68.2422 142.808C68.2422 142.808 69.0024 142.753 69.593 143.06C70.1837 143.372 68.8328 141.681 68.2422 142.808Z" fill="#2A2B2E"/>
<path d="M65.4652 143.426C65.4652 143.426 64.7323 143.705 64.4534 144.072C64.1745 144.438 64.3112 142.468 65.4652 143.426Z" fill="#2A2B2E"/>
<path d="M62.5285 146.227C62.5285 146.227 61.6207 145.242 60.6745 145.434C59.7284 145.625 60.4503 148.46 62.4137 147.896C64.3771 147.332 62.5285 146.233 62.5285 146.233V146.227Z" fill="white"/>
<path d="M61.8446 146.621C61.8446 146.621 61.5657 145.91 60.8711 145.987" stroke="#2A2B2E" stroke-width="0.5" stroke-miterlimit="10" stroke-linecap="round"/>
<path d="M61.6257 145.439C61.6257 145.439 63.5453 144.449 63.5453 141.112C63.5453 137.774 58.645 141.478 61.6257 145.439Z" fill="#FF9148"/>
<path d="M62.1445 148.033C62.1445 148.033 62.8664 151.54 62.4727 154.391" stroke="#2A2B2E" stroke-width="0.5" stroke-miterlimit="10" stroke-linecap="round"/>
<path d="M68.2266 151.042C68.2266 151.923 68.6313 153.964 69.0907 154.325" stroke="#2A2B2E" stroke-width="0.5" stroke-miterlimit="10" stroke-linecap="round"/>
<path d="M49.4888 248.766H47.1973V221.562H52.9288L49.4888 248.766Z" fill="#2A2B2E"/>
<path d="M56.0307 192.827C56.0307 192.827 62.2107 189.878 73.2473 190.042C80.1602 190.146 90.5459 192.838 96.0095 197.073C100.439 200.503 104.552 205.619 104.869 212.88C105.291 222.449 98.2846 241.681 98.2846 241.681C98.2846 241.681 88.9654 243.229 78.7492 239.454C78.7492 239.454 79.2851 223.155 83.4143 214.899C83.7698 214.187 83.2502 213.35 82.4517 213.345C76.0857 213.279 55.4564 212.513 56.0252 205.411C56.6979 197.018 56.0252 192.827 56.0252 192.827H56.0307Z" fill="#FF9148"/>
<path d="M74.5098 195.601C74.5098 195.601 77.5177 189.9 89.6591 189.26C89.6591 189.26 105.738 189.801 117.644 214.297C126.75 231.236 131.88 238.174 131.88 238.174C131.88 238.174 121.62 241.796 110.277 238.759C110.277 238.759 106.619 233.381 102.298 226.793C97.9666 220.189 92.9624 212.382 90.3263 207.578C85.0541 197.987 74.5098 195.59 74.5098 195.59V195.601Z" fill="#FF9148"/>
<path d="M102.534 227.586C102.534 227.586 107.828 212.283 103.709 203.808C99.5913 195.333 81.002 190.978 81.002 190.978" stroke="#2A2B2E" stroke-width="0.5" stroke-miterlimit="10" stroke-linecap="round"/>
<path d="M67.5977 201.68C67.5977 201.68 76.02 208.371 90.5294 208.415C91.7928 208.415 92.6678 209.673 92.2522 210.861C90.3271 216.348 85.8479 229.802 84.1252 241.002" stroke="#2A2B2E" stroke-width="0.5" stroke-miterlimit="10" stroke-linecap="round"/>
<path d="M104.678 219.713C104.678 219.713 109.086 228.358 117.508 239.799" stroke="#2A2B2E" stroke-width="0.5" stroke-miterlimit="10" stroke-linecap="round"/>
<path d="M70.3209 144.865C70.8951 148.487 70.3373 150.938 67.7012 151.004" stroke="#2A2B2E" stroke-width="0.5" stroke-miterlimit="10" stroke-linecap="round"/>
<path d="M66.7778 148.131C66.7778 148.131 66.6082 148.985 67.806 149.056" stroke="#2A2B2E" stroke-width="0.5" stroke-miterlimit="10" stroke-linecap="round"/>
<path d="M65.377 182.043C65.377 182.043 65.5957 178.054 68.3685 177.058C68.3685 177.058 72.7766 177.097 76.2166 175.92C79.6567 174.744 81.5052 181.463 81.5052 181.463C81.5052 181.463 80.6356 182.409 78.5246 179.641C78.4754 179.581 78.3824 179.625 78.3988 179.701L78.9074 181.802" fill="white"/>
<path d="M65.377 182.043C65.377 182.043 65.5957 178.054 68.3685 177.058C68.3685 177.058 72.7766 177.097 76.2166 175.92C79.6567 174.744 81.5052 181.463 81.5052 181.463C81.5052 181.463 80.6356 182.409 78.5246 179.641C78.4754 179.581 78.3824 179.625 78.3988 179.701L78.9074 181.802" stroke="#2A2B2E" stroke-width="0.5" stroke-miterlimit="10" stroke-linecap="round"/>
<path d="M74.248 178.951C74.248 178.951 75.5606 177.737 76.4138 177.573C77.267 177.408 78.5194 179.641 78.5194 179.641" fill="white"/>
<path d="M74.248 178.951C74.248 178.951 75.5606 177.737 76.4138 177.573C77.267 177.408 78.5194 179.641 78.5194 179.641" stroke="#2A2B2E" stroke-width="0.5" stroke-miterlimit="10" stroke-linecap="round"/>
<path d="M74.084 180.002C74.084 180.002 76.8732 178.886 76.7091 180.954L74.084 180.002Z" fill="white"/>
<path d="M74.084 180.002C74.084 180.002 76.8732 178.886 76.7091 180.954" stroke="#2A2B2E" stroke-width="0.5" stroke-miterlimit="10" stroke-linecap="round"/>
<path d="M66.3118 167.779C68.1823 169.65 71.0098 169.853 72.6286 168.239C74.2474 166.619 74.0396 163.79 72.1692 161.919C70.2988 160.048 67.4713 159.846 65.8524 161.46C64.2336 163.079 64.4414 165.908 66.3118 167.779Z" fill="#FF9148"/>
<path d="M67.1222 162.538C67.1222 163.791 65.9737 164.803 64.5572 164.803C63.1407 164.803 61.9922 163.785 61.9922 162.538C61.9922 161.29 63.1407 160.272 64.5572 160.272C65.9737 160.272 67.1222 161.29 67.1222 162.538Z" fill="white" stroke="#2A2B2E" stroke-width="0.5" stroke-miterlimit="10" stroke-linecap="round"/>
<path d="M60.9902 153.98C60.9902 153.98 62.8114 157.219 67.1648 156.7C71.5182 156.18 69.7681 153.909 69.7681 153.909" stroke="#2A2B2E" stroke-width="0.5" stroke-miterlimit="10" stroke-linecap="round"/>
<path d="M62.2489 136.488C59.5526 136.105 56.129 137.889 57.8846 141.664" stroke="#FF9148" stroke-width="0.5" stroke-miterlimit="10" stroke-linecap="round"/>
<path d="M70.4688 139.837C70.4688 139.837 72.0712 140.74 72.104 142.064C72.1368 143.388 71.1524 144.137 71.1524 144.137" stroke="#FF9148" stroke-width="0.5" stroke-miterlimit="10" stroke-linecap="round"/>
<path d="M113.801 245.303C113.801 245.303 128.026 247.59 141.02 245.965" stroke="#2A2B2E" stroke-width="0.5" stroke-miterlimit="10" stroke-linecap="round"/>
<path d="M88.9045 180.981H72.1637C71.8902 180.981 71.666 181.206 71.666 181.479C71.666 181.753 71.8902 181.977 72.1637 181.977H88.9045C89.178 181.977 89.4022 181.753 89.4022 181.479C89.4022 181.206 89.178 180.981 88.9045 180.981Z" fill="white" stroke="#2A2B2E" stroke-width="0.5" stroke-miterlimit="10" stroke-linecap="round"/>
<path d="M68.5055 189.861H49.5388L47.1543 217.207L80.6961 218.236V202.057C80.6961 195.322 75.2379 189.861 68.5055 189.861Z" fill="#2A2B2E"/>
<path d="M56.5119 189.681H46.6621" stroke="white" stroke-width="0.5" stroke-miterlimit="10" stroke-linecap="round"/>
<path d="M80.7129 213.301V217.514" stroke="white" stroke-width="0.5" stroke-miterlimit="10" stroke-linecap="round"/>
<path d="M112.039 241.489C112.039 241.489 118.782 240.92 119.515 245.959L113.762 245.303L112.203 241.533" fill="#2A2B2E"/>
<path d="M79.581 178.049H125.023C126.21 178.049 127.173 177.086 127.173 175.898L132.237 147.409C132.237 146.222 131.275 145.259 130.088 145.259H84.6453C83.4585 145.259 82.496 146.222 82.496 147.409L77.4316 175.898C77.4316 177.086 78.3942 178.049 79.581 178.049Z" fill="#2A2B2E"/>
<path d="M81.0185 178.049H126.461C127.648 178.049 128.61 177.086 128.61 175.898L133.675 147.409C133.675 146.222 132.712 145.259 131.525 145.259H86.0828C84.896 145.259 83.9335 146.222 83.9335 147.409L78.8691 175.898C78.8691 177.086 79.8317 178.049 81.0185 178.049Z" fill="white" stroke="#2A2B2E" stroke-width="0.5" stroke-miterlimit="10" stroke-linecap="round"/>
<path d="M96.8895 171.511H113.969C114.418 171.511 114.779 171.15 114.779 170.701L116.682 159.988C116.682 159.539 116.321 159.178 115.873 159.178H98.7927C98.3443 159.178 97.9833 159.539 97.9833 159.988L96.0801 170.701C96.0801 171.15 96.441 171.511 96.8895 171.511Z" fill="#FFE3DD"/>
<path d="M98.9961 180.451H108.994L112.089 165.137C112.28 164.201 111.887 163.44 110.951 163.44H103.787C102.852 163.44 102.092 164.201 102.092 165.137L98.9961 180.451Z" fill="white" stroke="#2A2B2E" stroke-width="0.5" stroke-miterlimit="10" stroke-linecap="round"/>
<path d="M111.027 180.325H94.6911C94.2043 180.325 93.8105 180.719 93.8105 181.206C93.8105 181.693 94.2043 182.086 94.6911 182.086H111.027C111.514 182.086 111.908 181.693 111.908 181.206C111.908 180.719 111.514 180.325 111.027 180.325Z" fill="#2A2B2E"/>
<path d="M26.76 105.17H21.9473V128.451H26.76V105.17Z" fill="#FFE3DD"/>
<path d="M35.6159 111.349L32.1055 112.166L35.923 128.59L39.4334 127.773L35.6159 111.349Z" fill="#FFE3DD"/>
<path d="M39.405 111.349L35.8945 112.166L39.712 128.591L43.2225 127.774L39.405 111.349Z" fill="white" stroke="#2A2B2E" stroke-width="0.5" stroke-miterlimit="10" stroke-linecap="round"/>
<path d="M30.4343 105.14L26.9238 105.957L32.1942 128.633L35.7047 127.816L30.4343 105.14Z" fill="white" stroke="#2A2B2E" stroke-width="0.5" stroke-miterlimit="10" stroke-linecap="round"/>
<path d="M52.2453 128.637H18.0801" stroke="#2A2B2E" stroke-width="0.5" stroke-miterlimit="10" stroke-linecap="round"/>
<path d="M228.502 105.17H223.689V128.451H228.502V105.17Z" fill="#FFE3DD"/>
<path d="M252.342 105.17H247.529V128.451H252.342V105.17Z" fill="#FFE3DD"/>
<path d="M237.35 111.343L233.84 112.159L237.657 128.584L241.168 127.767L237.35 111.343Z" fill="#FFE3DD"/>
<path d="M247.587 111.851L245.203 111.523L242.91 128.229L245.294 128.556L247.587 111.851Z" fill="white" stroke="#2A2B2E" stroke-width="0.5" stroke-miterlimit="10" stroke-linecap="round"/>
<path d="M232.175 105.134L228.664 105.95L233.934 128.626L237.445 127.809L232.175 105.134Z" fill="white" stroke="#2A2B2E" stroke-width="0.5" stroke-miterlimit="10" stroke-linecap="round"/>
<path d="M253.989 128.637H219.818" stroke="#2A2B2E" stroke-width="0.5" stroke-miterlimit="10" stroke-linecap="round"/>
<mask id="mask2_3550_69349" style="mask-type:luminance" maskUnits="userSpaceOnUse" x="0" y="0" width="274" height="274">
<path d="M273.623 0.432129H0.169922V274H273.623V0.432129Z" fill="white"/>
</mask>
<g mask="url(#mask2_3550_69349)">
<path d="M132.521 73.9999C132.521 76.0462 134.179 77.6985 136.219 77.6985C138.259 77.6985 139.916 76.0407 139.916 73.9999C139.916 71.9591 138.259 70.3013 136.219 70.3013C134.179 70.3013 132.521 71.9591 132.521 73.9999Z" fill="white" stroke="#2A2B2E" stroke-width="0.5" stroke-miterlimit="10" stroke-linecap="round"/>
<path d="M136.395 70.3453V-11.353" stroke="#2A2B2E" stroke-width="0.5" stroke-miterlimit="10" stroke-linecap="round"/>
<path d="M138.046 48.6953H134.611C133.672 48.6953 132.91 49.4571 132.91 50.3969V66.0669C132.91 67.0066 133.672 67.7685 134.611 67.7685H138.046C138.985 67.7685 139.746 67.0066 139.746 66.0669V50.3969C139.746 49.4571 138.985 48.6953 138.046 48.6953Z" fill="white" stroke="#2A2B2E" stroke-width="0.5" stroke-miterlimit="10" stroke-linecap="round"/>
<path d="M177.472 74.0113H96.3164C98.9744 70.2579 116.125 65.2954 136.886 65.2954C157.646 65.2954 174.808 70.2579 177.466 74.0113H177.472Z" fill="#2A2B2E"/>
</g>
<path d="M246.086 186.737H20.9138C19.5958 186.737 18.5293 185.67 18.5293 184.352C18.5293 183.033 19.5958 181.966 20.9138 181.966H246.086C247.404 181.966 248.471 183.033 248.471 184.352C248.471 185.67 247.404 186.737 246.086 186.737Z" fill="#FFE3DD"/>
<path d="M35.0017 185.392H32.5625V253.603H35.0017V185.392Z" fill="#FFE3DD"/>
<path d="M241.23 182.13H238.791V250.342H241.23V182.13Z" fill="#FFE3DD"/>
<path d="M179.183 181.922H151.767C151.329 181.922 150.958 181.594 150.903 181.156L148.786 164.223C148.721 163.703 149.125 163.243 149.65 163.243H177.067C177.504 163.243 177.876 163.571 177.931 164.009L180.047 180.943C180.113 181.463 179.708 181.922 179.183 181.922Z" fill="#2A2B2E"/>
<path d="M165.171 173.951C164.815 174.46 163.896 174.427 163.12 173.885C162.343 173.338 162.004 172.49 162.365 171.981C162.721 171.472 163.639 171.505 164.416 172.047C165.193 172.594 165.532 173.442 165.171 173.951Z" fill="#2A2B2E" stroke="white" stroke-miterlimit="10"/>
<path d="M174.343 180.675H195.7C196.05 180.675 196.334 180.96 196.334 181.31C196.334 181.66 196.05 181.945 195.7 181.945H174.343C173.993 181.945 173.709 181.66 173.709 181.31C173.709 180.96 173.993 180.675 174.343 180.675Z" fill="#2A2B2E"/>
<path d="M126.681 186.683H94.9492" stroke="#2A2B2E" stroke-width="0.5" stroke-miterlimit="10" stroke-linecap="round"/>
<path d="M126.172 181.956H71" stroke="#2A2B2E" stroke-width="0.5" stroke-miterlimit="10" stroke-linecap="round"/>
</svg>
